<?xml version="1.0" encoding="utf-8"?>
<!-- Generator: Adobe Illustrator 14.0.0, SVG Export Plug-In . SVG Version: 6.00 Build 43363)  -->
<!DOCTYPE svg PUBLIC "-//W3C//DTD SVG 1.1//EN" "http://www.w3.org/Graphics/SVG/1.1/DTD/svg11.dtd">
<svg version="1.1" id="Layer_1" xmlns="http://www.w3.org/2000/svg" xmlns:xlink="http://www.w3.org/1999/xlink" x="0px" y="0px"
	 width="24px" height="36px" viewBox="147.333 224 24 36" enable-background="new 147.333 224 24 36" xml:space="preserve">
<g>
	<path fill="#D7D7D7" d="M163.797,238.388c4.036,0,7.308-3.222,7.308-7.194c0-3.974-3.272-7.194-7.308-7.194
		c-4.037,0-7.309,3.221-7.309,7.194C156.494,235.165,159.763,238.384,163.797,238.388z M163.797,225.189
		c3.369,0,6.101,2.689,6.101,6.005s-2.731,6.005-6.101,6.005c-3.37,0-6.101-2.689-6.101-6.005
		C157.7,227.879,160.429,225.193,163.797,225.189z"/>
	<path fill="#D7D7D7" d="M161.22,231.823h1.962v1.932c0,0.328,0.271,0.594,0.604,0.594c0.333,0,0.604-0.266,0.604-0.594v-1.932
		h1.962c0.333,0,0.604-0.266,0.604-0.594c0-0.328-0.27-0.594-0.604-0.594h-1.962v-1.931c0-0.328-0.271-0.594-0.604-0.594
		c-0.333,0-0.604,0.266-0.604,0.594v1.931h-1.962c-0.333,0-0.604,0.266-0.604,0.594C160.616,231.557,160.886,231.823,161.22,231.823
		z"/>
	<path fill="#D7D7D7" d="M148.334,229.152c-0.18-0.155-0.436-0.191-0.652-0.092c-0.217,0.1-0.354,0.315-0.349,0.551l0.591,29.806
		c0.004,0.236,0.151,0.446,0.372,0.538c0.222,0.089,0.476,0.043,0.649-0.12l6.946-6.552l2.948,6.232
		c0.141,0.298,0.5,0.426,0.802,0.287l4.241-1.943c0.302-0.139,0.433-0.492,0.292-0.79l-2.948-6.232l9.565-1.018
		c0.238-0.023,0.438-0.186,0.511-0.41c0.072-0.226,0.002-0.472-0.178-0.626L148.334,229.152z M160.261,249.745
		c-0.194,0.021-0.365,0.132-0.461,0.299s-0.104,0.369-0.021,0.542l3.049,6.447l-3.147,1.442l-3.048-6.447
		c-0.083-0.174-0.245-0.297-0.436-0.332c-0.191-0.036-0.389,0.021-0.529,0.154l-6.561,6.188l-0.538-27.107l20.728,17.854
		L160.261,249.745z"/>
</g>
</svg>
