<?xml version="1.0" encoding="utf-8"?>
<!-- Generator: Adobe Illustrator 14.0.0, SVG Export Plug-In . SVG Version: 6.00 Build 43363)  -->
<!DOCTYPE svg PUBLIC "-//W3C//DTD SVG 1.1//EN" "http://www.w3.org/Graphics/SVG/1.1/DTD/svg11.dtd">
<svg version="1.1" id="Layer_1" xmlns="http://www.w3.org/2000/svg" xmlns:xlink="http://www.w3.org/1999/xlink" x="0px" y="0px"
	 width="36px" height="38px" viewBox="-59.64 620.945 36 38" enable-background="new -59.64 620.945 36 38" xml:space="preserve">
<linearGradient id="SVGID_1_" gradientUnits="userSpaceOnUse" x1="-41.6133" y1="658.3728" x2="-41.6133" y2="621.6759" gradientTransform="matrix(0.9989 0 0 -0.9989 -0.0733 1278.655)">
	<stop  offset="0" style="stop-color:#00EFD1"/>
	<stop  offset="1" style="stop-color:#00ACEA"/>
</linearGradient>
<path fill="url(#SVGID_1_)" d="M-26.489,620.945c-1.586,0-2.848,1.343-2.848,2.993v0.975l-6.156,3.479
	c-2.283,1.292-5.77,2.142-8.869,2.142h-0.022c-0.389-0.821-1.208-1.347-2.111-1.355h-2.763c-1.162,0-2.13,0.877-2.323,1.994h-4.797
	c-1.777,0-3.262,1.514-3.262,3.365v5.843c0,1.751,1.316,3.193,2.962,3.341l-1.923,9.288c-0.401,1.932,0.381,3.919,1.987,5.049
	s3.727,1.185,5.388,0.138s2.542-2.99,2.238-4.941l-1.2-7.689c0.293,0.132,0.61,0.199,0.931,0.199h2.763
	c0.903-0.009,1.722-0.534,2.111-1.354h0.022c3.1,0,6.587,0.836,8.87,2.129l6.155,3.464v0.976c0,1.65,1.262,2.993,2.848,2.993
	c1.587,0,2.849-1.343,2.849-2.993v-27.04C-23.64,622.288-24.902,620.945-26.489,620.945z M-58.374,640.38v-5.843
	c0-1.146,0.917-2.089,1.996-2.089h4.729v10.047h-4.729C-57.457,642.495-58.374,641.527-58.374,640.38z M-51.062,656.389
	c-0.698,0.823-1.722,1.29-2.795,1.276s-2.086-0.508-2.763-1.348c-0.689-0.844-0.958-1.959-0.732-3.029l1.985-9.518h3.613l1.517,9.7
	C-50.073,654.518-50.375,655.587-51.062,656.389z M-45.398,643.313c0,0.647-0.493,1.176-1.096,1.176h-2.763
	c-0.603,0-1.125-0.528-1.125-1.176v-11.71c-0.002-0.629,0.5-1.143,1.125-1.149h2.763c0.297,0.004,0.58,0.128,0.786,0.344
	c0.206,0.216,0.317,0.506,0.31,0.805V643.313z M-34.871,645.424c-2.401-1.36-6.018-2.25-9.261-2.294v-11.344
	c3.244-0.042,6.86-0.933,9.26-2.292l5.536-3.118v22.165L-34.871,645.424z M-24.906,650.978c0,0.946-0.694,1.718-1.583,1.718
	c-0.888,0-1.582-0.771-1.582-1.718v-27.04c0-0.947,0.694-1.717,1.582-1.717c0.889,0,1.583,0.77,1.583,1.717V650.978z"/>
</svg>
