<?xml version="1.0" encoding="utf-8"?>
<!-- Generator: Adobe Illustrator 14.0.0, SVG Export Plug-In . SVG Version: 6.00 Build 43363)  -->
<!DOCTYPE svg PUBLIC "-//W3C//DTD SVG 1.1//EN" "http://www.w3.org/Graphics/SVG/1.1/DTD/svg11.dtd">
<svg version="1.1" id="Layer_1" xmlns="http://www.w3.org/2000/svg" xmlns:xlink="http://www.w3.org/1999/xlink" x="0px" y="0px"
	 width="36px" height="38px" viewBox="-279.64 439.945 36 38" enable-background="new -279.64 439.945 36 38" xml:space="preserve">
<path fill="#505050" d="M-246.313,439.73c-1.587,0-2.849,1.342-2.849,2.992v0.975l-6.156,3.48c-2.282,1.291-5.77,2.141-8.868,2.141
	h-0.022c-0.389-0.82-1.208-1.346-2.111-1.354h-2.763c-1.162,0-2.13,0.877-2.323,1.994h-4.797c-1.776,0-3.262,1.514-3.262,3.363
	v5.844c0,1.752,1.315,3.193,2.962,3.342l-1.923,9.287c-0.401,1.932,0.381,3.92,1.987,5.049c1.605,1.131,3.727,1.186,5.388,0.139
	s2.542-2.99,2.238-4.941l-1.2-7.689c0.293,0.133,0.609,0.199,0.931,0.199h2.763c0.903-0.008,1.723-0.533,2.111-1.354h0.022
	c3.1,0,6.587,0.836,8.869,2.129l6.155,3.465v0.975c0,1.65,1.262,2.994,2.849,2.994s2.849-1.344,2.849-2.994v-27.039
	C-243.465,441.072-244.726,439.73-246.313,439.73z M-278.199,459.166v-5.844c0-1.146,0.917-2.09,1.996-2.09h4.729v10.047h-4.729
	C-277.282,461.279-278.199,460.313-278.199,459.166z M-270.886,475.174c-0.698,0.824-1.723,1.291-2.795,1.275
	c-1.073-0.014-2.086-0.508-2.764-1.348c-0.688-0.844-0.958-1.959-0.731-3.029l1.984-9.518h3.613l1.518,9.701
	C-269.898,473.303-270.2,474.373-270.886,475.174z M-265.222,462.098c0,0.648-0.493,1.176-1.097,1.176h-2.763
	c-0.603,0-1.125-0.527-1.125-1.176v-11.709c-0.002-0.629,0.5-1.143,1.125-1.15h2.763c0.298,0.006,0.58,0.129,0.786,0.346
	c0.206,0.215,0.317,0.506,0.311,0.805V462.098z M-254.696,464.209c-2.4-1.359-6.018-2.25-9.261-2.293V450.57
	c3.244-0.041,6.86-0.932,9.26-2.291l5.536-3.117v22.164L-254.696,464.209z M-244.73,469.764c0,0.945-0.694,1.717-1.583,1.717
	s-1.582-0.77-1.582-1.717v-27.041c0-0.947,0.693-1.717,1.582-1.717s1.583,0.77,1.583,1.717V469.764z"/>
</svg>
