<svg xmlns="http://www.w3.org/2000/svg" width="36" height="38" viewBox="-59.64 620.945 36 38"><linearGradient id="a" gradientUnits="userSpaceOnUse" x1="-41.613" y1="658.373" x2="-41.613" y2="621.676" gradientTransform="matrix(.9989 0 0 -.9989 -.073 1278.655)"><stop offset="0" stop-color="#00efd1"/><stop offset="1" stop-color="#00acea"/></linearGradient><path fill="url(#a)" d="M-26.489 620.945c-1.586 0-2.848 1.343-2.848 2.993v.975l-6.156 3.479c-2.283 1.292-5.77 2.142-8.869 2.142h-.022a2.361 2.361 0 0 0-2.111-1.355h-2.763c-1.162 0-2.13.877-2.323 1.994h-4.797c-1.777 0-3.262 1.514-3.262 3.365v5.843c0 1.751 1.316 3.193 2.962 3.341l-1.923 9.288c-.401 1.932.381 3.919 1.987 5.049s3.727 1.185 5.388.138 2.542-2.99 2.238-4.941l-1.2-7.689c.293.132.61.199.931.199h2.763a2.364 2.364 0 0 0 2.111-1.354h.022c3.1 0 6.587.836 8.87 2.129l6.155 3.464v.976c0 1.65 1.262 2.993 2.848 2.993 1.587 0 2.849-1.343 2.849-2.993v-27.04c-.001-1.653-1.263-2.996-2.85-2.996zm-31.885 19.435v-5.843c0-1.146.917-2.089 1.996-2.089h4.729v10.047h-4.729c-1.079 0-1.996-.968-1.996-2.115zm7.312 16.009c-.698.823-1.722 1.29-2.795 1.276s-2.086-.508-2.763-1.348a3.611 3.611 0 0 1-.732-3.029l1.985-9.518h3.613l1.517 9.7a3.628 3.628 0 0 1-.825 2.919zm5.664-13.076c0 .647-.493 1.176-1.096 1.176h-2.763c-.603 0-1.125-.528-1.125-1.176v-11.71a1.14 1.14 0 0 1 1.125-1.149h2.763c.297.004.58.128.786.344.206.216.317.506.31.805v11.71zm10.527 2.111c-2.401-1.36-6.018-2.25-9.261-2.294v-11.344c3.244-.042 6.86-.933 9.26-2.292l5.536-3.118v22.165l-5.535-3.117zm9.965 5.554c0 .946-.694 1.718-1.583 1.718-.888 0-1.582-.771-1.582-1.718v-27.04c0-.947.694-1.717 1.582-1.717.889 0 1.583.77 1.583 1.717v27.04z"/></svg>