<svg xmlns="http://www.w3.org/2000/svg" width="36" height="38" viewBox="-279.64 439.945 36 38"><path fill="#505050" d="M-246.313 439.73c-1.587 0-2.849 1.342-2.849 2.992v.975l-6.156 3.48c-2.282 1.291-5.77 2.141-8.868 2.141h-.022a2.362 2.362 0 0 0-2.111-1.354h-2.763c-1.162 0-2.13.877-2.323 1.994h-4.797c-1.776 0-3.262 1.514-3.262 3.363v5.844c0 1.752 1.315 3.193 2.962 3.342l-1.923 9.287a4.945 4.945 0 0 0 1.987 5.049c1.605 1.131 3.727 1.186 5.388.139s2.542-2.99 2.238-4.941l-1.2-7.689c.293.133.609.199.931.199h2.763a2.359 2.359 0 0 0 2.111-1.354h.022c3.1 0 6.587.836 8.869 2.129l6.155 3.465v.975c0 1.65 1.262 2.994 2.849 2.994s2.849-1.344 2.849-2.994v-27.039c-.002-1.655-1.263-2.997-2.85-2.997zm-31.886 19.436v-5.844c0-1.146.917-2.09 1.996-2.09h4.729v10.047h-4.729c-1.079 0-1.996-.966-1.996-2.113zm7.313 16.008a3.594 3.594 0 0 1-2.795 1.275 3.615 3.615 0 0 1-2.764-1.348 3.61 3.61 0 0 1-.731-3.029l1.984-9.518h3.613l1.518 9.701a3.635 3.635 0 0 1-.825 2.919zm5.664-13.076c0 .648-.493 1.176-1.097 1.176h-2.763c-.603 0-1.125-.527-1.125-1.176v-11.709a1.142 1.142 0 0 1 1.125-1.15h2.763c.298.006.58.129.786.346.206.215.317.506.311.805v11.708zm10.526 2.111c-2.4-1.359-6.018-2.25-9.261-2.293V450.57c3.244-.041 6.86-.932 9.26-2.291l5.536-3.117v22.164l-5.535-3.117zm9.966 5.555c0 .945-.694 1.717-1.583 1.717s-1.582-.77-1.582-1.717v-27.041c0-.947.693-1.717 1.582-1.717s1.583.77 1.583 1.717v27.041z"/></svg>