<?xml version="1.0" encoding="utf-8"?>
<!-- Generator: Adobe Illustrator 14.0.0, SVG Export Plug-In . SVG Version: 6.00 Build 43363)  -->
<!DOCTYPE svg PUBLIC "-//W3C//DTD SVG 1.1//EN" "http://www.w3.org/Graphics/SVG/1.1/DTD/svg11.dtd">
<svg version="1.1" id="Layer_1" xmlns="http://www.w3.org/2000/svg" xmlns:xlink="http://www.w3.org/1999/xlink" x="0px" y="0px"
	 width="20px" height="25px" viewBox="-23.5 -4.25 20 25" enable-background="new -23.5 -4.25 20 25" xml:space="preserve">
<path fill="#D7D7D7" d="M-15.389-2.844l0.008-0.04v16.729l-5.075-5.258c-0.249-0.258-0.584-0.4-0.937-0.4
	c-0.352,0-0.686,0.143-0.935,0.4l-0.788,0.818c-0.248,0.259-0.385,0.602-0.385,0.965c0,0.366,0.136,0.711,0.384,0.966l8.681,9.017
	c0.25,0.258,0.582,0.399,0.934,0.397c0.354,0.002,0.687-0.14,0.935-0.397l8.682-9.017c0.25-0.255,0.386-0.6,0.386-0.966
	c0-0.363-0.137-0.706-0.386-0.965l-0.786-0.818c-0.25-0.258-0.58-0.4-0.933-0.4c-0.352,0-0.665,0.143-0.91,0.4l-5.107,5.319V-2.862
	c0-0.754-0.625-1.387-1.35-1.387h-1.114C-14.812-4.25-15.389-3.598-15.389-2.844z"/>
</svg>
