<svg xmlns="http://www.w3.org/2000/svg" width="15" height="18" viewBox="0 24 15 18"><linearGradient id="a" gradientUnits="userSpaceOnUse" x1="7.5" y1="24" x2="7.5" y2="42"><stop offset="0" stop-color="#00efd1"/><stop offset="1" stop-color="#00acea"/></linearGradient><path fill="url(#a)" d="M6.084 25.012l.006-.029v12.044l-3.807-3.786a.993.993 0 0 0-.702-.287.993.993 0 0 0-.701.287l-.592.59a.98.98 0 0 0 0 1.391l6.511 6.49a.982.982 0 0 0 .7.288.98.98 0 0 0 .701-.288l6.513-6.49a.971.971 0 0 0 .287-.696.977.977 0 0 0-.288-.694l-.591-.59a.985.985 0 0 0-.698-.287.961.961 0 0 0-.686.287L8.91 37.071V24.998c0-.542-.469-.998-1.013-.998h-.836c-.545 0-.977.47-.977 1.012z"/></svg>