<svg xmlns="http://www.w3.org/2000/svg" width="20" height="25" viewBox="-23.5 -4.25 20 25"><path fill="#D7D7D7" d="M-15.389-2.844l.008-.04v16.729l-5.075-5.258a1.296 1.296 0 0 0-1.872 0l-.788.818a1.389 1.389 0 0 0-.385.965c0 .366.136.711.384.966l8.681 9.017c.25.258.582.399.934.397.354.002.687-.14.935-.397l8.682-9.017c.25-.255.386-.6.386-.966 0-.363-.137-.706-.386-.965l-.786-.818c-.25-.258-.58-.4-.933-.4-.352 0-.665.143-.91.4l-5.107 5.319V-2.862c0-.754-.625-1.387-1.35-1.387h-1.114c-.727-.001-1.304.651-1.304 1.405z"/></svg>