<svg xmlns="http://www.w3.org/2000/svg" width="33" height="32" viewBox="194.499 185 33 32"><linearGradient id="a" gradientUnits="userSpaceOnUse" x1="207.403" y1="239.844" x2="207.403" y2="203.252" gradientTransform="matrix(1 0 0 -1 .04 421.952)"><stop offset="0" stop-color="#00efd1"/><stop offset="1" stop-color="#00acea"/></linearGradient><path fill="url(#a)" d="M207.434 213.878c2.869 0 4.504-1.617 4.504-4.435v-4.265c0-2.818-1.635-4.435-4.504-4.435-2.859 0-4.489 1.616-4.489 4.435v4.265c0 2.817 1.629 4.435 4.489 4.435zm-3.238-8.7c0-2.098 1.083-3.161 3.238-3.161 2.165 0 3.253 1.063 3.253 3.161v4.265c0 2.097-1.088 3.162-3.253 3.162-2.155 0-3.238-1.064-3.238-3.162v-4.265z"/><linearGradient id="b" gradientUnits="userSpaceOnUse" x1="207.364" y1="239.843" x2="207.364" y2="203.252" gradientTransform="matrix(1 0 0 -1 .04 421.952)"><stop offset="0" stop-color="#00efd1"/><stop offset="1" stop-color="#00acea"/></linearGradient><path fill="url(#b)" d="M207.395 211.688c1.282 0 2.041-.839 2.041-2.246v-4.265c0-1.406-.758-2.246-2.041-2.246-1.273 0-2.026.84-2.026 2.246v4.265c0 1.407.753 2.246 2.026 2.246zm-.775-6.51c0-.897.378-.972.774-.972.492 0 .79.163.79.972v4.265c0 .601-.126.972-.79.972-.57 0-.774-.263-.774-.972v-4.265z"/><linearGradient id="c" gradientUnits="userSpaceOnUse" x1="215.488" y1="239.844" x2="215.488" y2="203.252" gradientTransform="matrix(1 0 0 -1 .04 421.952)"><stop offset="0" stop-color="#00efd1"/><stop offset="1" stop-color="#00acea"/></linearGradient><path fill="url(#c)" d="M214.271 205.236c.082-.002.165-.01.246-.021v7.157c0 .83.743 1.409 1.838 1.409s1.838-.579 1.838-1.409v-10.234c0-.88-.889-1.425-1.714-1.425a1.438 1.438 0 0 0-.785.207l-2.081 1.284c-.48.294-.768.828-.752 1.398 0 .901.638 1.634 1.41 1.634zm-.011-1.944l2.093-1.291a.299.299 0 0 1 .126-.017.737.737 0 0 1 .464.169v10.197c-.078.059-.261.156-.587.156s-.586-.098-.586-.156v-8.171a.663.663 0 0 0-.341-.557.642.642 0 0 0-.644.015l-.463.291-.02.011a.114.114 0 0 1-.049.022c-.039-.012-.149-.155-.149-.361a.323.323 0 0 1 .156-.308z"/><linearGradient id="d" gradientUnits="userSpaceOnUse" x1="210.96" y1="239.844" x2="210.96" y2="203.252" gradientTransform="matrix(1 0 0 -1 .04 421.952)"><stop offset="0" stop-color="#00efd1"/><stop offset="1" stop-color="#00acea"/></linearGradient><path fill="url(#d)" d="M223.781 187.865h-2.851v-2.229c0-.352-.28-.637-.626-.637s-.626.285-.626.637v2.229H202.71v-2.229a.631.631 0 0 0-.625-.637.63.63 0 0 0-.625.637v2.229h-3.241a3.681 3.681 0 0 0-2.637 1.11 3.812 3.812 0 0 0-1.082 2.688v21.516a3.832 3.832 0 0 0 1.08 2.696 3.689 3.689 0 0 0 2.639 1.124h25.563a3.693 3.693 0 0 0 2.64-1.124 3.833 3.833 0 0 0 1.079-2.696v-21.516a3.812 3.812 0 0 0-1.082-2.688 3.685 3.685 0 0 0-2.638-1.11zm2.467 25.314a2.545 2.545 0 0 1-.713 1.796 2.45 2.45 0 0 1-1.754.751h-25.563a2.45 2.45 0 0 1-1.755-.751 2.54 2.54 0 0 1-.712-1.796v-15.205h30.498v15.205zm-30.498-16.478v-5.038a2.526 2.526 0 0 1 .715-1.788 2.426 2.426 0 0 1 1.752-.736h3.241v2.182c0 .352.28.637.625.637a.631.631 0 0 0 .625-.637v-2.182h16.969v2.182c0 .352.28.637.626.637s.626-.285.626-.637v-2.182h2.851a2.432 2.432 0 0 1 1.752.736c.464.474.721 1.118.715 1.788v5.038H195.75z"/></svg>