<?xml version="1.0" encoding="utf-8"?>
<!-- Generator: Adobe Illustrator 14.0.0, SVG Export Plug-In . SVG Version: 6.00 Build 43363)  -->
<!DOCTYPE svg PUBLIC "-//W3C//DTD SVG 1.1//EN" "http://www.w3.org/Graphics/SVG/1.1/DTD/svg11.dtd">
<svg version="1.1" id="Layer_1" xmlns="http://www.w3.org/2000/svg" xmlns:xlink="http://www.w3.org/1999/xlink" x="0px" y="0px"
	 width="33px" height="32px" viewBox="194.499 185 33 32" enable-background="new 194.499 185 33 32" xml:space="preserve">
<linearGradient id="SVGID_1_" gradientUnits="userSpaceOnUse" x1="207.4028" y1="239.8435" x2="207.4028" y2="203.2519" gradientTransform="matrix(1 0 0 -1 0.0397 421.9525)">
	<stop  offset="0" style="stop-color:#00EFD1"/>
	<stop  offset="1" style="stop-color:#00ACEA"/>
</linearGradient>
<path fill="url(#SVGID_1_)" d="M207.434,213.878c2.869,0,4.504-1.617,4.504-4.435v-4.265c0-2.818-1.635-4.435-4.504-4.435
	c-2.859,0-4.489,1.616-4.489,4.435v4.265C202.945,212.26,204.574,213.878,207.434,213.878z M204.196,205.178
	c0-2.098,1.083-3.161,3.238-3.161c2.165,0,3.253,1.063,3.253,3.161v4.265c0,2.097-1.088,3.162-3.253,3.162
	c-2.155,0-3.238-1.064-3.238-3.162V205.178z"/>
<linearGradient id="SVGID_2_" gradientUnits="userSpaceOnUse" x1="207.3638" y1="239.8425" x2="207.3638" y2="203.2524" gradientTransform="matrix(1 0 0 -1 0.0397 421.9525)">
	<stop  offset="0" style="stop-color:#00EFD1"/>
	<stop  offset="1" style="stop-color:#00ACEA"/>
</linearGradient>
<path fill="url(#SVGID_2_)" d="M207.395,211.688c1.282,0,2.041-0.839,2.041-2.246v-4.265c0-1.406-0.758-2.246-2.041-2.246
	c-1.273,0-2.026,0.84-2.026,2.246v4.265C205.369,210.849,206.122,211.688,207.395,211.688z M206.62,205.178
	c0-0.897,0.378-0.972,0.774-0.972c0.492,0,0.79,0.163,0.79,0.972v4.265c0,0.601-0.126,0.972-0.79,0.972
	c-0.57,0-0.774-0.263-0.774-0.972V205.178z"/>
<linearGradient id="SVGID_3_" gradientUnits="userSpaceOnUse" x1="215.4883" y1="239.8435" x2="215.4883" y2="203.2519" gradientTransform="matrix(1 0 0 -1 0.0397 421.9525)">
	<stop  offset="0" style="stop-color:#00EFD1"/>
	<stop  offset="1" style="stop-color:#00ACEA"/>
</linearGradient>
<path fill="url(#SVGID_3_)" d="M214.271,205.236c0.082-0.002,0.165-0.01,0.246-0.021v7.157c0,0.83,0.743,1.409,1.838,1.409
	s1.838-0.579,1.838-1.409v-10.234c0-0.88-0.889-1.425-1.714-1.425c-0.276-0.008-0.548,0.064-0.785,0.207l-2.081,1.284
	c-0.48,0.294-0.768,0.828-0.752,1.398C212.861,204.503,213.499,205.236,214.271,205.236z M214.26,203.292l2.093-1.291
	c0.04-0.014,0.083-0.021,0.126-0.017c0.169,0.001,0.333,0.061,0.464,0.169v10.197c-0.078,0.059-0.261,0.156-0.587,0.156
	s-0.586-0.098-0.586-0.156v-8.171c-0.009-0.234-0.138-0.445-0.341-0.557c-0.202-0.111-0.446-0.105-0.644,0.015l-0.463,0.291
	c-0.006,0.003-0.014,0.007-0.02,0.011c-0.015,0.011-0.031,0.019-0.049,0.022c-0.039-0.012-0.149-0.155-0.149-0.361
	C214.092,203.476,214.153,203.356,214.26,203.292z"/>
<linearGradient id="SVGID_4_" gradientUnits="userSpaceOnUse" x1="210.9604" y1="239.8435" x2="210.9604" y2="203.2521" gradientTransform="matrix(1 0 0 -1 0.0397 421.9525)">
	<stop  offset="0" style="stop-color:#00EFD1"/>
	<stop  offset="1" style="stop-color:#00ACEA"/>
</linearGradient>
<path fill="url(#SVGID_4_)" d="M223.781,187.865h-2.851v-2.229c0-0.352-0.28-0.637-0.626-0.637s-0.626,0.285-0.626,0.637v2.229
	H202.71v-2.229c0-0.352-0.28-0.637-0.625-0.637c-0.346,0-0.625,0.285-0.625,0.637v2.229h-3.241c-0.989-0.002-1.938,0.397-2.637,1.11
	c-0.698,0.713-1.088,1.681-1.082,2.688v21.516c-0.006,1.009,0.382,1.979,1.08,2.696c0.698,0.718,1.647,1.122,2.639,1.124h25.563
	c0.992-0.002,1.941-0.406,2.64-1.124c0.697-0.717,1.086-1.688,1.079-2.696v-21.516c0.006-1.007-0.384-1.975-1.082-2.688
	C225.719,188.262,224.77,187.863,223.781,187.865z M226.248,213.179c0.007,0.671-0.25,1.318-0.713,1.796
	c-0.463,0.479-1.095,0.749-1.754,0.751h-25.563c-0.66-0.002-1.292-0.272-1.755-0.751c-0.463-0.478-0.72-1.125-0.712-1.796v-15.205
	h30.498V213.179z M195.75,196.701v-5.038c-0.006-0.669,0.251-1.313,0.715-1.788c0.463-0.475,1.095-0.74,1.752-0.736h3.241v2.182
	c0,0.352,0.28,0.637,0.625,0.637c0.345,0,0.625-0.285,0.625-0.637v-2.182h16.969v2.182c0,0.352,0.28,0.637,0.626,0.637
	s0.626-0.285,0.626-0.637v-2.182h2.851c0.657-0.004,1.288,0.262,1.752,0.736c0.464,0.474,0.721,1.118,0.715,1.788v5.038H195.75z"/>
</svg>
