<svg xmlns="http://www.w3.org/2000/svg" width="37" height="41" viewBox="-284.14 394.445 37 41"><linearGradient id="a" gradientUnits="userSpaceOnUse" x1="-265.68" y1="452.031" x2="-265.68" y2="407.758" gradientTransform="matrix(1 0 0 -1 .04 844.592)"><stop offset="0" stop-color="#00efd1"/><stop offset="1" stop-color="#00acea"/></linearGradient><path fill="url(#a)" d="M-248.307 401.986a3.866 3.866 0 0 0-2.802-1.226h-16.659l.073-1.356a.706.706 0 0 0-.377-.671l-1.758-.925-.887-1.831a.68.68 0 0 0-.653-.395l-1.975.116-1.649-1.135a.669.669 0 0 0-.758 0l-1.648 1.135-1.975-.113a.682.682 0 0 0-.652.392l-.889 1.836-1.756.925a.721.721 0 0 0-.377.682l.107 2.063-1.086 1.721a.745.745 0 0 0 0 .79l1.086 1.721-.107 2.063a.718.718 0 0 0 .375.679l1.119.594v11.552a.73.73 0 0 0 .352.624c.214.127.48.124.693-.006l3.592-2.2-.125 7.42h-4.535a.635.635 0 0 0-.473.19.685.685 0 0 0-.193.494v2.996c0 2.858 2.151 5.197 4.82 5.324v-.021h18.237v.017c.172.008.241-.017.345-.017h.014c2.818 0 5.147-2.361 5.147-5.305v-18.942h5.859c.38 0 .681-.354.681-.749v-5.496a4.235 4.235 0 0 0-1.166-2.946zm-33.363 3.137l-.963-1.524.963-1.524a.739.739 0 0 0 .113-.437l-.096-1.828 1.559-.823a.7.7 0 0 0 .304-.318l.786-1.626 1.754.102a.645.645 0 0 0 .416-.119l1.459-1.002 1.46 1.002a.669.669 0 0 0 .417.119l1.752-.102.789 1.626a.68.68 0 0 0 .302.318l1.56.82-.096 1.831a.73.73 0 0 0 .113.437l.962 1.524-.962 1.521a.729.729 0 0 0-.113.436l.096 1.831-1.56.82a.697.697 0 0 0-.302.317l-.789 1.626-1.752-.099a.683.683 0 0 0-.417.116l-1.46 1.005-1.459-1.005a.668.668 0 0 0-.377-.119h-.037l-1.753.102-.788-1.626a.682.682 0 0 0-.304-.317l-1.558-.823.095-1.828a.748.748 0 0 0-.114-.433zm1.491 5.799l.146.298a.689.689 0 0 0 .654.395l1.977-.113 1.648 1.132c.23.16.527.16.758 0l1.648-1.132 1.976.113a.71.71 0 0 0 .666-.395l.159-.298v8.423l-4.465-2.747a.685.685 0 0 0-.712 0l-4.459 2.747v-8.423h.004zm3.027 23.068h-.004a3.6 3.6 0 0 1-2.626-1.129 3.945 3.945 0 0 1-1.087-2.74v-2.239h16.948v2.231a5.36 5.36 0 0 0 1.595 3.874h-14.826v.003zm22.094-3.869c0 2.148-1.716 3.866-3.773 3.866h-.013a3.6 3.6 0 0 1-2.625-1.132 3.94 3.94 0 0 1-1.074-2.742v-2.985c0-.397-.34-.682-.718-.682h-12.406l.139-8.279.154-.105 5.138 3.168c.106.063.228.097.352.097s.248-.033.356-.094a.743.743 0 0 0 .362-.627v-11.553l1.11-.591a.722.722 0 0 0 .37-.682l-.112-2.06 1.085-1.72a.773.773 0 0 0-.001-.807l-.619-.991h13.213c-.605.718-.935 1.709-.935 2.745v25.174h-.003zm6.539-25.177v4.797h-5.165v-4.8c0-1.494 1.125-2.745 2.557-2.745h.017c1.437.014 2.594 1.232 2.598 2.729l.683.003-.69.016zm-26.856 4.785c3.242 0 5.872-2.745 5.872-6.128.001-3.388-2.628-6.13-5.87-6.13-3.244 0-5.872 2.745-5.872 6.13.003 3.383 2.63 6.126 5.87 6.128zm0-10.822c2.483 0 4.495 2.102 4.495 4.692.001 2.593-2.012 4.694-4.493 4.694-2.484 0-4.496-2.102-4.496-4.692.002-2.59 2.013-4.691 4.494-4.694zm-2.519 7.531c-.044.268.061.541.273.701s.494.182.725.055l1.52-.834 1.521.834a.664.664 0 0 0 .727-.055.742.742 0 0 0 .272-.701l-.292-1.768 1.23-1.251c.188-.193.254-.478.174-.737s-.296-.45-.556-.489l-1.7-.26-.761-1.607a.686.686 0 0 0-.617-.403.687.687 0 0 0-.616.403l-.762 1.607-1.699.26a.691.691 0 0 0-.555.489.735.735 0 0 0 .174.737l1.229 1.251-.287 1.768zm1.697-3.137a.689.689 0 0 0 .518-.392l.305-.644.305.644a.697.697 0 0 0 .518.392l.68.102-.492.5a.742.742 0 0 0-.196.638l.114.704-.607-.334a.67.67 0 0 0-.639 0l-.607.334.115-.704a.737.737 0 0 0-.197-.638l-.491-.5.674-.102zm12.52 15.672h4.193c.417 0 .736.089.954.266.22.177.329.417.329.721a.969.969 0 0 1-.259.688c-.175.188-.438.282-.792.282h-5.91c-.402 0-.714-.116-.939-.346a1.105 1.105 0 0 1-.338-.807c0-.198.072-.464.217-.792.144-.329.303-.586.474-.773a46.716 46.716 0 0 1 1.928-1.961c.572-.544.981-.901 1.227-1.072.439-.32.805-.644 1.096-.967.294-.323.515-.654.667-.994a2.42 2.42 0 0 0 .229-.997c0-.353-.081-.671-.245-.95a1.69 1.69 0 0 0-.666-.649 1.87 1.87 0 0 0-.919-.232c-.701 0-1.253.317-1.654.953-.054.083-.143.309-.27.679-.126.367-.266.655-.426.854-.159.199-.389.298-.694.298-.267 0-.489-.091-.666-.273s-.265-.431-.265-.746c0-.381.084-.779.25-1.193.166-.415.414-.79.742-1.127.33-.337.747-.61 1.253-.814.507-.208 1.099-.312 1.778-.312.82 0 1.519.132 2.096.397.374.177.704.42.988.729s.505.668.662 1.074c.156.406.237.826.237 1.262a3.63 3.63 0 0 1-.494 1.87c-.33.558-.665 1-1.007 1.317-.343.318-.918.818-1.724 1.498-.805.676-1.357 1.206-1.658 1.579a4.832 4.832 0 0 0-.394.538z"/></svg>