<?xml version="1.0" encoding="utf-8"?>
<!-- Generator: Adobe Illustrator 14.0.0, SVG Export Plug-In . SVG Version: 6.00 Build 43363)  -->
<!DOCTYPE svg PUBLIC "-//W3C//DTD SVG 1.1//EN" "http://www.w3.org/Graphics/SVG/1.1/DTD/svg11.dtd">
<svg version="1.1" id="Layer_1" xmlns="http://www.w3.org/2000/svg" xmlns:xlink="http://www.w3.org/1999/xlink" x="0px" y="0px"
	 width="37px" height="41px" viewBox="-284.14 394.445 37 41" enable-background="new -284.14 394.445 37 41" xml:space="preserve">
<linearGradient id="SVGID_1_" gradientUnits="userSpaceOnUse" x1="-265.6804" y1="452.0313" x2="-265.6804" y2="407.7584" gradientTransform="matrix(1 0 0 -1 0.04 844.5918)">
	<stop  offset="0" style="stop-color:#00EFD1"/>
	<stop  offset="1" style="stop-color:#00ACEA"/>
</linearGradient>
<path fill="url(#SVGID_1_)" d="M-248.307,401.986c-0.74-0.782-1.747-1.224-2.802-1.226h-16.659l0.073-1.356
	c0.016-0.282-0.133-0.547-0.377-0.671l-1.758-0.925l-0.887-1.831c-0.123-0.257-0.38-0.412-0.653-0.395l-1.975,0.116l-1.649-1.135
	c-0.23-0.157-0.527-0.157-0.758,0l-1.648,1.135l-1.975-0.113c-0.272-0.017-0.529,0.138-0.652,0.392l-0.889,1.836l-1.756,0.925
	c-0.246,0.129-0.393,0.397-0.377,0.682l0.107,2.063l-1.086,1.721c-0.151,0.24-0.151,0.549,0,0.79l1.086,1.721l-0.107,2.063
	c-0.016,0.284,0.131,0.552,0.375,0.679l1.119,0.594v11.552c0.002,0.257,0.136,0.497,0.352,0.624c0.214,0.127,0.48,0.124,0.693-0.006
	l3.592-2.2l-0.125,7.42h-4.535c-0.176-0.006-0.348,0.063-0.473,0.19c-0.129,0.133-0.197,0.31-0.193,0.494v2.996
	c0,2.858,2.151,5.197,4.82,5.324v-0.021h18.237v0.017c0.172,0.008,0.241-0.017,0.345-0.017h0.014c2.818,0,5.147-2.361,5.147-5.305
	v-18.942h5.859c0.38,0,0.681-0.354,0.681-0.749v-5.496C-247.138,403.825-247.558,402.765-248.307,401.986z M-281.67,405.123
	l-0.963-1.524l0.963-1.524c0.082-0.127,0.121-0.282,0.113-0.437l-0.096-1.828l1.559-0.823c0.131-0.069,0.238-0.18,0.304-0.318
	l0.786-1.626l1.754,0.102c0.146,0.008,0.293-0.03,0.416-0.119l1.459-1.002l1.46,1.002c0.123,0.085,0.269,0.127,0.417,0.119
	l1.752-0.102l0.789,1.626c0.064,0.138,0.17,0.249,0.302,0.318l1.56,0.82l-0.096,1.831c-0.008,0.155,0.029,0.307,0.113,0.437
	l0.962,1.524l-0.962,1.521c-0.084,0.13-0.121,0.282-0.113,0.436l0.096,1.831l-1.56,0.82c-0.132,0.069-0.237,0.182-0.302,0.317
	l-0.789,1.626l-1.752-0.099c-0.146-0.008-0.294,0.033-0.417,0.116l-1.46,1.005l-1.459-1.005c-0.112-0.077-0.244-0.119-0.377-0.119
	c-0.014,0-0.025,0-0.037,0l-1.753,0.102l-0.788-1.626c-0.065-0.138-0.172-0.249-0.304-0.317l-1.558-0.823l0.095-1.828
	C-281.549,405.405-281.588,405.253-281.67,405.123z M-280.179,410.922l0.146,0.298c0.125,0.254,0.381,0.412,0.654,0.395l1.977-0.113
	l1.648,1.132c0.23,0.16,0.527,0.16,0.758,0l1.648-1.132l1.976,0.113c0.276,0.014,0.538-0.141,0.666-0.395l0.159-0.298v8.423
	l-4.465-2.747c-0.219-0.133-0.489-0.133-0.712,0l-4.459,2.747v-8.423H-280.179z M-277.152,433.99h-0.004
	c-0.984,0.006-1.93-0.4-2.626-1.129c-0.697-0.724-1.088-1.71-1.087-2.74v-2.239h16.948v2.231c-0.011,1.469,0.569,2.872,1.595,3.874
	h-14.826V433.99z M-255.058,430.121c0,2.148-1.716,3.866-3.773,3.866h-0.013c-0.983,0.006-1.928-0.402-2.625-1.132
	c-0.694-0.727-1.08-1.715-1.074-2.742v-2.985c0-0.397-0.34-0.682-0.718-0.682h-12.406l0.139-8.279l0.154-0.105l5.138,3.168
	c0.106,0.063,0.228,0.097,0.352,0.097s0.248-0.033,0.356-0.094c0.219-0.127,0.355-0.365,0.362-0.627v-11.553l1.11-0.591
	c0.242-0.13,0.387-0.397,0.37-0.682l-0.112-2.06l1.085-1.72c0.151-0.246,0.151-0.561-0.001-0.807l-0.619-0.991h13.213
	c-0.605,0.718-0.935,1.709-0.935,2.745v25.174H-255.058z M-248.519,404.944v4.797h-5.165v-4.8c0-1.494,1.125-2.745,2.557-2.745
	h0.017c1.437,0.014,2.594,1.232,2.598,2.729l0.683,0.003L-248.519,404.944z M-275.375,409.729c3.242,0,5.872-2.745,5.872-6.128
	c0.001-3.388-2.628-6.13-5.87-6.13c-3.244,0-5.872,2.745-5.872,6.13C-281.242,406.984-278.615,409.727-275.375,409.729z
	 M-275.375,398.907c2.483,0,4.495,2.102,4.495,4.692c0.001,2.593-2.012,4.694-4.493,4.694c-2.484,0-4.496-2.102-4.496-4.692
	C-279.867,401.011-277.856,398.91-275.375,398.907z M-277.894,406.438c-0.044,0.268,0.061,0.541,0.273,0.701
	s0.494,0.182,0.725,0.055l1.52-0.834l1.521,0.834c0.232,0.127,0.514,0.108,0.727-0.055c0.209-0.16,0.314-0.434,0.272-0.701
	l-0.292-1.768l1.23-1.251c0.188-0.193,0.254-0.478,0.174-0.737s-0.296-0.45-0.556-0.489l-1.7-0.26l-0.761-1.607
	c-0.116-0.246-0.354-0.403-0.617-0.403c-0.26,0-0.501,0.157-0.616,0.403l-0.762,1.607l-1.699,0.26
	c-0.26,0.039-0.477,0.229-0.555,0.489c-0.084,0.26-0.014,0.544,0.174,0.737l1.229,1.251L-277.894,406.438z M-276.197,403.301
	c0.225-0.033,0.42-0.183,0.518-0.392l0.305-0.644l0.305,0.644c0.101,0.209,0.295,0.359,0.518,0.392l0.68,0.102l-0.492,0.5
	c-0.161,0.166-0.235,0.403-0.196,0.638l0.114,0.704l-0.607-0.334c-0.199-0.108-0.438-0.108-0.639,0l-0.607,0.334l0.115-0.704
	c0.039-0.235-0.034-0.472-0.197-0.638l-0.491-0.5L-276.197,403.301z M-263.677,418.973h4.193c0.417,0,0.736,0.089,0.954,0.266
	c0.22,0.177,0.329,0.417,0.329,0.721c0,0.271-0.085,0.503-0.259,0.688c-0.175,0.188-0.438,0.282-0.792,0.282h-5.91
	c-0.402,0-0.714-0.116-0.939-0.346c-0.227-0.229-0.338-0.497-0.338-0.807c0-0.198,0.072-0.464,0.217-0.792
	c0.144-0.329,0.303-0.586,0.474-0.773c0.713-0.762,1.354-1.417,1.928-1.961c0.572-0.544,0.981-0.901,1.227-1.072
	c0.439-0.32,0.805-0.644,1.096-0.967c0.294-0.323,0.515-0.654,0.667-0.994c0.153-0.339,0.229-0.674,0.229-0.997
	c0-0.353-0.081-0.671-0.245-0.95c-0.162-0.279-0.385-0.497-0.666-0.649c-0.281-0.155-0.587-0.232-0.919-0.232
	c-0.701,0-1.253,0.317-1.654,0.953c-0.054,0.083-0.143,0.309-0.27,0.679c-0.126,0.367-0.266,0.655-0.426,0.854
	c-0.159,0.199-0.389,0.298-0.694,0.298c-0.267,0-0.489-0.091-0.666-0.273s-0.265-0.431-0.265-0.746c0-0.381,0.084-0.779,0.25-1.193
	c0.166-0.415,0.414-0.79,0.742-1.127c0.33-0.337,0.747-0.61,1.253-0.814c0.507-0.208,1.099-0.312,1.778-0.312
	c0.82,0,1.519,0.132,2.096,0.397c0.374,0.177,0.704,0.42,0.988,0.729s0.505,0.668,0.662,1.074c0.156,0.406,0.237,0.826,0.237,1.262
	c0,0.685-0.165,1.309-0.494,1.87c-0.33,0.558-0.665,1-1.007,1.317c-0.343,0.318-0.918,0.818-1.724,1.498
	c-0.805,0.676-1.357,1.206-1.658,1.579C-263.412,418.584-263.542,418.764-263.677,418.973z"/>
</svg>
