<?xml version="1.0" encoding="utf-8"?>
<!-- Generator: Adobe Illustrator 14.0.0, SVG Export Plug-In . SVG Version: 6.00 Build 43363)  -->
<!DOCTYPE svg PUBLIC "-//W3C//DTD SVG 1.1//EN" "http://www.w3.org/Graphics/SVG/1.1/DTD/svg11.dtd">
<svg version="1.1" id="Layer_1" xmlns="http://www.w3.org/2000/svg" xmlns:xlink="http://www.w3.org/1999/xlink" x="0px" y="0px"
	 width="37.001px" height="41px" viewBox="-284.14 394.445 37.001 41" enable-background="new -284.14 394.445 37.001 41"
	 xml:space="preserve">
<path fill="#D7D7D7" d="M-248.306,401.987c-0.738-0.782-1.746-1.224-2.801-1.226h-16.658l0.071-1.356
	c0.015-0.282-0.132-0.547-0.376-0.671l-1.757-0.925l-0.888-1.831c-0.123-0.257-0.38-0.412-0.651-0.395l-1.976,0.116l-1.65-1.135
	c-0.229-0.157-0.527-0.157-0.757,0l-1.648,1.135l-1.976-0.113c-0.271-0.017-0.528,0.138-0.651,0.392l-0.889,1.836l-1.757,0.925
	c-0.245,0.129-0.393,0.397-0.378,0.682l0.108,2.063l-1.086,1.721c-0.153,0.24-0.153,0.549,0,0.79l1.086,1.721l-0.108,2.063
	c-0.016,0.285,0.13,0.553,0.375,0.68l1.12,0.594v11.552c0.001,0.257,0.135,0.497,0.35,0.624s0.48,0.124,0.691-0.006l3.593-2.201
	l-0.123,7.421h-4.534c-0.175-0.006-0.346,0.063-0.473,0.19c-0.126,0.133-0.195,0.31-0.191,0.494v2.996
	c0,2.858,2.15,5.197,4.818,5.324v-0.021h18.238v0.017c0.17,0.008,0.24-0.017,0.344-0.017h0.012c2.818,0,5.15-2.361,5.15-5.306
	v-18.94h5.855c0.381,0,0.682-0.354,0.682-0.749v-5.496C-247.136,403.826-247.558,402.766-248.306,401.987z M-281.649,407.389
	l0.095-1.829c0.009-0.155-0.03-0.307-0.111-0.437l-0.965-1.524l0.965-1.524c0.081-0.127,0.12-0.282,0.111-0.437l-0.095-1.828
	l1.558-0.823c0.131-0.069,0.237-0.18,0.304-0.318l0.787-1.626l1.753,0.102c0.146,0.008,0.293-0.03,0.416-0.119l1.459-1.002
	l1.461,1.002c0.123,0.085,0.268,0.127,0.416,0.119l1.752-0.102l0.789,1.626c0.065,0.138,0.172,0.249,0.303,0.318l1.559,0.82
	l-0.096,1.831c-0.008,0.155,0.029,0.307,0.113,0.437l0.962,1.524l-0.962,1.521c-0.084,0.13-0.121,0.282-0.113,0.436l0.096,1.832
	l-1.559,0.82c-0.131,0.068-0.236,0.182-0.303,0.316l-0.789,1.627l-1.752-0.1c-0.148-0.008-0.293,0.033-0.416,0.116l-1.461,1.005
	l-1.459-1.005c-0.111-0.077-0.243-0.118-0.379-0.118c-0.012,0-0.023,0-0.037,0l-1.753,0.102l-0.788-1.627
	c-0.065-0.138-0.172-0.248-0.304-0.316L-281.649,407.389z M-280.177,419.346v-8.423l0.147,0.298
	c0.123,0.254,0.379,0.412,0.652,0.396l1.977-0.113l1.65,1.132c0.229,0.16,0.527,0.16,0.758,0l1.649-1.132l1.976,0.113
	c0.275,0.014,0.536-0.142,0.666-0.396l0.16-0.298v8.423l-4.464-2.748c-0.222-0.132-0.491-0.132-0.712,0L-280.177,419.346z
	 M-277.15,433.99h-0.004c-0.983,0.006-1.93-0.4-2.627-1.13c-0.695-0.723-1.086-1.709-1.086-2.739v-2.239h16.947v2.231
	c-0.01,1.469,0.568,2.872,1.596,3.874h-14.826V433.99z M-255.058,404.944v25.177c0,2.148-1.713,3.866-3.771,3.866h-0.012
	c-0.982,0.006-1.93-0.403-2.625-1.132c-0.693-0.727-1.082-1.715-1.074-2.742v-2.985c0-0.397-0.34-0.683-0.719-0.683h-12.404
	l0.139-8.278l0.154-0.105l5.139,3.168c0.106,0.063,0.227,0.097,0.352,0.097c0.123,0,0.246-0.033,0.355-0.095
	c0.219-0.127,0.356-0.364,0.361-0.626v-11.553l1.111-0.59c0.242-0.131,0.387-0.398,0.369-0.683l-0.112-2.06l1.085-1.72
	c0.151-0.246,0.151-0.561-0.001-0.807l-0.618-0.991h13.209C-254.728,402.915-255.058,403.906-255.058,404.944z M-248.517,404.944
	v4.797h-5.164v-4.8c0-1.494,1.125-2.745,2.555-2.745h0.016c1.438,0.014,2.596,1.232,2.6,2.729l0.684,0.003L-248.517,404.944z
	 M-275.373,409.73c3.244,0,5.872-2.746,5.872-6.128c0-3.388-2.628-6.13-5.872-6.13c-3.242,0-5.871,2.745-5.871,6.13
	C-281.238,406.984-278.613,409.727-275.373,409.73z M-275.373,398.908c2.484,0,4.496,2.102,4.496,4.692
	c0,2.593-2.011,4.694-4.494,4.694c-2.482,0-4.494-2.102-4.494-4.692C-279.864,401.012-277.853,398.91-275.373,398.908z
	 M-277.891,406.438c-0.044,0.268,0.062,0.541,0.274,0.701s0.494,0.183,0.726,0.056l1.521-0.834l1.521,0.834
	c0.23,0.127,0.514,0.107,0.725-0.056c0.213-0.16,0.317-0.434,0.274-0.701l-0.29-1.768l1.229-1.251
	c0.188-0.193,0.256-0.478,0.174-0.737c-0.08-0.26-0.296-0.45-0.556-0.489l-1.699-0.26l-0.762-1.607
	c-0.114-0.246-0.354-0.403-0.616-0.403s-0.501,0.157-0.616,0.403l-0.762,1.607l-1.699,0.26c-0.26,0.039-0.477,0.229-0.557,0.489
	c-0.081,0.26-0.014,0.544,0.174,0.737l1.229,1.251L-277.891,406.438z M-276.193,403.301c0.225-0.033,0.418-0.183,0.518-0.392
	l0.303-0.644l0.305,0.644c0.101,0.209,0.293,0.359,0.519,0.392l0.68,0.102l-0.493,0.5c-0.161,0.166-0.234,0.403-0.195,0.638
	l0.114,0.704l-0.607-0.334c-0.199-0.108-0.44-0.108-0.64,0l-0.607,0.334l0.115-0.704c0.039-0.235-0.035-0.472-0.199-0.638l-0.49-0.5
	L-276.193,403.301z M-265.475,413.502c-0.174-0.185-0.261-0.397-0.261-0.641c0-0.281,0.087-0.488,0.258-0.621
	c0.172-0.133,0.475-0.304,0.908-0.514c0.646-0.314,1.164-0.646,1.553-0.994s0.732-0.737,1.031-1.168
	c0.301-0.432,0.496-0.695,0.588-0.795s0.262-0.149,0.514-0.149c0.283,0,0.512,0.112,0.682,0.339c0.172,0.227,0.26,0.539,0.26,0.937
	v9.486c0,1.11-0.369,1.665-1.104,1.665c-0.324,0-0.588-0.113-0.785-0.34s-0.297-0.558-0.297-1.002v-7.539
	c-1.359,1.076-2.273,1.618-2.748,1.618C-265.103,413.778-265.301,413.688-265.475,413.502z"/>
</svg>
