<svg xmlns="http://www.w3.org/2000/svg" width="37.001" height="41" viewBox="-69.64 607.945 37.001 41"><path fill="#D7D7D7" d="M-33.803 615.486a3.869 3.869 0 0 0-2.801-1.226h-16.66l.072-1.354a.712.712 0 0 0-.376-.673l-1.759-.923-.887-1.832a.684.684 0 0 0-.653-.393l-1.976.114-1.648-1.134a.662.662 0 0 0-.758 0l-1.648 1.135-1.977-.114a.683.683 0 0 0-.65.394l-.89 1.835-1.757.926a.72.72 0 0 0-.377.682l.107 2.062-1.087 1.721a.753.753 0 0 0 0 .792l1.087 1.721-.107 2.062a.718.718 0 0 0 .375.681l1.121.592v11.552a.724.724 0 0 0 .351.624.663.663 0 0 0 .691-.006l3.594-2.199-.125 7.421h-4.534a.635.635 0 0 0-.474.19.684.684 0 0 0-.191.492v2.995c0 2.859 2.151 5.198 4.818 5.324v-.021h18.238v.018c.171.007.241-.018.343-.018h.014c2.817 0 5.149-2.361 5.149-5.304v-18.943h5.858c.381 0 .68-.354.68-.75v-5.494a4.23 4.23 0 0 0-1.163-2.949zm-33.361 3.138l-.964-1.524.964-1.523a.748.748 0 0 0 .112-.436l-.097-1.83 1.558-.822a.71.71 0 0 0 .305-.317l.786-1.626 1.753.1a.66.66 0 0 0 .416-.118l1.461-1.004 1.46 1.004c.123.086.27.126.417.118l1.753-.1.787 1.626a.697.697 0 0 0 .304.317l1.558.821-.096 1.83a.74.74 0 0 0 .112.436l.962 1.523-.962 1.524a.74.74 0 0 0-.112.435l.096 1.83-1.558.822a.704.704 0 0 0-.304.318l-.787 1.626-1.753-.101a.67.67 0 0 0-.417.117l-1.46 1.005-1.461-1.005a.66.66 0 0 0-.377-.118l-.039.001-1.752.101-.787-1.626a.699.699 0 0 0-.305-.317l-1.558-.822.097-1.83a.732.732 0 0 0-.112-.435zm1.49 5.798l.147.3a.686.686 0 0 0 .653.394l1.977-.113 1.648 1.134a.662.662 0 0 0 .758 0l1.648-1.134 1.976.113a.707.707 0 0 0 .668-.394l.159-.3v8.422l-4.465-2.747a.683.683 0 0 0-.711 0l-4.459 2.747v-8.422zm3.027 23.065h-.004a3.607 3.607 0 0 1-2.625-1.128 3.94 3.94 0 0 1-1.087-2.739v-2.241h16.947v2.231a5.366 5.366 0 0 0 1.595 3.877h-14.826zm22.094-3.867c0 2.148-1.716 3.867-3.774 3.867h-.013c-.982.004-1.928-.404-2.623-1.132s-1.081-1.717-1.076-2.743v-2.986c0-.396-.339-.683-.719-.683h-12.404l.138-8.279.155-.105 5.138 3.167a.675.675 0 0 0 .351.099.712.712 0 0 0 .356-.096.738.738 0 0 0 .361-.625v-11.552l1.109-.592a.715.715 0 0 0 .369-.681l-.111-2.062 1.085-1.721a.773.773 0 0 0-.001-.807l-.618-.993h13.21c-.605.719-.933 1.71-.933 2.748v25.176zm6.539-25.176v4.796h-5.163v-4.796c0-1.496 1.124-2.747 2.556-2.747h.017c1.436.015 2.593 1.231 2.598 2.73l.684.002-.692.015zm-26.856 4.786c3.242 0 5.872-2.744 5.872-6.13.001-3.385-2.629-6.129-5.871-6.129-3.243 0-5.872 2.744-5.872 6.129.003 3.383 2.63 6.126 5.871 6.13zm0-10.823c2.482 0 4.495 2.102 4.495 4.692.002 2.592-2.012 4.693-4.494 4.693-2.484 0-4.497-2.101-4.497-4.693.003-2.589 2.015-4.689 4.496-4.692zm-2.52 7.529a.734.734 0 0 0 .274.703.663.663 0 0 0 .725.054l1.521-.834 1.521.834a.666.666 0 0 0 .727-.054.738.738 0 0 0 .273-.703l-.292-1.768 1.23-1.252a.744.744 0 0 0 .175-.736.7.7 0 0 0-.556-.49l-1.701-.257-.76-1.608a.684.684 0 0 0-.617-.401.682.682 0 0 0-.616.401l-.762 1.608-1.7.257a.697.697 0 0 0-.556.49.736.736 0 0 0 .174.736l1.23 1.252-.29 1.768zm1.698-3.135a.687.687 0 0 0 .518-.393l.305-.642.304.642a.692.692 0 0 0 .518.393l.679.103-.491.5a.736.736 0 0 0-.196.636l.115.706-.608-.334a.665.665 0 0 0-.639 0l-.607.334.115-.706a.734.734 0 0 0-.198-.636l-.491-.5.676-.103zm13.983 10.086c.493 0 .917-.149 1.272-.447.356-.298.534-.727.534-1.284 0-.425-.141-.791-.425-1.098s-.666-.459-1.149-.459c-.325 0-.595.047-.807.141s-.378.218-.501.373-.24.354-.35.597-.21.472-.302.688a.57.57 0 0 1-.288.273c-.14.066-.301.1-.482.1-.214 0-.411-.09-.59-.27-.179-.179-.27-.418-.27-.716 0-.287.085-.59.253-.907.169-.317.415-.62.738-.907a3.68 3.68 0 0 1 1.209-.691 4.727 4.727 0 0 1 1.614-.261c.519 0 .993.073 1.422.22.428.146.8.357 1.115.634.315.276.555.596.715.961.16.364.241.756.241 1.176 0 .552-.117 1.026-.35 1.42-.233.395-.566.78-1 1.156.418.232.77.497 1.056.795.287.298.502.628.647.989.144.362.216.754.216 1.174 0 .503-.098.988-.293 1.458s-.483.887-.862 1.254c-.38.367-.831.654-1.354.861s-1.1.313-1.729.313c-.644 0-1.219-.119-1.727-.356a3.959 3.959 0 0 1-1.258-.893 4.044 4.044 0 0 1-.746-1.104c-.169-.381-.253-.695-.253-.944 0-.32.101-.579.301-.775a1.03 1.03 0 0 1 .751-.293c.15 0 .294.044.435.136a.646.646 0 0 1 .272.328c.278.768.576 1.337.896 1.709.317.373.767.561 1.344.561.332 0 .652-.085.96-.254a2.01 2.01 0 0 0 .763-.748c.201-.331.301-.715.301-1.151 0-.646-.171-1.154-.514-1.521-.343-.368-.818-.551-1.429-.551-.107 0-.273.011-.497.033-.226.022-.37.033-.435.033-.295 0-.521-.076-.683-.228s-.24-.363-.24-.634c0-.265.097-.479.288-.642.192-.163.479-.244.858-.244h.333z"/></svg>