<svg xmlns="http://www.w3.org/2000/svg" width="37.001" height="41" viewBox="-284.14 394.445 37.001 41"><path fill="#D7D7D7" d="M-248.306 401.987a3.86 3.86 0 0 0-2.801-1.226h-16.658l.071-1.356a.707.707 0 0 0-.376-.671l-1.757-.925-.888-1.831a.68.68 0 0 0-.651-.395l-1.976.116-1.65-1.135a.667.667 0 0 0-.757 0l-1.648 1.135-1.976-.113a.682.682 0 0 0-.651.392l-.889 1.836-1.757.925a.726.726 0 0 0-.378.682l.108 2.063-1.086 1.721a.737.737 0 0 0 0 .79l1.086 1.721-.108 2.063a.716.716 0 0 0 .375.68l1.12.594v11.552c.001.257.135.497.35.624s.48.124.691-.006l3.593-2.201-.123 7.421h-4.534a.64.64 0 0 0-.473.19.696.696 0 0 0-.191.494v2.996c0 2.858 2.15 5.197 4.818 5.324v-.021h18.238v.017c.17.008.24-.017.344-.017h.012c2.818 0 5.15-2.361 5.15-5.306v-18.94h5.855c.381 0 .682-.354.682-.749v-5.496a4.23 4.23 0 0 0-1.165-2.948zm-33.343 5.402l.095-1.829a.743.743 0 0 0-.111-.437l-.965-1.524.965-1.524a.738.738 0 0 0 .111-.437l-.095-1.828 1.558-.823a.704.704 0 0 0 .304-.318l.787-1.626 1.753.102a.645.645 0 0 0 .416-.119l1.459-1.002 1.461 1.002a.666.666 0 0 0 .416.119l1.752-.102.789 1.626a.692.692 0 0 0 .303.318l1.559.82-.096 1.831a.73.73 0 0 0 .113.437l.962 1.524-.962 1.521a.729.729 0 0 0-.113.436l.096 1.832-1.559.82a.713.713 0 0 0-.303.316l-.789 1.627-1.752-.1a.676.676 0 0 0-.416.116l-1.461 1.005-1.459-1.005a.664.664 0 0 0-.379-.118h-.037l-1.753.102-.788-1.627a.68.68 0 0 0-.304-.316l-1.557-.819zm1.472 11.957v-8.423l.147.298a.686.686 0 0 0 .652.396l1.977-.113 1.65 1.132c.229.16.527.16.758 0l1.649-1.132 1.976.113a.714.714 0 0 0 .666-.396l.16-.298v8.423l-4.464-2.748a.69.69 0 0 0-.712 0l-4.459 2.748zm3.027 14.644h-.004c-.983.006-1.93-.4-2.627-1.13a3.954 3.954 0 0 1-1.086-2.739v-2.239h16.947v2.231a5.357 5.357 0 0 0 1.596 3.874h-14.826v.003zm22.092-29.046v25.177c0 2.148-1.713 3.866-3.771 3.866h-.012a3.602 3.602 0 0 1-2.625-1.132 3.936 3.936 0 0 1-1.074-2.742v-2.985c0-.397-.34-.683-.719-.683h-12.404l.139-8.278.154-.105 5.139 3.168a.688.688 0 0 0 .352.097.72.72 0 0 0 .355-.095.736.736 0 0 0 .361-.626v-11.553l1.111-.59a.722.722 0 0 0 .369-.683l-.112-2.06 1.085-1.72a.773.773 0 0 0-.001-.807l-.618-.991h13.209c-.608.713-.938 1.704-.938 2.742zm6.541 0v4.797h-5.164v-4.8c0-1.494 1.125-2.745 2.555-2.745h.016c1.438.014 2.596 1.232 2.6 2.729l.684.003-.691.016zm-26.856 4.786c3.244 0 5.872-2.746 5.872-6.128 0-3.388-2.628-6.13-5.872-6.13-3.242 0-5.871 2.745-5.871 6.13.006 3.382 2.631 6.125 5.871 6.128zm0-10.822c2.484 0 4.496 2.102 4.496 4.692 0 2.593-2.011 4.694-4.494 4.694-2.482 0-4.494-2.102-4.494-4.692.001-2.59 2.012-4.692 4.492-4.694zm-2.518 7.53c-.044.268.062.541.274.701s.494.183.726.056l1.521-.834 1.521.834c.23.127.514.107.725-.056a.733.733 0 0 0 .274-.701l-.29-1.768 1.229-1.251a.74.74 0 0 0 .174-.737.695.695 0 0 0-.556-.489l-1.699-.26-.762-1.607c-.114-.246-.354-.403-.616-.403s-.501.157-.616.403l-.762 1.607-1.699.26a.696.696 0 0 0-.557.489.742.742 0 0 0 .174.737l1.229 1.251-.29 1.768zm1.698-3.137a.692.692 0 0 0 .518-.392l.303-.644.305.644a.694.694 0 0 0 .519.392l.68.102-.493.5a.741.741 0 0 0-.195.638l.114.704-.607-.334a.673.673 0 0 0-.64 0l-.607.334.115-.704a.735.735 0 0 0-.199-.638l-.49-.5.677-.102zm10.718 10.201a.905.905 0 0 1-.261-.641c0-.281.087-.488.258-.621.172-.133.475-.304.908-.514.646-.314 1.164-.646 1.553-.994s.732-.737 1.031-1.168c.301-.432.496-.695.588-.795s.262-.149.514-.149a.81.81 0 0 1 .682.339c.172.227.26.539.26.937v9.486c0 1.11-.369 1.665-1.104 1.665-.324 0-.588-.113-.785-.34s-.297-.558-.297-1.002v-7.539c-1.359 1.076-2.273 1.618-2.748 1.618a.822.822 0 0 1-.599-.282z"/></svg>