<?xml version="1.0" encoding="utf-8"?>
<!-- Generator: Adobe Illustrator 14.0.0, SVG Export Plug-In . SVG Version: 6.00 Build 43363)  -->
<!DOCTYPE svg PUBLIC "-//W3C//DTD SVG 1.1//EN" "http://www.w3.org/Graphics/SVG/1.1/DTD/svg11.dtd">
<svg version="1.1" id="Layer_1" xmlns="http://www.w3.org/2000/svg" xmlns:xlink="http://www.w3.org/1999/xlink" x="0px" y="0px"
	 width="37.001px" height="41px" viewBox="-69.64 607.945 37.001 41" enable-background="new -69.64 607.945 37.001 41"
	 xml:space="preserve">
<linearGradient id="SVGID_1_" gradientUnits="userSpaceOnUse" x1="-51.1401" y1="606.0618" x2="-51.1401" y2="650.331">
	<stop  offset="0" style="stop-color:#00EFD1"/>
	<stop  offset="1" style="stop-color:#00ACEA"/>
</linearGradient>
<path fill="url(#SVGID_1_)" d="M-33.803,615.486c-0.741-0.782-1.748-1.224-2.801-1.226h-16.66l0.072-1.354
	c0.016-0.282-0.133-0.547-0.376-0.673l-1.759-0.923l-0.887-1.832c-0.123-0.255-0.381-0.409-0.653-0.393l-1.976,0.114l-1.648-1.134
	c-0.23-0.159-0.528-0.159-0.758,0l-1.648,1.135l-1.977-0.114c-0.272-0.015-0.527,0.139-0.65,0.394l-0.89,1.835l-1.757,0.926
	c-0.245,0.129-0.394,0.396-0.377,0.682l0.107,2.062l-1.087,1.721c-0.15,0.24-0.15,0.551,0,0.792l1.087,1.721l-0.107,2.062
	c-0.017,0.285,0.13,0.552,0.375,0.681l1.121,0.592v11.552c0.001,0.258,0.134,0.497,0.351,0.624c0.215,0.128,0.479,0.125,0.691-0.006
	l3.594-2.199l-0.125,7.421h-4.534c-0.176-0.007-0.348,0.063-0.474,0.19c-0.127,0.13-0.194,0.307-0.191,0.492v2.995
	c0,2.859,2.151,5.198,4.818,5.324v-0.021h18.238v0.018c0.171,0.007,0.241-0.018,0.343-0.018h0.014c2.817,0,5.149-2.361,5.149-5.304
	v-18.943h5.858c0.381,0,0.68-0.354,0.68-0.75v-5.494C-32.634,617.327-33.055,616.266-33.803,615.486z M-67.164,618.624l-0.964-1.524
	l0.964-1.523c0.08-0.129,0.121-0.282,0.112-0.436l-0.097-1.83l1.558-0.822c0.131-0.069,0.238-0.18,0.305-0.317l0.786-1.626
	l1.753,0.1c0.147,0.008,0.293-0.032,0.416-0.118l1.461-1.004l1.46,1.004c0.123,0.086,0.27,0.126,0.417,0.118l1.753-0.1l0.787,1.626
	c0.066,0.137,0.172,0.248,0.304,0.317l1.558,0.821l-0.096,1.83c-0.009,0.154,0.031,0.307,0.112,0.436l0.962,1.523l-0.962,1.524
	c-0.081,0.129-0.121,0.282-0.112,0.435l0.096,1.83l-1.558,0.822c-0.132,0.069-0.237,0.181-0.304,0.318l-0.787,1.626l-1.753-0.101
	c-0.147-0.009-0.294,0.033-0.417,0.117l-1.46,1.005l-1.461-1.005c-0.111-0.077-0.242-0.118-0.377-0.118
	c-0.013,0-0.025,0-0.039,0.001l-1.752,0.101l-0.787-1.626c-0.066-0.137-0.174-0.249-0.305-0.317l-1.558-0.822l0.097-1.83
	C-67.042,618.906-67.083,618.753-67.164,618.624z M-65.674,624.422l0.147,0.3c0.124,0.255,0.379,0.409,0.653,0.394l1.977-0.113
	l1.648,1.134c0.229,0.159,0.527,0.159,0.758,0l1.648-1.134l1.976,0.113c0.278,0.016,0.537-0.138,0.668-0.394l0.159-0.3v8.422
	l-4.465-2.747c-0.219-0.133-0.489-0.133-0.711,0l-4.459,2.747V624.422z M-62.647,647.487h-0.004
	c-0.985,0.004-1.931-0.401-2.625-1.128c-0.698-0.725-1.089-1.711-1.087-2.739v-2.241h16.947v2.231
	c-0.012,1.469,0.569,2.873,1.595,3.877H-62.647z M-40.553,643.62c0,2.148-1.716,3.867-3.774,3.867h-0.013
	c-0.982,0.004-1.928-0.404-2.623-1.132s-1.081-1.717-1.076-2.743v-2.986c0-0.396-0.339-0.683-0.719-0.683h-12.404l0.138-8.279
	l0.155-0.105l5.138,3.167c0.107,0.065,0.228,0.099,0.351,0.099c0.124,0,0.247-0.033,0.356-0.096
	c0.219-0.127,0.355-0.364,0.361-0.625v-11.552l1.109-0.592c0.242-0.13,0.389-0.397,0.369-0.681l-0.111-2.062l1.085-1.721
	c0.151-0.246,0.151-0.562-0.001-0.807l-0.618-0.993h13.21c-0.605,0.719-0.933,1.71-0.933,2.748V643.62z M-34.014,618.444v4.796
	h-5.163v-4.796c0-1.496,1.124-2.747,2.556-2.747h0.017c1.436,0.015,2.593,1.231,2.598,2.73l0.684,0.002L-34.014,618.444z
	 M-60.87,623.23c3.242,0,5.872-2.744,5.872-6.13c0.001-3.385-2.629-6.129-5.871-6.129c-3.243,0-5.872,2.744-5.872,6.129
	C-66.738,620.483-64.111,623.226-60.87,623.23z M-60.87,612.407c2.482,0,4.495,2.102,4.495,4.692
	c0.002,2.592-2.012,4.693-4.494,4.693c-2.484,0-4.497-2.101-4.497-4.693C-65.363,614.51-63.351,612.41-60.87,612.407z
	 M-63.39,619.936c-0.044,0.27,0.062,0.542,0.274,0.703c0.214,0.161,0.493,0.182,0.725,0.054l1.521-0.834l1.521,0.834
	c0.233,0.128,0.514,0.107,0.727-0.054c0.211-0.161,0.316-0.433,0.273-0.703l-0.292-1.768l1.23-1.252
	c0.188-0.191,0.254-0.476,0.175-0.736c-0.081-0.26-0.297-0.45-0.556-0.49l-1.701-0.257l-0.76-1.608
	c-0.115-0.246-0.355-0.401-0.617-0.401c-0.261,0-0.502,0.155-0.616,0.401l-0.762,1.608l-1.7,0.257
	c-0.26,0.04-0.475,0.229-0.556,0.49c-0.082,0.26-0.014,0.545,0.174,0.736l1.23,1.252L-63.39,619.936z M-61.692,616.801
	c0.224-0.034,0.42-0.181,0.518-0.393l0.305-0.642l0.304,0.642c0.101,0.212,0.294,0.359,0.518,0.393l0.679,0.103l-0.491,0.5
	c-0.162,0.165-0.235,0.403-0.196,0.636l0.115,0.706l-0.608-0.334c-0.2-0.109-0.438-0.109-0.639,0l-0.607,0.334l0.115-0.706
	c0.04-0.233-0.036-0.471-0.198-0.636l-0.491-0.5L-61.692,616.801z M-47.709,626.887c0.493,0,0.917-0.149,1.272-0.447
	c0.356-0.298,0.534-0.727,0.534-1.284c0-0.425-0.141-0.791-0.425-1.098s-0.666-0.459-1.149-0.459c-0.325,0-0.595,0.047-0.807,0.141
	s-0.378,0.218-0.501,0.373c-0.123,0.155-0.24,0.354-0.35,0.597s-0.21,0.472-0.302,0.688c-0.054,0.116-0.149,0.207-0.288,0.273
	c-0.14,0.066-0.301,0.1-0.482,0.1c-0.214,0-0.411-0.09-0.59-0.27c-0.179-0.179-0.27-0.418-0.27-0.716
	c0-0.287,0.085-0.59,0.253-0.907c0.169-0.317,0.415-0.62,0.738-0.907c0.324-0.287,0.728-0.518,1.209-0.691
	c0.482-0.174,1.02-0.261,1.614-0.261c0.519,0,0.993,0.073,1.422,0.22c0.428,0.146,0.8,0.357,1.115,0.634
	c0.315,0.276,0.555,0.596,0.715,0.961c0.16,0.364,0.241,0.756,0.241,1.176c0,0.552-0.117,1.026-0.35,1.42
	c-0.233,0.395-0.566,0.78-1,1.156c0.418,0.232,0.77,0.497,1.056,0.795c0.287,0.298,0.502,0.628,0.647,0.989
	c0.144,0.362,0.216,0.754,0.216,1.174c0,0.503-0.098,0.988-0.293,1.458s-0.483,0.887-0.862,1.254
	c-0.38,0.367-0.831,0.654-1.354,0.861s-1.1,0.313-1.729,0.313c-0.644,0-1.219-0.119-1.727-0.356
	c-0.51-0.237-0.928-0.536-1.258-0.893c-0.329-0.355-0.577-0.723-0.746-1.104c-0.169-0.381-0.253-0.695-0.253-0.944
	c0-0.32,0.101-0.579,0.301-0.775c0.201-0.196,0.45-0.293,0.751-0.293c0.15,0,0.294,0.044,0.435,0.136
	c0.138,0.091,0.229,0.201,0.272,0.328c0.278,0.768,0.576,1.337,0.896,1.709c0.317,0.373,0.767,0.561,1.344,0.561
	c0.332,0,0.652-0.085,0.96-0.254c0.309-0.168,0.563-0.417,0.763-0.748c0.201-0.331,0.301-0.715,0.301-1.151
	c0-0.646-0.171-1.154-0.514-1.521c-0.343-0.368-0.818-0.551-1.429-0.551c-0.107,0-0.273,0.011-0.497,0.033
	c-0.226,0.022-0.37,0.033-0.435,0.033c-0.295,0-0.521-0.076-0.683-0.228s-0.24-0.363-0.24-0.634c0-0.265,0.097-0.479,0.288-0.642
	c0.192-0.163,0.479-0.244,0.858-0.244H-47.709z"/>
</svg>
