<svg xmlns="http://www.w3.org/2000/svg" width="23" height="17" viewBox="183 223 23 17"><linearGradient id="a" gradientUnits="userSpaceOnUse" x1="472.08" y1="229.259" x2="472.08" y2="209.766" gradientTransform="matrix(.9998 0 0 -.9998 -277.48 450.918)"><stop offset="0" stop-color="#00efd1"/><stop offset="1" stop-color="#00acea"/></linearGradient><path fill="url(#a)" d="M203.847 223h-18.694a2.138 2.138 0 0 0-1.519.614c-.404.398-.632.94-.634 1.507v12.754c.001.567.229 1.11.633 1.509.404.399.951.621 1.52.617h18.694a2.143 2.143 0 0 0 1.52-.617c.404-.399.632-.942.633-1.509v-12.754a2.128 2.128 0 0 0-2.153-2.121zm-18.694.903h18.694c.377-.005.737.163.975.456l-9.75 6.338c-.42.274-.965.269-1.38-.014l-9.485-6.355c.237-.273.583-.429.946-.425zm19.941 13.972a1.224 1.224 0 0 1-.368.87 1.237 1.237 0 0 1-.879.352h-18.694a1.232 1.232 0 0 1-1.247-1.222v-12.672l9.278 6.227a2.154 2.154 0 0 0 2.383.018l9.526-6.199v12.626z"/></svg>