<?xml version="1.0" encoding="utf-8"?>
<!-- Generator: Adobe Illustrator 14.0.0, SVG Export Plug-In . SVG Version: 6.00 Build 43363)  -->
<!DOCTYPE svg PUBLIC "-//W3C//DTD SVG 1.1//EN" "http://www.w3.org/Graphics/SVG/1.1/DTD/svg11.dtd">
<svg version="1.1" id="Layer_1" xmlns="http://www.w3.org/2000/svg" xmlns:xlink="http://www.w3.org/1999/xlink" x="0px" y="0px"
	 width="23px" height="17px" viewBox="183 223 23 17" enable-background="new 183 223 23 17" xml:space="preserve">
<g>
	
		<linearGradient id="SVGID_1_" gradientUnits="userSpaceOnUse" x1="472.0803" y1="229.2588" x2="472.0803" y2="209.7663" gradientTransform="matrix(0.9998 0 0 -0.9998 -277.4796 450.9185)">
		<stop  offset="0" style="stop-color:#00EFD1"/>
		<stop  offset="1" style="stop-color:#00ACEA"/>
	</linearGradient>
	<path fill="url(#SVGID_1_)" d="M203.847,223h-18.694c-0.568-0.005-1.115,0.216-1.519,0.614c-0.404,0.398-0.632,0.94-0.634,1.507
		v12.754c0.001,0.567,0.229,1.11,0.633,1.509c0.404,0.399,0.951,0.621,1.52,0.617h18.694c0.569,0.004,1.115-0.218,1.52-0.617
		c0.404-0.399,0.632-0.942,0.633-1.509v-12.754c-0.002-0.566-0.23-1.108-0.634-1.507C204.962,223.216,204.416,222.995,203.847,223z
		 M185.153,223.903h18.694c0.377-0.005,0.737,0.163,0.975,0.456l-9.75,6.338c-0.42,0.274-0.965,0.269-1.38-0.014l-9.485-6.355
		C184.444,224.055,184.79,223.899,185.153,223.903z M205.094,237.875c-0.001,0.327-0.134,0.641-0.368,0.87
		c-0.234,0.229-0.551,0.356-0.879,0.352h-18.694c-0.328,0.004-0.645-0.122-0.879-0.352c-0.234-0.229-0.366-0.543-0.368-0.87v-12.672
		l9.278,6.227c0.718,0.485,1.658,0.492,2.383,0.018l9.526-6.199V237.875z"/>
</g>
</svg>
