<?xml version="1.0" encoding="utf-8"?>
<!-- Generator: Adobe Illustrator 14.0.0, SVG Export Plug-In . SVG Version: 6.00 Build 43363)  -->
<!DOCTYPE svg PUBLIC "-//W3C//DTD SVG 1.1//EN" "http://www.w3.org/Graphics/SVG/1.1/DTD/svg11.dtd">
<svg version="1.1" id="Layer_1" xmlns="http://www.w3.org/2000/svg" xmlns:xlink="http://www.w3.org/1999/xlink" x="0px" y="0px"
	 width="40px" height="40px" viewBox="224 224.001 40 40" enable-background="new 224 224.001 40 40" xml:space="preserve">
<g>
	
		<linearGradient id="SVGID_1_" gradientUnits="userSpaceOnUse" x1="235.6812" y1="263.7273" x2="235.6812" y2="224.8639" gradientTransform="matrix(1 0 0 -1 0.04 487.9546)">
		<stop  offset="0" style="stop-color:#00EFD1"/>
		<stop  offset="1" style="stop-color:#00ACEA"/>
	</linearGradient>
	<path fill="url(#SVGID_1_)" d="M244.542,229.41h-17.624c-0.771-0.005-1.512,0.297-2.06,0.84c-0.548,0.543-0.856,1.282-0.858,2.053
		v25.82c-0.006,1.531,1.178,2.804,2.705,2.908v2.313c-0.007,0.171,0.055,0.337,0.173,0.46c0.117,0.124,0.28,0.194,0.451,0.196
		h16.804c0.368,0.002,0.672-0.288,0.687-0.656v-2.313c1.476-0.126,2.623-1.381,2.623-2.908v-25.82
		c0.002-0.769-0.303-1.508-0.847-2.051C246.051,229.709,245.312,229.406,244.542,229.41z M228.016,262.689v-1.64h15.492v1.64
		H228.016z M246.131,258.131c0,0.888-0.72,1.607-1.607,1.607h-17.605c-0.887,0-1.607-0.72-1.607-1.607v-25.802
		c0-0.888,0.72-1.607,1.607-1.607h17.605c0.888,0,1.607,0.72,1.607,1.607V258.131z"/>
	<g>
		
			<linearGradient id="SVGID_2_" gradientUnits="userSpaceOnUse" x1="235.6904" y1="263.7263" x2="235.6904" y2="224.865" gradientTransform="matrix(1 0 0 -1 0.04 487.9546)">
			<stop  offset="0" style="stop-color:#00EFD1"/>
			<stop  offset="1" style="stop-color:#00ACEA"/>
		</linearGradient>
		<path fill="url(#SVGID_2_)" d="M235.73,243.077c-4.212,0-7.627,3.415-7.627,7.627c0,4.213,3.415,7.627,7.627,7.627
			s7.627-3.414,7.627-7.627C243.353,246.494,239.941,243.082,235.73,243.077z M235.73,257.019c-3.488,0-6.315-2.827-6.315-6.315
			s2.828-6.316,6.315-6.316c3.488,0,6.315,2.828,6.315,6.316C242.042,254.19,239.217,257.015,235.73,257.019z"/>
		
			<linearGradient id="SVGID_3_" gradientUnits="userSpaceOnUse" x1="235.6904" y1="263.7263" x2="235.6904" y2="224.8659" gradientTransform="matrix(1 0 0 -1 0.04 487.9546)">
			<stop  offset="0" style="stop-color:#00EFD1"/>
			<stop  offset="1" style="stop-color:#00ACEA"/>
		</linearGradient>
		<path fill="url(#SVGID_3_)" d="M235.73,246.038c-2.577,0-4.667,2.089-4.667,4.666s2.089,4.666,4.667,4.666
			s4.667-2.089,4.667-4.666C240.394,248.128,238.306,246.041,235.73,246.038z M235.73,254.059c-1.853,0-3.355-1.503-3.355-3.355
			s1.502-3.354,3.355-3.354s3.355,1.502,3.355,3.354C239.083,252.556,237.583,254.056,235.73,254.059z"/>
		
			<linearGradient id="SVGID_4_" gradientUnits="userSpaceOnUse" x1="235.6904" y1="263.7273" x2="235.6904" y2="224.8657" gradientTransform="matrix(1 0 0 -1 0.04 487.9546)">
			<stop  offset="0" style="stop-color:#00EFD1"/>
			<stop  offset="1" style="stop-color:#00ACEA"/>
		</linearGradient>
		<path fill="url(#SVGID_4_)" d="M235.73,241.004c2.351,0,4.256-1.905,4.256-4.256s-1.906-4.256-4.256-4.256
			s-4.256,1.905-4.256,4.256C231.477,239.097,233.381,241.002,235.73,241.004z M235.73,233.803c1.626,0,2.945,1.318,2.945,2.945
			s-1.318,2.944-2.945,2.944c-1.626,0-2.945-1.318-2.945-2.944C232.788,235.123,234.105,233.805,235.73,233.803z"/>
	</g>
	
		<linearGradient id="SVGID_5_" gradientUnits="userSpaceOnUse" x1="256.209" y1="263.7273" x2="256.209" y2="224.866" gradientTransform="matrix(1 0 0 -1 0.04 487.9546)">
		<stop  offset="0" style="stop-color:#00EFD1"/>
		<stop  offset="1" style="stop-color:#00ACEA"/>
	</linearGradient>
	<path fill="url(#SVGID_5_)" d="M254.427,224.001c-0.365-0.001-0.665,0.291-0.673,0.655v10.798c-0.492-0.414-1.215-0.66-1.954-0.66
		c-1.33-0.007-2.532,0.789-3.046,2.015c-0.514,1.227-0.237,2.641,0.7,3.584c0.938,0.942,2.352,1.227,3.581,0.719
		c1.229-0.507,2.03-1.705,2.03-3.035v-6.836c0.655-0.862,1.481-1.464,2.504-1.703c1.237-0.29,2.538,0.001,3.534,0.789
		s1.578,1.988,1.581,3.258c0.002,0.364,0.296,0.658,0.659,0.66h0.001c0.364-0.005,0.656-0.302,0.655-0.667v-0.001
		C264,228.297,259.695,224.001,254.427,224.001z M251.816,240.049c-1.089,0-1.972-0.883-1.972-1.972
		c0-1.089,0.883-1.972,1.972-1.972s1.972,0.882,1.972,1.972C253.787,239.166,252.905,240.048,251.816,240.049z M255.065,229.329
		v-3.992c2.437,0.187,4.661,1.455,6.063,3.456C259.15,227.706,256.787,227.972,255.065,229.329z"/>
	
		<linearGradient id="SVGID_6_" gradientUnits="userSpaceOnUse" x1="252.8447" y1="263.7263" x2="252.8447" y2="224.8654" gradientTransform="matrix(1 0 0 -1 0.04 487.9546)">
		<stop  offset="0" style="stop-color:#00EFD1"/>
		<stop  offset="1" style="stop-color:#00ACEA"/>
	</linearGradient>
	<path fill="url(#SVGID_6_)" d="M253.7,250.12c0.256,0.256,0.671,0.256,0.927,0c0.257-0.257,0.257-0.671,0-0.928l-0.815-0.815
		l0.815-0.816c0.254-0.256,0.253-0.669-0.002-0.924s-0.668-0.256-0.925-0.003l-0.815,0.815l-0.816-0.815
		c-0.256-0.253-0.669-0.252-0.924,0.003s-0.257,0.668-0.003,0.924l0.815,0.816l-0.815,0.815c-0.256,0.257-0.256,0.671,0,0.928
		c0.256,0.256,0.671,0.256,0.927,0l0.816-0.815L253.7,250.12z"/>
	
		<linearGradient id="SVGID_7_" gradientUnits="userSpaceOnUse" x1="246.7461" y1="263.7273" x2="246.7461" y2="224.8644" gradientTransform="matrix(1 0 0 -1 0.04 487.9546)">
		<stop  offset="0" style="stop-color:#00EFD1"/>
		<stop  offset="1" style="stop-color:#00ACEA"/>
	</linearGradient>
	<path fill="url(#SVGID_7_)" d="M244.983,227.607h1.147v1.148c0,0.362,0.294,0.655,0.656,0.655c0.361,0,0.655-0.293,0.655-0.655
		v-1.148h1.147c0.362,0,0.656-0.293,0.656-0.656c0-0.361-0.294-0.655-0.656-0.655h-1.147v-1.147c0-0.362-0.294-0.656-0.655-0.656
		c-0.362,0-0.656,0.293-0.656,0.656v1.147h-1.147c-0.362,0-0.656,0.294-0.656,0.655
		C244.328,227.313,244.621,227.607,244.983,227.607z"/>
	
		<linearGradient id="SVGID_8_" gradientUnits="userSpaceOnUse" x1="257.5371" y1="263.7273" x2="257.5371" y2="224.865" gradientTransform="matrix(1 0 0 -1 0.04 487.9546)">
		<stop  offset="0" style="stop-color:#00EFD1"/>
		<stop  offset="1" style="stop-color:#00ACEA"/>
	</linearGradient>
	<path fill="url(#SVGID_8_)" d="M260.928,255.414l-1.908-0.278l-0.854-1.735c-0.11-0.225-0.339-0.366-0.589-0.366
		s-0.478,0.142-0.588,0.366l-0.854,1.735l-1.908,0.278c-0.246,0.036-0.451,0.209-0.528,0.446s-0.014,0.498,0.165,0.672l1.382,1.353
		l-0.326,1.909c-0.042,0.246,0.06,0.495,0.261,0.642c0.203,0.146,0.471,0.166,0.691,0.049l1.706-0.899l1.707,0.899
		c0.221,0.116,0.488,0.098,0.69-0.05c0.202-0.146,0.304-0.395,0.262-0.641l-0.326-1.91l1.382-1.352
		c0.179-0.175,0.242-0.436,0.165-0.672C261.38,255.623,261.175,255.45,260.928,255.414L260.928,255.414z M258.747,257.186
		c-0.154,0.151-0.225,0.367-0.188,0.58l0.16,0.938l-0.836-0.441c-0.192-0.101-0.421-0.101-0.612,0l-0.836,0.441l0.16-0.938
		c0.036-0.213-0.034-0.429-0.188-0.58l-0.682-0.665l0.939-0.137c0.214-0.031,0.398-0.166,0.493-0.36l0.418-0.85l0.419,0.85
		c0.095,0.194,0.279,0.329,0.493,0.36l0.939,0.137L258.747,257.186z"/>
</g>
</svg>
