<svg xmlns="http://www.w3.org/2000/svg" width="40" height="40" viewBox="224 224.001 40 40"><linearGradient id="a" gradientUnits="userSpaceOnUse" x1="235.681" y1="263.727" x2="235.681" y2="224.864" gradientTransform="matrix(1 0 0 -1 .04 487.955)"><stop offset="0" stop-color="#00efd1"/><stop offset="1" stop-color="#00acea"/></linearGradient><path fill="url(#a)" d="M244.542 229.41h-17.624a2.9 2.9 0 0 0-2.918 2.893v25.82a2.903 2.903 0 0 0 2.705 2.908v2.313a.626.626 0 0 0 .624.656h16.804a.684.684 0 0 0 .687-.656v-2.313c1.476-.126 2.623-1.381 2.623-2.908v-25.82a2.888 2.888 0 0 0-.847-2.051 2.888 2.888 0 0 0-2.054-.842zm-16.526 33.279v-1.64h15.492v1.64h-15.492zm18.115-4.558c0 .888-.72 1.607-1.607 1.607h-17.605c-.887 0-1.607-.72-1.607-1.607v-25.802c0-.888.72-1.607 1.607-1.607h17.605c.888 0 1.607.72 1.607 1.607v25.802z"/><linearGradient id="b" gradientUnits="userSpaceOnUse" x1="235.69" y1="263.726" x2="235.69" y2="224.865" gradientTransform="matrix(1 0 0 -1 .04 487.955)"><stop offset="0" stop-color="#00efd1"/><stop offset="1" stop-color="#00acea"/></linearGradient><path fill="url(#b)" d="M235.73 243.077a7.627 7.627 0 1 0 7.627 7.627 7.635 7.635 0 0 0-7.627-7.627zm0 13.942a6.316 6.316 0 1 1 6.315-6.315 6.321 6.321 0 0 1-6.315 6.315z"/><linearGradient id="c" gradientUnits="userSpaceOnUse" x1="235.69" y1="263.726" x2="235.69" y2="224.866" gradientTransform="matrix(1 0 0 -1 .04 487.955)"><stop offset="0" stop-color="#00efd1"/><stop offset="1" stop-color="#00acea"/></linearGradient><path fill="url(#c)" d="M235.73 246.038a4.667 4.667 0 1 0 0 9.334 4.667 4.667 0 0 0 0-9.334zm0 8.021a3.356 3.356 0 1 1 .001-6.711 3.356 3.356 0 0 1-.001 6.711z"/><linearGradient id="d" gradientUnits="userSpaceOnUse" x1="235.69" y1="263.727" x2="235.69" y2="224.866" gradientTransform="matrix(1 0 0 -1 .04 487.955)"><stop offset="0" stop-color="#00efd1"/><stop offset="1" stop-color="#00acea"/></linearGradient><path fill="url(#d)" d="M235.73 241.004a4.255 4.255 0 1 0 0-8.512 4.256 4.256 0 0 0 0 8.512zm0-7.201a2.945 2.945 0 1 1 0 5.89 2.945 2.945 0 0 1 0-5.89z"/><linearGradient id="e" gradientUnits="userSpaceOnUse" x1="256.209" y1="263.727" x2="256.209" y2="224.866" gradientTransform="matrix(1 0 0 -1 .04 487.955)"><stop offset="0" stop-color="#00efd1"/><stop offset="1" stop-color="#00acea"/></linearGradient><path fill="url(#e)" d="M254.427 224.001a.672.672 0 0 0-.673.655v10.798c-.492-.414-1.215-.66-1.954-.66a3.284 3.284 0 1 0 3.265 3.283v-6.836c.655-.862 1.481-1.464 2.504-1.703a4.164 4.164 0 0 1 5.115 4.047.663.663 0 0 0 .659.66h.001a.664.664 0 0 0 .655-.667v-.001c.001-5.28-4.304-9.576-9.572-9.576zm-2.611 16.048a1.972 1.972 0 1 1 0-3.944 1.972 1.972 0 0 1 0 3.944zm3.249-10.72v-3.992a8.165 8.165 0 0 1 6.063 3.456c-1.978-1.087-4.341-.821-6.063.536z"/><linearGradient id="f" gradientUnits="userSpaceOnUse" x1="252.845" y1="263.726" x2="252.845" y2="224.865" gradientTransform="matrix(1 0 0 -1 .04 487.955)"><stop offset="0" stop-color="#00efd1"/><stop offset="1" stop-color="#00acea"/></linearGradient><path fill="url(#f)" d="M253.7 250.12a.655.655 0 1 0 .927-.928l-.815-.815.815-.816a.655.655 0 0 0-.927-.927l-.815.815-.816-.815a.655.655 0 0 0-.927.927l.815.816-.815.815a.657.657 0 0 0 .927.928l.816-.815.815.815z"/><linearGradient id="g" gradientUnits="userSpaceOnUse" x1="246.746" y1="263.727" x2="246.746" y2="224.864" gradientTransform="matrix(1 0 0 -1 .04 487.955)"><stop offset="0" stop-color="#00efd1"/><stop offset="1" stop-color="#00acea"/></linearGradient><path fill="url(#g)" d="M244.983 227.607h1.147v1.148a.656.656 0 0 0 1.311 0v-1.148h1.147a.656.656 0 1 0 0-1.311h-1.147v-1.147a.656.656 0 0 0-1.311 0v1.147h-1.147a.656.656 0 0 0 0 1.311z"/><linearGradient id="h" gradientUnits="userSpaceOnUse" x1="257.537" y1="263.727" x2="257.537" y2="224.865" gradientTransform="matrix(1 0 0 -1 .04 487.955)"><stop offset="0" stop-color="#00efd1"/><stop offset="1" stop-color="#00acea"/></linearGradient><path fill="url(#h)" d="M260.928 255.414l-1.908-.278-.854-1.735a.655.655 0 0 0-1.177 0l-.854 1.735-1.908.278a.656.656 0 0 0-.363 1.118l1.382 1.353-.326 1.909a.656.656 0 0 0 .952.691l1.706-.899 1.707.899a.656.656 0 1 0 .952-.691l-.326-1.91 1.382-1.352a.656.656 0 0 0-.365-1.118zm-2.181 1.772a.655.655 0 0 0-.188.58l.16.938-.836-.441a.656.656 0 0 0-.612 0l-.836.441.16-.938a.657.657 0 0 0-.188-.58l-.682-.665.939-.137a.653.653 0 0 0 .493-.36l.418-.85.419.85a.653.653 0 0 0 .493.36l.939.137-.679.665z"/></svg>