<?xml version="1.0" encoding="utf-8"?>
<!-- Generator: Adobe Illustrator 14.0.0, SVG Export Plug-In . SVG Version: 6.00 Build 43363)  -->
<!DOCTYPE svg PUBLIC "-//W3C//DTD SVG 1.1//EN" "http://www.w3.org/Graphics/SVG/1.1/DTD/svg11.dtd">
<svg version="1.1" id="Layer_1" xmlns="http://www.w3.org/2000/svg" xmlns:xlink="http://www.w3.org/1999/xlink" x="0px" y="0px"
	 width="15px" height="8px" viewBox="-265.64 444.945 15 8" enable-background="new -265.64 444.945 15 8" xml:space="preserve">
<g>
	<path fill="#D7D7D7" d="M-258.14,444.945c-4.873,0-7.5,4-7.5,4s2.627,4,7.5,4c4.873,0,7.5-4,7.5-4S-253.267,444.945-258.14,444.945
		z M-258.14,452.316c-1.868,0-3.388-1.513-3.388-3.371s1.519-3.371,3.388-3.371c1.868,0,3.388,1.513,3.388,3.371
		S-256.273,452.316-258.14,452.316z"/>
	<path fill="#D7D7D7" d="M-258.14,446.426c-0.394,0-0.762,0.097-1.093,0.255c0.597,0.098,1.052,0.609,1.052,1.228
		c0,0.689-0.561,1.248-1.254,1.248c-0.529,0-0.981-0.327-1.164-0.793c-0.045,0.189-0.075,0.382-0.075,0.582
		c0,1.394,1.134,2.52,2.533,2.52c1.396,0,2.532-1.126,2.532-2.52C-255.608,447.557-256.744,446.426-258.14,446.426z"/>
</g>
</svg>
