<svg xmlns="http://www.w3.org/2000/svg" width="15" height="8" viewBox="-265.64 444.945 15 8"><g fill="#D7D7D7"><path d="M-258.14 444.945c-4.873 0-7.5 4-7.5 4s2.627 4 7.5 4 7.5-4 7.5-4-2.627-4-7.5-4zm0 7.371c-1.868 0-3.388-1.513-3.388-3.371s1.519-3.371 3.388-3.371c1.868 0 3.388 1.513 3.388 3.371s-1.521 3.371-3.388 3.371z"/><path d="M-258.14 446.426c-.394 0-.762.097-1.093.255a1.249 1.249 0 0 1 1.052 1.228 1.25 1.25 0 0 1-1.254 1.248c-.529 0-.981-.327-1.164-.793a2.502 2.502 0 0 0-.075.582 2.525 2.525 0 0 0 2.533 2.52 2.526 2.526 0 0 0 2.532-2.52 2.528 2.528 0 0 0-2.531-2.52z"/></g></svg>