<?xml version="1.0" encoding="utf-8"?>
<!-- Generator: Adobe Illustrator 14.0.0, SVG Export Plug-In . SVG Version: 6.00 Build 43363)  -->
<!DOCTYPE svg PUBLIC "-//W3C//DTD SVG 1.1//EN" "http://www.w3.org/Graphics/SVG/1.1/DTD/svg11.dtd">
<svg version="1.1" id="Layer_1" xmlns="http://www.w3.org/2000/svg" xmlns:xlink="http://www.w3.org/1999/xlink" x="0px" y="0px"
	 width="44px" height="41px" viewBox="-71.64 605.946 44 41" enable-background="new -71.64 605.946 44 41" xml:space="preserve">
<linearGradient id="SVGID_1_" gradientUnits="userSpaceOnUse" x1="-49.6401" y1="604.74" x2="-49.6401" y2="648.2184">
	<stop  offset="0" style="stop-color:#00EFD1"/>
	<stop  offset="1" style="stop-color:#00ACEA"/>
</linearGradient>
<path fill="url(#SVGID_1_)" d="M-28.465,611.673h-8.813v-4.938c0.003-0.21-0.076-0.413-0.222-0.561
	c-0.144-0.148-0.341-0.231-0.544-0.228h-23.193c-0.204-0.003-0.399,0.079-0.544,0.228s-0.225,0.351-0.223,0.561v4.938h-8.813
	c-0.447,0.02-0.806,0.39-0.823,0.853v3.135c0,2.875,1.119,6.506,2.886,9.479c2.082,3.501,4.698,5.428,7.331,5.428h3.076
	c1.754,4.42,3.492,7.034,5.063,8.44h-3.47c-1.607-0.003-2.912,1.341-2.914,3.001v4.148c0,0.211,0.084,0.414,0.229,0.563
	c0.146,0.148,0.344,0.23,0.549,0.227h18.5c0.204,0.004,0.401-0.078,0.548-0.227c0.147-0.148,0.229-0.352,0.229-0.563v-4.148
	c-0.002-1.66-1.305-3.004-2.913-3.001h-3.466c1.569-1.406,3.309-4.021,5.061-8.44h3.076c2.628,0,5.244-1.925,7.325-5.424
	c1.769-2.972,2.891-6.602,2.891-9.482v-3.135C-27.658,612.062-28.015,611.692-28.465,611.673z M-61.427,628.957
	c-2.037,0-4.237-1.696-6-4.66c-1.6-2.691-2.655-6.08-2.655-8.637v-2.38h8.079v1.362c0,2.979,1.039,8.688,3.05,14.314H-61.427z
	 M-42.527,640.615c0.358-0.002,0.703,0.143,0.959,0.404c0.254,0.263,0.396,0.617,0.397,0.988v3.33h-16.938v-3.33
	c0-0.371,0.143-0.726,0.398-0.988c0.254-0.262,0.598-0.406,0.957-0.404H-42.527z M-49.18,639.007h-0.915
	c-2.293-0.402-4.818-3.849-7.014-9.576c-2.17-5.661-3.336-11.847-3.336-14.796v-7.082h21.611v7.083c0,2.941-1.164,9.127-3.334,14.79
	C-44.363,635.156-46.888,638.604-49.18,639.007z M-29.198,615.664c0,2.559-1.057,5.945-2.66,8.637
	c-1.762,2.962-3.963,4.656-5.998,4.656h-2.468c2.011-5.627,3.046-11.342,3.046-14.322v-1.354h8.08V615.664z M-44.366,617.418
	l-3.162-0.475l-1.413-2.957c-0.132-0.274-0.402-0.447-0.699-0.447s-0.567,0.173-0.698,0.447l-1.415,2.957l-3.161,0.475
	c-0.293,0.045-0.537,0.258-0.628,0.548c-0.092,0.291-0.016,0.61,0.197,0.824l2.287,2.302l-0.54,3.252
	c-0.05,0.301,0.07,0.606,0.31,0.785c0.24,0.18,0.559,0.204,0.82,0.062l2.828-1.534l2.828,1.534c0.263,0.143,0.581,0.118,0.819-0.062
	c0.241-0.179,0.361-0.484,0.311-0.785l-0.54-3.252l2.287-2.302c0.213-0.214,0.289-0.533,0.197-0.824
	C-43.83,617.676-44.074,617.463-44.366,617.418L-44.366,617.418z M-47.602,620.236c-0.185,0.185-0.268,0.451-0.224,0.712
	l0.343,2.062l-1.796-0.973c-0.225-0.124-0.496-0.124-0.723,0l-1.795,0.973l0.343-2.062c0.044-0.261-0.04-0.527-0.224-0.712
	l-1.451-1.461l2.006-0.301c0.253-0.037,0.472-0.201,0.586-0.439l0.896-1.876l0.897,1.876c0.113,0.238,0.333,0.402,0.585,0.439
	l2.007,0.301L-47.602,620.236z"/>
</svg>
