<svg xmlns="http://www.w3.org/2000/svg" width="44" height="41" viewBox="-71.64 605.946 44 41"><linearGradient id="a" gradientUnits="userSpaceOnUse" x1="-49.64" y1="604.74" x2="-49.64" y2="648.218"><stop offset="0" stop-color="#00efd1"/><stop offset="1" stop-color="#00acea"/></linearGradient><path fill="url(#a)" d="M-28.465 611.673h-8.813v-4.938a.782.782 0 0 0-.222-.561.746.746 0 0 0-.544-.228h-23.193c-.204-.003-.399.079-.544.228s-.225.351-.223.561v4.938h-8.813a.875.875 0 0 0-.823.853v3.135c0 2.875 1.119 6.506 2.886 9.479 2.082 3.501 4.698 5.428 7.331 5.428h3.076c1.754 4.42 3.492 7.034 5.063 8.44h-3.47c-1.607-.003-2.912 1.341-2.914 3.001v4.148a.81.81 0 0 0 .229.563c.146.148.344.23.549.227h18.5a.75.75 0 0 0 .548-.227.8.8 0 0 0 .229-.563v-4.148c-.002-1.66-1.305-3.004-2.913-3.001h-3.466c1.569-1.406 3.309-4.021 5.061-8.44h3.076c2.628 0 5.244-1.925 7.325-5.424 1.769-2.972 2.891-6.602 2.891-9.482v-3.135a.875.875 0 0 0-.826-.854zm-32.962 17.284c-2.037 0-4.237-1.696-6-4.66-1.6-2.691-2.655-6.08-2.655-8.637v-2.38h8.079v1.362c0 2.979 1.039 8.688 3.05 14.314h-2.474zm18.9 11.658c.358-.002.703.143.959.404.254.263.396.617.397.988v3.33h-16.938v-3.33c0-.371.143-.726.398-.988a1.32 1.32 0 0 1 .957-.404h14.227zm-6.653-1.608h-.915c-2.293-.402-4.818-3.849-7.014-9.576-2.17-5.661-3.336-11.847-3.336-14.796v-7.082h21.611v7.083c0 2.941-1.164 9.127-3.334 14.79-2.195 5.73-4.72 9.178-7.012 9.581zm19.982-23.343c0 2.559-1.057 5.945-2.66 8.637-1.762 2.962-3.963 4.656-5.998 4.656h-2.468c2.011-5.627 3.046-11.342 3.046-14.322v-1.354h8.08v2.383zm-15.168 1.754l-3.162-.475-1.413-2.957c-.132-.274-.402-.447-.699-.447s-.567.173-.698.447l-1.415 2.957-3.161.475a.789.789 0 0 0-.628.548.82.82 0 0 0 .197.824l2.287 2.302-.54 3.252c-.05.301.07.606.31.785a.76.76 0 0 0 .82.062l2.828-1.534 2.828 1.534a.755.755 0 0 0 .819-.062.812.812 0 0 0 .311-.785l-.54-3.252 2.287-2.302a.82.82 0 0 0 .197-.824.792.792 0 0 0-.628-.548zm-3.236 2.818a.815.815 0 0 0-.224.712l.343 2.062-1.796-.973a.75.75 0 0 0-.723 0l-1.795.973.343-2.062a.818.818 0 0 0-.224-.712l-1.451-1.461 2.006-.301a.778.778 0 0 0 .586-.439l.896-1.876.897 1.876a.776.776 0 0 0 .585.439l2.007.301-1.45 1.461z"/></svg>