<?xml version="1.0" encoding="utf-8"?>
<!-- Generator: Adobe Illustrator 14.0.0, SVG Export Plug-In . SVG Version: 6.00 Build 43363)  -->
<!DOCTYPE svg PUBLIC "-//W3C//DTD SVG 1.1//EN" "http://www.w3.org/Graphics/SVG/1.1/DTD/svg11.dtd">
<svg version="1.1" id="Layer_1" xmlns="http://www.w3.org/2000/svg" xmlns:xlink="http://www.w3.org/1999/xlink" x="0px" y="0px"
	 width="36px" height="40px" viewBox="0 0 36 40" enable-background="new 0 0 36 40" xml:space="preserve">
<path fill="#C4C4C4" d="M9.235,8.938c-0.366,0-0.663,0.297-0.663,0.664c-0.003,0.194-0.162,0.35-0.355,0.35
	c-0.194,0-0.352-0.156-0.354-0.35c0-0.367-0.297-0.664-0.664-0.664c-0.366,0-0.664,0.297-0.664,0.664
	c0.006,0.925,0.758,1.671,1.682,1.671c0.925,0,1.676-0.747,1.683-1.671C9.899,9.235,9.601,8.938,9.235,8.938z"/>
<path fill="#C4C4C4" d="M13.309,11.284c0.929-0.001,1.681-0.754,1.682-1.683c0-0.367-0.297-0.664-0.664-0.664
	c-0.366,0-0.663,0.297-0.663,0.664c0,0.196-0.159,0.355-0.355,0.355c-0.196,0-0.354-0.159-0.354-0.355
	c0-0.367-0.298-0.664-0.664-0.664s-0.664,0.297-0.664,0.664C11.628,10.531,12.38,11.283,13.309,11.284z"/>
<path fill="#C4C4C4" d="M35.315,18.589H20.295c-0.884-0.843-2.055-1.317-3.275-1.328h-2.254v-1.113
	c0.253-0.197,0.493-0.411,0.718-0.64c1.242-1.266,1.938-2.969,1.937-4.743V5.394h0.777c0.176,0.001,0.344-0.067,0.468-0.19
	C18.79,5.08,18.86,4.912,18.86,4.736C18.857,2.119,16.736,0,14.12,0H9.923C9.368,0.001,8.829,0.175,8.378,0.497
	c-2.546,1-4.224,3.455-4.23,6.191v4.076c0.001,1.774,0.698,3.478,1.942,4.743c0.296,0.3,0.618,0.572,0.961,0.816v0.938H4.761
	C2.135,17.274,0.011,19.402,0,22.028v12.75c0.011,0.369,0.315,0.662,0.685,0.658h11.343v0.321c-0.004,0.176,0.063,0.346,0.184,0.472
	c0.122,0.126,0.289,0.199,0.464,0.202h7.098l-0.348,2.241h-1.108c-0.367,0-0.664,0.297-0.664,0.664c0,0.367,0.297,0.664,0.664,0.664
	h11.357c0.367,0,0.663-0.297,0.663-0.664c0-0.366-0.296-0.664-0.663-0.664h-1.109l-0.349-2.241h7.098
	c0.373-0.003,0.675-0.302,0.685-0.674V19.266C35.991,18.894,35.688,18.594,35.315,18.589z M9.923,1.327h4.197
	c1.627-0.007,3.032,1.142,3.349,2.739H9.923c-0.756,0-1.369-0.613-1.369-1.369C8.554,1.94,9.167,1.327,9.923,1.327z M7.222,2.745
	C7.233,3.723,7.772,4.617,8.63,5.086C7.448,6.237,6.183,6.491,5.461,6.529C5.51,5.081,6.145,3.715,7.222,2.745z M5.475,10.765V7.856
	c1.079-0.044,3.01-0.471,4.65-2.462h5.967v5.371c-0.005,1.429-0.569,2.8-1.573,3.816c-0.976,1.026-2.329,1.607-3.745,1.607
	c-1.416,0-2.769-0.581-3.745-1.607C6.031,13.562,5.473,12.192,5.475,10.765z M10.789,17.516c0.914,0,1.817-0.194,2.649-0.57v0.636
	l-2.598,1.619l-2.462-1.61v-0.543C9.144,17.358,9.962,17.517,10.789,17.516z M1.327,22.028c0.01-1.894,1.541-3.427,3.434-3.439
	h2.728l2.63,1.758v13.761H1.327V22.028z M11.447,34.108V20.357l0.581-0.339v14.09H11.447z M20.77,38.672l1.269-8.133h3.915
	l1.269,8.133H20.77z M34.673,35.104h-6.662l-0.833-5.346c-0.052-0.32-0.331-0.553-0.655-0.546H21.47
	c-0.324-0.007-0.604,0.226-0.656,0.546l-0.833,5.346h-6.625V19.917h21.318V35.104z"/>
<path fill="#C4C4C4" d="M23.996,26.135c1.381,0,2.499-1.119,2.499-2.5c0-1.38-1.118-2.5-2.499-2.5c-1.379,0-2.498,1.119-2.498,2.5
	C21.499,25.016,22.617,26.135,23.996,26.135z M23.996,22.464c0.648,0,1.172,0.525,1.172,1.172c0,0.647-0.524,1.172-1.172,1.172
	c-0.646,0-1.171-0.525-1.171-1.172C22.825,22.989,23.35,22.464,23.996,22.464z"/>
</svg>
