<svg xmlns="http://www.w3.org/2000/svg" width="36" height="40"><linearGradient id="a" gradientUnits="userSpaceOnUse" x1="8.177" y1="481.291" x2="8.177" y2="442.604" gradientTransform="matrix(1 0 0 -1 .04 481.955)"><stop offset="0" stop-color="#00efd1"/><stop offset="1" stop-color="#00acea"/></linearGradient><path fill="url(#a)" d="M9.235 8.938a.663.663 0 0 0-.663.664.354.354 0 1 1-.709 0 .664.664 0 1 0-1.328 0 1.682 1.682 0 0 0 3.365 0 .666.666 0 0 0-.665-.664z"/><linearGradient id="b" gradientUnits="userSpaceOnUse" x1="13.269" y1="481.29" x2="13.269" y2="442.608" gradientTransform="matrix(1 0 0 -1 .04 481.955)"><stop offset="0" stop-color="#00efd1"/><stop offset="1" stop-color="#00acea"/></linearGradient><path fill="url(#b)" d="M13.309 11.284a1.684 1.684 0 0 0 1.682-1.683.664.664 0 1 0-1.327 0 .355.355 0 0 1-.709 0 .664.664 0 0 0-1.328 0c.001.93.753 1.682 1.682 1.683z"/><linearGradient id="c" gradientUnits="userSpaceOnUse" x1="17.96" y1="481.291" x2="17.96" y2="442.603" gradientTransform="matrix(1 0 0 -1 .04 481.955)"><stop offset="0" stop-color="#00efd1"/><stop offset="1" stop-color="#00acea"/></linearGradient><path fill="url(#c)" d="M35.315 18.589h-15.02a4.808 4.808 0 0 0-3.275-1.328h-2.254v-1.113a7.26 7.26 0 0 0 .718-.64 6.768 6.768 0 0 0 1.937-4.743V5.394h.777a.658.658 0 0 0 .662-.658A4.74 4.74 0 0 0 14.12 0H9.923a2.665 2.665 0 0 0-1.545.497 6.668 6.668 0 0 0-4.23 6.191v4.076a6.77 6.77 0 0 0 1.942 4.743c.296.3.618.572.961.816v.938h-2.29A4.786 4.786 0 0 0 0 22.028v12.75a.678.678 0 0 0 .685.658h11.343v.321a.66.66 0 0 0 .648.674h7.098l-.348 2.241h-1.108a.664.664 0 1 0 0 1.328h11.357a.663.663 0 1 0 0-1.328h-1.109l-.349-2.241h7.098a.692.692 0 0 0 .685-.674V19.266a.695.695 0 0 0-.685-.677zM9.923 1.327h4.197a3.401 3.401 0 0 1 3.349 2.739H9.923a1.37 1.37 0 0 1 0-2.739zM7.222 2.745c.011.978.55 1.872 1.408 2.341-1.182 1.151-2.447 1.405-3.169 1.443a5.334 5.334 0 0 1 1.761-3.784zm-1.747 8.02V7.856c1.079-.044 3.01-.471 4.65-2.462h5.967v5.371a5.456 5.456 0 0 1-1.573 3.816 5.168 5.168 0 0 1-7.49 0 5.442 5.442 0 0 1-1.554-3.816zm5.314 6.751c.914 0 1.817-.194 2.649-.57v.636l-2.598 1.619-2.462-1.61v-.543c.766.31 1.584.469 2.411.468zm-9.462 4.512a3.456 3.456 0 0 1 3.434-3.439h2.728l2.63 1.758v13.761H1.327v-12.08zm10.12 12.08V20.357l.581-.339v14.09h-.581zm9.323 4.564l1.269-8.133h3.915l1.269 8.133H20.77zm13.903-3.568h-6.662l-.833-5.346a.65.65 0 0 0-.655-.546H21.47a.65.65 0 0 0-.656.546l-.833 5.346h-6.625V19.917h21.318v15.187z"/><linearGradient id="d" gradientUnits="userSpaceOnUse" x1="23.956" y1="481.293" x2="23.956" y2="442.603" gradientTransform="matrix(1 0 0 -1 .04 481.955)"><stop offset="0" stop-color="#00efd1"/><stop offset="1" stop-color="#00acea"/></linearGradient><path fill="url(#d)" d="M23.996 26.135a2.5 2.5 0 1 0 0-5.001 2.5 2.5 0 0 0 0 5.001zm0-3.671a1.172 1.172 0 1 1 0 2.343 1.172 1.172 0 0 1 0-2.343z"/></svg>