<svg xmlns="http://www.w3.org/2000/svg" width="200" height="55" viewBox="-4.833 -3 200 55"><linearGradient id="a" gradientUnits="userSpaceOnUse" x1="22.02" y1="-448.45" x2="22.02" y2="-397.79" gradientTransform="translate(-.88 447.799) scale(.9984)"><stop offset="0" stop-color="#00efd1"/><stop offset="1" stop-color="#00acea"/></linearGradient><path fill="url(#a)" d="M34.767 20.693l3.678-8.889a.855.855 0 0 0-.213-.963.832.832 0 0 0-.968-.115l-8.254 4.588-7.032-6.387a.832.832 0 0 0-.971-.109.856.856 0 0 0-.419.895l1.654 9.506-8.083 4.906a.855.855 0 0 0 .317 1.576l5.515.768L1.286 45.438a3.174 3.174 0 0 0 .004 4.441 3.069 3.069 0 0 0 4.381.004l18.953-19.217 1.235 5.775a.847.847 0 0 0 .825.672.843.843 0 0 0 .759-.484l4.104-8.693 9.363.869a.843.843 0 0 0 .842-.496.863.863 0 0 0-.182-.969l-6.803-6.647zM9.373 39.65l1.223-1.24.928 3.125-1.223 1.242-.928-3.127zm-.423 4.495l-1.224 1.242-.928-3.127 1.223-1.238.929 3.123zm2.995-7.104l1.224-1.242.929 3.127-1.223 1.24-.93-3.125zm2.575-2.611l1.224-1.238.928 3.125-1.223 1.238-.929-3.125zm2.574-2.61l1.223-1.24.93 3.127-1.224 1.238-.929-3.125zM4.48 48.676c-.553.564-1.451.564-2.005.002s-.554-1.473 0-2.033l2.972-3.014.929 3.125-1.896 1.92zm16.116-16.34l-.929-3.125 2.416-2.451 1.756.244.358 1.68-3.601 3.652zm10.518-6.154a.837.837 0 0 0-.836.48l-3.295 6.98-1.624-7.584a.844.844 0 0 0-.708-.664l-7.572-1.055 6.524-3.959A.859.859 0 0 0 24 19.5l-1.332-7.654 5.663 5.145a.83.83 0 0 0 .966.111l6.663-3.703-2.969 7.172a.862.862 0 0 0 .191.945l5.491 5.367-7.559-.701z"/><linearGradient id="b" gradientUnits="userSpaceOnUse" x1="37.623" y1="-448.449" x2="37.623" y2="-397.791" gradientTransform="translate(-.88 447.799) scale(.9984)"><stop offset="0" stop-color="#00efd1"/><stop offset="1" stop-color="#00acea"/></linearGradient><path fill="url(#b)" d="M35.697 34.197a.838.838 0 0 0-.763-.387.84.84 0 0 0-.704.488.86.86 0 0 0 .078.859l3.38 5.01a.834.834 0 0 0 1.16.207.86.86 0 0 0 .229-1.17l-3.38-5.007z"/><linearGradient id="c" gradientUnits="userSpaceOnUse" x1="31.228" y1="-448.452" x2="31.228" y2="-397.785" gradientTransform="translate(-.88 447.799) scale(.9984)"><stop offset="0" stop-color="#00efd1"/><stop offset="1" stop-color="#00acea"/></linearGradient><path fill="url(#c)" d="M30.298 8.439a.848.848 0 0 0 .842-.854V1.654c0-.473-.377-.855-.842-.855s-.841.383-.841.855v5.932c0 .471.376.853.841.853z"/><linearGradient id="d" gradientUnits="userSpaceOnUse" x1="47.587" y1="-448.446" x2="47.587" y2="-397.797" gradientTransform="translate(-.88 447.799) scale(.9984)"><stop offset="0" stop-color="#00efd1"/><stop offset="1" stop-color="#00acea"/></linearGradient><path fill="url(#d)" d="M51.355 16.475a.838.838 0 0 0-1.021-.619l-7.8 1.977c-.299.068-.536.293-.622.59s-.009.619.206.84a.837.837 0 0 0 .822.227l7.802-1.979a.855.855 0 0 0 .613-1.036z"/><linearGradient id="e" gradientUnits="userSpaceOnUse" x1="12.011" y1="-448.456" x2="12.011" y2="-397.779" gradientTransform="translate(-.88 447.799) scale(.9984)"><stop offset="0" stop-color="#00efd1"/><stop offset="1" stop-color="#00acea"/></linearGradient><path fill="url(#e)" d="M8.081 15.811l5.786.988c.459.078.893-.234.97-.699s-.232-.904-.69-.982l-5.786-.99a.836.836 0 0 0-.792.295c-.192.236-.247.559-.141.846s.355.493.653.542z"/><path d="M69.667 13.36v18.968c0 2.037-.634 3.682-1.899 4.934-1.149 1.138-2.526 1.707-4.13 1.707-1.343 0-2.478-.424-3.405-1.271l.739-.688c.734.67 1.565 1.005 2.493 1.005 1.13 0 2.082-.467 2.854-1.401.85-1.05 1.275-2.479 1.275-4.286V13.36h2.073zM84.709 20v12.249h-2.087v-1.297c-1.266 1.19-2.845 1.786-4.738 1.786-1.585 0-2.841-.472-3.768-1.415-.948-.935-1.426-2.179-1.435-3.73V20h2.086v7.593c0 1.103.285 2.02.855 2.751.512.688 1.208 1.125 2.087 1.31.83.177 1.681.084 2.551-.277.927-.379 1.714-1.01 2.361-1.892V20h2.088zm5.868 4.365c.339.177.783.375 1.333.595l.783.291.798.278c1.343.503 2.313.961 2.912 1.376.869.635 1.304 1.384 1.304 2.248 0 1.05-.564 1.918-1.695 2.606-1.149.688-2.574 1.031-4.274 1.031-.813 0-1.652-.172-2.521-.516-.985-.397-1.749-.913-2.29-1.548l.84-.595c.532.652 1.242 1.124 2.131 1.415a6.078 6.078 0 0 0 2.579.265c.87-.088 1.584-.34 2.146-.754.589-.468.883-1.045.883-1.733 0-.537-.443-1.045-1.333-1.521a20.233 20.233 0 0 0-1.333-.622l-.768-.304-.812-.291c-1.324-.521-2.289-1.01-2.898-1.469-.869-.652-1.31-1.411-1.318-2.275 0-.899.439-1.657 1.318-2.274.985-.706 2.357-1.059 4.115-1.059.812 0 1.661.181 2.551.542.966.397 1.72.913 2.261 1.548l-.797.596c-.474-.538-1.116-.971-1.928-1.297a6.505 6.505 0 0 0-2.406-.41c-.849 0-1.535.182-2.057.543-.57.396-.855.947-.855 1.653-.002.636.442 1.196 1.331 1.681zm12.58-3.413v5.688c0 1.622.371 2.976 1.116 4.061.753 1.085 1.694 1.627 2.825 1.627v.952c-1.721 0-3.155-.635-4.304-1.904-1.15-1.261-1.725-2.84-1.725-4.735v-5.688h-2.608V20c1.361 0 2.295-.233 2.796-.701.57-.521.855-1.552.855-3.095h1.044V20h3.941v.952h-3.94zm25.359 9.881l.739.688c-.947.847-2.097 1.27-3.449 1.27-1.941 0-3.483-.688-4.623-2.063-1.023-1.243-1.54-2.769-1.55-4.576 0-1.79.517-3.308 1.55-4.551 1.149-1.394 2.691-2.09 4.623-2.09 1.343 0 2.493.437 3.449 1.31l-.739.675c-.735-.688-1.638-1.032-2.71-1.032-1.285 0-2.314.596-3.087 1.786-.676 1.066-1.01 2.367-1 3.902-.02 1.552.313 2.861 1 3.928.772 1.173 1.802 1.76 3.087 1.76 1.073-.001 1.975-.336 2.71-1.007zm9.81-10.912c.242.088.479.207.711.357l.261.158.275.159-1.072 1.19c-1.169-1.341-2.416-1.68-3.739-1.019-1.285.635-1.927 1.781-1.927 3.438v8.122h-2.088V20h2.088v1.085c.83-1.05 1.907-1.574 3.23-1.574.851.017 1.605.154 2.261.41zm10.942.899c.966.812 1.371 1.759 1.217 2.844-.154 1.173-.937 2.147-2.348 2.924-1.662.899-3.937 1.384-6.825 1.454.3 1.12.802 2.033 1.507 2.738.716.706 1.517 1.059 2.406 1.059 1.071 0 1.975-.335 2.71-1.006l.739.688c-.947.847-2.098 1.27-3.449 1.27-1.942 0-3.484-.688-4.623-2.063-1.024-1.243-1.541-2.769-1.551-4.576 0-1.79.517-3.308 1.551-4.551 1.149-1.394 2.69-2.09 4.623-2.09 1.671.009 3.019.445 4.043 1.309zm-2.71 5.172c1.091-.6 1.715-1.357 1.869-2.275.116-.828-.141-1.569-.769-2.222-.657-.688-1.468-1.032-2.434-1.032-1.267 0-2.314.671-3.145 2.011-.832 1.358-1.146 2.901-.942 4.63 2.329-.036 4.136-.406 5.421-1.112zm15.608-5.119c1.226.979 1.84 2.205 1.84 3.678v7.698h-2.087v-1.297c-1.324 1.244-2.807 1.83-4.449 1.76-1.604.053-2.898-.247-3.884-.899-1.071-.724-1.607-1.733-1.607-3.029 0-1.772 1.11-3.047 3.332-3.823 1.604-.537 3.798-.828 6.579-.872-.154-2.081-1.135-3.272-2.941-3.572-1.739-.291-3.42.305-5.043 1.786l-.739-.675c1.526-1.41 3.227-2.116 5.101-2.116 1.468.008 2.767.462 3.898 1.361zm-7.247 9.934c.552.503 1.252.803 2.102.899a4.897 4.897 0 0 0 2.58-.383 5.6 5.6 0 0 0 2.318-1.839V25.04c-2.53.035-4.382.269-5.55.701-1.546.582-2.314 1.596-2.305 3.042 0 .812.285 1.487.855 2.024zm15.319-9.855v5.688c0 1.622.371 2.976 1.115 4.061.754 1.085 1.695 1.627 2.826 1.627v.952c-1.721 0-3.155-.635-4.305-1.904-1.149-1.261-1.725-2.84-1.725-4.735v-5.688h-2.608V20c1.362 0 2.295-.233 2.797-.701.57-.521.854-1.552.854-3.095h1.045V20h3.941v.952h-3.94zm14.853-.132c.967.812 1.372 1.759 1.218 2.844-.155 1.173-.938 2.147-2.349 2.924-1.661.899-3.936 1.384-6.824 1.454.3 1.12.801 2.033 1.506 2.738.716.706 1.518 1.059 2.406 1.059 1.072 0 1.976-.335 2.71-1.006l.739.688c-.946.847-2.097 1.27-3.449 1.27-1.941 0-3.483-.688-4.623-2.063-1.023-1.243-1.54-2.769-1.55-4.576 0-1.79.517-3.308 1.55-4.551 1.15-1.394 2.691-2.09 4.623-2.09 1.671.009 3.019.445 4.043 1.309zm-2.71 5.172c1.092-.6 1.716-1.357 1.869-2.275.117-.828-.14-1.569-.768-2.222-.657-.688-1.468-1.032-2.435-1.032-1.266 0-2.313.671-3.145 2.011-.831 1.358-1.145 2.901-.942 4.63 2.329-.036 4.136-.406 5.421-1.112z" fill="#00E3D1"/></svg>