<?xml version="1.0" encoding="utf-8"?>
<!-- Generator: Adobe Illustrator 14.0.0, SVG Export Plug-In . SVG Version: 6.00 Build 43363)  -->
<!DOCTYPE svg PUBLIC "-//W3C//DTD SVG 1.1//EN" "http://www.w3.org/Graphics/SVG/1.1/DTD/svg11.dtd">
<svg version="1.1" id="Layer_1" xmlns="http://www.w3.org/2000/svg" xmlns:xlink="http://www.w3.org/1999/xlink" x="0px" y="0px"
	 width="51px" height="50px" viewBox="-55.64 612.945 51 50" enable-background="new -55.64 612.945 51 50" xml:space="preserve">
<g>
	
		<linearGradient id="SVGID_1_" gradientUnits="userSpaceOnUse" x1="-34.4873" y1="677.8943" x2="-34.4873" y2="627.2345" gradientTransform="matrix(0.9984 0 0 -0.9984 -0.4855 1289.0198)">
		<stop  offset="0" style="stop-color:#00EFD1"/>
		<stop  offset="1" style="stop-color:#00ACEA"/>
	</linearGradient>
	<path fill="url(#SVGID_1_)" d="M-21.254,632.837l3.678-8.887c0.139-0.334,0.053-0.721-0.213-0.964
		c-0.266-0.243-0.654-0.289-0.968-0.114l-8.254,4.587l-7.032-6.386c-0.267-0.243-0.657-0.287-0.971-0.11s-0.482,0.536-0.419,0.894
		l1.654,9.506l-8.083,4.906c-0.307,0.186-0.463,0.547-0.392,0.903c0.072,0.354,0.356,0.625,0.71,0.674l5.514,0.768l-18.706,18.968
		c-1.207,1.229-1.205,3.216,0.004,4.441c1.209,1.227,3.169,1.229,4.381,0.005l18.953-19.217l1.236,5.774
		c0.077,0.356,0.368,0.625,0.725,0.667c0.032,0.004,0.065,0.006,0.099,0.006c0.323,0,0.619-0.189,0.759-0.485l4.103-8.693
		l9.363,0.869c0.355,0.033,0.693-0.166,0.842-0.495c0.148-0.33,0.076-0.718-0.181-0.97L-21.254,632.837z M-46.649,651.795
		l1.223-1.24l0.928,3.125l-1.223,1.241L-46.649,651.795z M-47.072,656.29l-1.223,1.241l-0.929-3.126l1.223-1.24L-47.072,656.29z
		 M-44.076,649.185l1.223-1.241l0.929,3.126l-1.223,1.24L-44.076,649.185z M-41.501,646.575l1.223-1.24l0.928,3.126l-1.223,1.239
		L-41.501,646.575z M-38.928,643.965l1.223-1.24l0.929,3.126l-1.223,1.239L-38.928,643.965z M-51.541,660.821
		c-0.553,0.563-1.451,0.563-2.005,0.001c-0.554-0.562-0.554-1.472,0-2.033l2.972-3.014l0.928,3.125L-51.541,660.821z
		 M-35.425,644.481l-0.929-3.126l2.416-2.45l1.756,0.244l0.359,1.679L-35.425,644.481z M-24.907,638.326
		c-0.351-0.033-0.685,0.159-0.836,0.481l-3.295,6.981l-1.624-7.585c-0.075-0.35-0.358-0.615-0.708-0.664l-7.573-1.054l6.525-3.96
		c0.299-0.182,0.457-0.532,0.396-0.88l-1.332-7.654l5.663,5.143c0.266,0.241,0.652,0.287,0.966,0.112l6.663-3.704l-2.969,7.173
		c-0.134,0.325-0.058,0.7,0.192,0.945l5.491,5.368L-24.907,638.326z"/>
	
		<linearGradient id="SVGID_2_" gradientUnits="userSpaceOnUse" x1="-18.8833" y1="677.8962" x2="-18.8833" y2="627.2339" gradientTransform="matrix(0.9984 0 0 -0.9984 -0.4855 1289.0198)">
		<stop  offset="0" style="stop-color:#00EFD1"/>
		<stop  offset="1" style="stop-color:#00ACEA"/>
	</linearGradient>
	<path fill="url(#SVGID_2_)" d="M-20.324,646.341c-0.167-0.26-0.458-0.406-0.763-0.386c-0.305,0.021-0.574,0.208-0.704,0.488
		s-0.1,0.609,0.078,0.86l3.38,5.01c0.268,0.377,0.782,0.47,1.16,0.207c0.377-0.263,0.479-0.781,0.229-1.171L-20.324,646.341z"/>
	
		<linearGradient id="SVGID_3_" gradientUnits="userSpaceOnUse" x1="-25.2788" y1="677.8953" x2="-25.2788" y2="627.2348" gradientTransform="matrix(0.9984 0 0 -0.9984 -0.4855 1289.0198)">
		<stop  offset="0" style="stop-color:#00EFD1"/>
		<stop  offset="1" style="stop-color:#00ACEA"/>
	</linearGradient>
	<path fill="url(#SVGID_3_)" d="M-25.724,620.584c0.465,0,0.842-0.382,0.842-0.854v-5.932c0-0.472-0.377-0.854-0.842-0.854
		s-0.841,0.382-0.841,0.854v5.932C-26.565,620.201-26.189,620.584-25.724,620.584z"/>
	
		<linearGradient id="SVGID_4_" gradientUnits="userSpaceOnUse" x1="-8.9204" y1="677.8923" x2="-8.9204" y2="627.2372" gradientTransform="matrix(0.9984 0 0 -0.9984 -0.4855 1289.0198)">
		<stop  offset="0" style="stop-color:#00EFD1"/>
		<stop  offset="1" style="stop-color:#00ACEA"/>
	</linearGradient>
	<path fill="url(#SVGID_4_)" d="M-4.666,628.62c-0.112-0.457-0.569-0.735-1.021-0.621l-7.8,1.977
		c-0.298,0.068-0.536,0.294-0.622,0.591c-0.086,0.297-0.008,0.618,0.206,0.839s0.529,0.307,0.823,0.226l7.801-1.977
		C-4.827,629.54-4.552,629.077-4.666,628.62z"/>
	
		<linearGradient id="SVGID_5_" gradientUnits="userSpaceOnUse" x1="-44.4961" y1="677.8972" x2="-44.4961" y2="627.2288" gradientTransform="matrix(0.9984 0 0 -0.9984 -0.4855 1289.0198)">
		<stop  offset="0" style="stop-color:#00EFD1"/>
		<stop  offset="1" style="stop-color:#00ACEA"/>
	</linearGradient>
	<path fill="url(#SVGID_5_)" d="M-47.941,627.955l5.786,0.988c0.459,0.079,0.893-0.234,0.97-0.699
		c0.077-0.465-0.232-0.905-0.69-0.983l-5.786-0.989c-0.297-0.053-0.6,0.06-0.792,0.295c-0.193,0.236-0.247,0.558-0.141,0.845
		S-48.239,627.906-47.941,627.955z"/>
</g>
</svg>
