<svg xmlns="http://www.w3.org/2000/svg" width="51" height="50" viewBox="-55.64 612.945 51 50"><path d="M-21.254 632.837l3.678-8.887a.86.86 0 0 0-.213-.964.832.832 0 0 0-.968-.114l-8.254 4.587-7.032-6.386c-.267-.243-.657-.287-.971-.11s-.482.536-.419.894l1.654 9.506-8.083 4.906a.857.857 0 0 0 .318 1.577l5.514.768-18.706 18.968a3.174 3.174 0 0 0 .004 4.441 3.07 3.07 0 0 0 4.381.005l18.953-19.217 1.236 5.774a.848.848 0 0 0 .824.673.842.842 0 0 0 .759-.485l4.103-8.693 9.363.869a.842.842 0 0 0 .842-.495.864.864 0 0 0-.181-.97l-6.802-6.647zm-25.395 18.958l1.223-1.24.928 3.125-1.223 1.241-.928-3.126zm-.423 4.495l-1.223 1.241-.929-3.126 1.223-1.24.929 3.125zm2.996-7.105l1.223-1.241.929 3.126-1.223 1.24-.929-3.125zm2.575-2.61l1.223-1.24.928 3.126-1.223 1.239-.928-3.125zm2.573-2.61l1.223-1.24.929 3.126-1.223 1.239-.929-3.125zm-12.613 16.856a1.402 1.402 0 0 1-2.005.001 1.451 1.451 0 0 1 0-2.033l2.972-3.014.928 3.125-1.895 1.921zm16.116-16.34l-.929-3.126 2.416-2.45 1.756.244.359 1.679-3.602 3.653zm10.518-6.155a.837.837 0 0 0-.836.481l-3.295 6.981-1.624-7.585a.847.847 0 0 0-.708-.664l-7.573-1.054 6.525-3.96a.857.857 0 0 0 .396-.88l-1.332-7.654 5.663 5.143a.831.831 0 0 0 .966.112l6.663-3.704-2.969 7.173a.864.864 0 0 0 .192.945l5.491 5.368-7.559-.702zm4.583 8.015a.84.84 0 0 0-.763-.386c-.305.021-.574.208-.704.488s-.1.609.078.86l3.38 5.01a.834.834 0 0 0 1.16.207.862.862 0 0 0 .229-1.171l-3.38-5.008zm-5.4-25.757a.848.848 0 0 0 .842-.854v-5.932c0-.472-.377-.854-.842-.854s-.841.382-.841.854v5.932c0 .471.376.854.841.854zm21.058 8.036a.84.84 0 0 0-1.021-.621l-7.8 1.977a.845.845 0 0 0-.622.591c-.086.297-.008.618.206.839s.529.307.823.226l7.801-1.977a.853.853 0 0 0 .613-1.035zm-43.275-.665l5.786.988a.842.842 0 0 0 .97-.699.852.852 0 0 0-.69-.983l-5.786-.989a.834.834 0 0 0-.792.295c-.193.236-.247.558-.141.845s.355.494.653.543z" fill="#D7D7D7"/></svg>