<?xml version="1.0" encoding="utf-8"?>
<!-- Generator: Adobe Illustrator 14.0.0, SVG Export Plug-In . SVG Version: 6.00 Build 43363)  -->
<!DOCTYPE svg PUBLIC "-//W3C//DTD SVG 1.1//EN" "http://www.w3.org/Graphics/SVG/1.1/DTD/svg11.dtd">
<svg version="1.1" id="Layer_1" xmlns="http://www.w3.org/2000/svg" xmlns:xlink="http://www.w3.org/1999/xlink" x="0px" y="0px"
	 width="200px" height="55px" viewBox="-4.833 -3 200 55" enable-background="new -4.833 -3 200 55" xml:space="preserve">
<g>
	
		<linearGradient id="SVGID_1_" gradientUnits="userSpaceOnUse" x1="22.0198" y1="-448.4502" x2="22.0198" y2="-397.7898" gradientTransform="matrix(0.9984 0 0 0.9984 -0.8808 447.7986)">
		<stop  offset="0" style="stop-color:#00EFD1"/>
		<stop  offset="1" style="stop-color:#00ACEA"/>
	</linearGradient>
	<path fill="url(#SVGID_1_)" d="M34.767,20.693l3.678-8.889c0.14-0.334,0.054-0.721-0.213-0.963
		c-0.266-0.244-0.653-0.289-0.968-0.115l-8.254,4.588l-7.032-6.387c-0.267-0.242-0.657-0.287-0.971-0.109
		c-0.314,0.178-0.482,0.535-0.419,0.895l1.654,9.506l-8.083,4.906c-0.308,0.186-0.464,0.547-0.393,0.902
		c0.072,0.354,0.356,0.625,0.71,0.674l5.515,0.768L1.286,45.438c-1.207,1.229-1.205,3.217,0.004,4.441
		c1.209,1.227,3.169,1.229,4.381,0.004l18.953-19.217l1.235,5.775c0.077,0.355,0.368,0.625,0.726,0.666
		c0.032,0.004,0.064,0.006,0.099,0.006c0.323,0,0.619-0.189,0.759-0.484l4.104-8.693l9.363,0.869
		c0.354,0.033,0.692-0.166,0.842-0.496c0.147-0.33,0.076-0.717-0.182-0.969L34.767,20.693z M9.373,39.65l1.223-1.24l0.928,3.125
		l-1.223,1.242L9.373,39.65z M8.95,44.145l-1.224,1.242L6.798,42.26l1.223-1.238L8.95,44.145z M11.945,37.041l1.224-1.242
		l0.929,3.127l-1.223,1.24L11.945,37.041z M14.52,34.43l1.224-1.238l0.928,3.125l-1.223,1.238L14.52,34.43z M17.094,31.82
		l1.223-1.24l0.93,3.127l-1.224,1.238L17.094,31.82z M4.48,48.676c-0.553,0.564-1.451,0.564-2.005,0.002s-0.554-1.473,0-2.033
		l2.972-3.014l0.929,3.125L4.48,48.676z M20.596,32.336l-0.929-3.125l2.416-2.451l1.756,0.244l0.358,1.68L20.596,32.336z
		 M31.114,26.182c-0.351-0.033-0.685,0.158-0.836,0.48l-3.295,6.98l-1.624-7.584c-0.074-0.35-0.357-0.615-0.708-0.664l-7.572-1.055
		l6.524-3.959C23.902,20.199,24.06,19.848,24,19.5l-1.332-7.654l5.663,5.145c0.266,0.24,0.651,0.287,0.966,0.111l6.663-3.703
		l-2.969,7.172c-0.135,0.324-0.059,0.699,0.191,0.945l5.491,5.367L31.114,26.182z"/>
	
		<linearGradient id="SVGID_2_" gradientUnits="userSpaceOnUse" x1="37.6228" y1="-448.4492" x2="37.6228" y2="-397.7906" gradientTransform="matrix(0.9984 0 0 0.9984 -0.8808 447.7986)">
		<stop  offset="0" style="stop-color:#00EFD1"/>
		<stop  offset="1" style="stop-color:#00ACEA"/>
	</linearGradient>
	<path fill="url(#SVGID_2_)" d="M35.697,34.197c-0.167-0.262-0.458-0.406-0.763-0.387c-0.305,0.021-0.574,0.207-0.704,0.488
		c-0.13,0.279-0.1,0.609,0.078,0.859l3.38,5.01c0.269,0.377,0.782,0.471,1.16,0.207c0.377-0.262,0.479-0.781,0.229-1.17
		L35.697,34.197z"/>
	
		<linearGradient id="SVGID_3_" gradientUnits="userSpaceOnUse" x1="31.2283" y1="-448.4517" x2="31.2283" y2="-397.7847" gradientTransform="matrix(0.9984 0 0 0.9984 -0.8808 447.7986)">
		<stop  offset="0" style="stop-color:#00EFD1"/>
		<stop  offset="1" style="stop-color:#00ACEA"/>
	</linearGradient>
	<path fill="url(#SVGID_3_)" d="M30.298,8.439c0.465,0,0.842-0.383,0.842-0.854V1.654c0-0.473-0.377-0.855-0.842-0.855
		s-0.841,0.383-0.841,0.855v5.932C29.457,8.057,29.833,8.439,30.298,8.439z"/>
	
		<linearGradient id="SVGID_4_" gradientUnits="userSpaceOnUse" x1="47.5867" y1="-448.4458" x2="47.5867" y2="-397.7974" gradientTransform="matrix(0.9984 0 0 0.9984 -0.8808 447.7986)">
		<stop  offset="0" style="stop-color:#00EFD1"/>
		<stop  offset="1" style="stop-color:#00ACEA"/>
	</linearGradient>
	<path fill="url(#SVGID_4_)" d="M51.355,16.475c-0.111-0.457-0.568-0.734-1.021-0.619l-7.8,1.977
		c-0.299,0.068-0.536,0.293-0.622,0.59s-0.009,0.619,0.206,0.84c0.214,0.221,0.528,0.307,0.822,0.227l7.802-1.979
		C51.194,17.395,51.469,16.932,51.355,16.475z"/>
	
		<linearGradient id="SVGID_5_" gradientUnits="userSpaceOnUse" x1="12.0105" y1="-448.4561" x2="12.0105" y2="-397.7785" gradientTransform="matrix(0.9984 0 0 0.9984 -0.8808 447.7986)">
		<stop  offset="0" style="stop-color:#00EFD1"/>
		<stop  offset="1" style="stop-color:#00ACEA"/>
	</linearGradient>
	<path fill="url(#SVGID_5_)" d="M8.081,15.811l5.786,0.988c0.459,0.078,0.893-0.234,0.97-0.699s-0.232-0.904-0.69-0.982l-5.786-0.99
		c-0.297-0.053-0.6,0.061-0.792,0.295c-0.192,0.236-0.247,0.559-0.141,0.846S7.783,15.762,8.081,15.811z"/>
</g>
<g>
	<path fill="#00E3D1" d="M69.667,13.36v18.968c0,2.037-0.634,3.682-1.899,4.934c-1.149,1.138-2.526,1.707-4.13,1.707
		c-1.343,0-2.478-0.424-3.405-1.271l0.739-0.688c0.734,0.67,1.565,1.005,2.493,1.005c1.13,0,2.082-0.467,2.854-1.401
		c0.85-1.05,1.275-2.479,1.275-4.286V13.36H69.667z"/>
	<path fill="#00E3D1" d="M84.709,20v12.249h-2.087v-1.297c-1.266,1.19-2.845,1.786-4.738,1.786c-1.585,0-2.841-0.472-3.768-1.415
		c-0.948-0.935-1.426-2.179-1.435-3.73V20h2.086v7.593c0,1.103,0.285,2.02,0.855,2.751c0.512,0.688,1.208,1.125,2.087,1.31
		c0.83,0.177,1.681,0.084,2.551-0.277c0.927-0.379,1.714-1.01,2.361-1.892V20H84.709z"/>
	<path fill="#00E3D1" d="M90.577,24.365c0.339,0.177,0.783,0.375,1.333,0.595l0.783,0.291l0.798,0.278
		c1.343,0.503,2.313,0.961,2.912,1.376c0.869,0.635,1.304,1.384,1.304,2.248c0,1.05-0.564,1.918-1.695,2.606
		c-1.149,0.688-2.574,1.031-4.274,1.031c-0.813,0-1.652-0.172-2.521-0.516c-0.985-0.397-1.749-0.913-2.29-1.548l0.84-0.595
		c0.532,0.652,1.242,1.124,2.131,1.415c0.831,0.273,1.691,0.361,2.579,0.265c0.87-0.088,1.584-0.34,2.146-0.754
		c0.589-0.468,0.883-1.045,0.883-1.733c0-0.537-0.443-1.045-1.333-1.521c-0.338-0.177-0.781-0.384-1.333-0.622l-0.768-0.304
		l-0.812-0.291c-1.324-0.521-2.289-1.01-2.898-1.469c-0.869-0.652-1.31-1.411-1.318-2.275c0-0.899,0.439-1.657,1.318-2.274
		c0.985-0.706,2.357-1.059,4.115-1.059c0.812,0,1.661,0.181,2.551,0.542c0.966,0.397,1.72,0.913,2.261,1.548l-0.797,0.596
		c-0.474-0.538-1.116-0.971-1.928-1.297c-0.792-0.291-1.594-0.428-2.406-0.41c-0.849,0-1.535,0.182-2.057,0.543
		c-0.57,0.396-0.855,0.947-0.855,1.653C89.244,23.32,89.688,23.88,90.577,24.365z"/>
	<path fill="#00E3D1" d="M103.157,20.952v5.688c0,1.622,0.371,2.976,1.116,4.061c0.753,1.085,1.694,1.627,2.825,1.627v0.952
		c-1.721,0-3.155-0.635-4.304-1.904c-1.15-1.261-1.725-2.84-1.725-4.735v-5.688h-2.608V20c1.361,0,2.295-0.233,2.796-0.701
		c0.57-0.521,0.855-1.552,0.855-3.095h1.044V20h3.941v0.952H103.157z"/>
	<path fill="#00E3D1" d="M128.516,30.833l0.739,0.688c-0.947,0.847-2.097,1.27-3.449,1.27c-1.941,0-3.483-0.688-4.623-2.063
		c-1.023-1.243-1.54-2.769-1.55-4.576c0-1.79,0.517-3.308,1.55-4.551c1.149-1.394,2.691-2.09,4.623-2.09
		c1.343,0,2.493,0.437,3.449,1.31l-0.739,0.675c-0.735-0.688-1.638-1.032-2.71-1.032c-1.285,0-2.314,0.596-3.087,1.786
		c-0.676,1.066-1.01,2.367-1,3.902c-0.02,1.552,0.313,2.861,1,3.928c0.772,1.173,1.802,1.76,3.087,1.76
		C126.879,31.839,127.781,31.504,128.516,30.833z"/>
	<path fill="#00E3D1" d="M138.326,19.921c0.242,0.088,0.479,0.207,0.711,0.357l0.261,0.158l0.275,0.159l-1.072,1.19
		c-1.169-1.341-2.416-1.68-3.739-1.019c-1.285,0.635-1.927,1.781-1.927,3.438v8.122h-2.088V20h2.088v1.085
		c0.83-1.05,1.907-1.574,3.23-1.574C136.916,19.528,137.67,19.665,138.326,19.921z"/>
	<path fill="#00E3D1" d="M149.268,20.82c0.966,0.812,1.371,1.759,1.217,2.844c-0.154,1.173-0.937,2.147-2.348,2.924
		c-1.662,0.899-3.937,1.384-6.825,1.454c0.3,1.12,0.802,2.033,1.507,2.738c0.716,0.706,1.517,1.059,2.406,1.059
		c1.071,0,1.975-0.335,2.71-1.006l0.739,0.688c-0.947,0.847-2.098,1.27-3.449,1.27c-1.942,0-3.484-0.688-4.623-2.063
		c-1.024-1.243-1.541-2.769-1.551-4.576c0-1.79,0.517-3.308,1.551-4.551c1.149-1.394,2.69-2.09,4.623-2.09
		C146.896,19.52,148.244,19.956,149.268,20.82z M146.558,25.992c1.091-0.6,1.715-1.357,1.869-2.275
		c0.116-0.828-0.141-1.569-0.769-2.222c-0.657-0.688-1.468-1.032-2.434-1.032c-1.267,0-2.314,0.671-3.145,2.011
		c-0.832,1.358-1.146,2.901-0.942,4.63C143.466,27.068,145.273,26.698,146.558,25.992z"/>
	<path fill="#00E3D1" d="M162.166,20.873c1.226,0.979,1.84,2.205,1.84,3.678v7.698h-2.087v-1.297
		c-1.324,1.244-2.807,1.83-4.449,1.76c-1.604,0.053-2.898-0.247-3.884-0.899c-1.071-0.724-1.607-1.733-1.607-3.029
		c0-1.772,1.11-3.047,3.332-3.823c1.604-0.537,3.798-0.828,6.579-0.872c-0.154-2.081-1.135-3.272-2.941-3.572
		c-1.739-0.291-3.42,0.305-5.043,1.786l-0.739-0.675c1.526-1.41,3.227-2.116,5.101-2.116
		C159.736,19.52,161.035,19.974,162.166,20.873z M154.919,30.807c0.552,0.503,1.252,0.803,2.102,0.899
		c0.89,0.106,1.749-0.021,2.58-0.383c0.927-0.397,1.7-1.01,2.318-1.839V25.04c-2.53,0.035-4.382,0.269-5.55,0.701
		c-1.546,0.582-2.314,1.596-2.305,3.042C154.064,29.595,154.349,30.27,154.919,30.807z"/>
	<path fill="#00E3D1" d="M170.238,20.952v5.688c0,1.622,0.371,2.976,1.115,4.061c0.754,1.085,1.695,1.627,2.826,1.627v0.952
		c-1.721,0-3.155-0.635-4.305-1.904c-1.149-1.261-1.725-2.84-1.725-4.735v-5.688h-2.608V20c1.362,0,2.295-0.233,2.797-0.701
		c0.57-0.521,0.854-1.552,0.854-3.095h1.045V20h3.941v0.952H170.238z"/>
	<path fill="#00E3D1" d="M185.091,20.82c0.967,0.812,1.372,1.759,1.218,2.844c-0.155,1.173-0.938,2.147-2.349,2.924
		c-1.661,0.899-3.936,1.384-6.824,1.454c0.3,1.12,0.801,2.033,1.506,2.738c0.716,0.706,1.518,1.059,2.406,1.059
		c1.072,0,1.976-0.335,2.71-1.006l0.739,0.688c-0.946,0.847-2.097,1.27-3.449,1.27c-1.941,0-3.483-0.688-4.623-2.063
		c-1.023-1.243-1.54-2.769-1.55-4.576c0-1.79,0.517-3.308,1.55-4.551c1.15-1.394,2.691-2.09,4.623-2.09
		C182.719,19.52,184.067,19.956,185.091,20.82z M182.381,25.992c1.092-0.6,1.716-1.357,1.869-2.275
		c0.117-0.828-0.14-1.569-0.768-2.222c-0.657-0.688-1.468-1.032-2.435-1.032c-1.266,0-2.313,0.671-3.145,2.011
		c-0.831,1.358-1.145,2.901-0.942,4.63C179.289,27.068,181.096,26.698,182.381,25.992z"/>
</g>
</svg>
