<?xml version="1.0" encoding="utf-8"?>
<!-- Generator: Adobe Illustrator 14.0.0, SVG Export Plug-In . SVG Version: 6.00 Build 43363)  -->
<!DOCTYPE svg PUBLIC "-//W3C//DTD SVG 1.1//EN" "http://www.w3.org/Graphics/SVG/1.1/DTD/svg11.dtd">
<svg version="1.1" id="Layer_1" xmlns="http://www.w3.org/2000/svg" xmlns:xlink="http://www.w3.org/1999/xlink" x="0px" y="0px"
	 width="27px" height="41px" viewBox="0 0 27 41" enable-background="new 0 0 27 41" xml:space="preserve">
<path fill="#D7D7D7" d="M13.5,4.659c-4.915,0-8.898,4.033-8.898,9.01s3.984,9.012,8.898,9.012s8.898-4.035,8.898-9.012
	C22.392,8.696,18.412,4.665,13.5,4.659z M13.5,21.325c-4.175,0-7.562-3.428-7.562-7.656S9.324,6.015,13.5,6.015
	s7.561,3.428,7.561,7.654C21.056,17.897,17.674,21.321,13.5,21.325z M25.087,10.528l0.18-3.318c0.017-0.268-0.129-0.52-0.366-0.641
	l-2.915-1.492l-1.474-2.951c-0.119-0.24-0.369-0.387-0.633-0.369l-3.276,0.182l-2.734-1.826c-0.224-0.148-0.514-0.148-0.736,0
	l-2.735,1.826L7.122,1.757C6.855,1.739,6.607,1.886,6.488,2.126L5.014,5.077L2.098,6.569C1.862,6.69,1.718,6.942,1.731,7.21
	l0.182,3.318l-1.803,2.77c-0.147,0.227-0.147,0.52,0,0.744l1.803,2.77l-0.182,3.316c-0.014,0.27,0.13,0.521,0.367,0.645l2.916,1.488
	l1.474,2.951c0.055,0.109,0.138,0.203,0.24,0.27L1.211,35.878C1.078,36.13,1.113,36.438,1.3,36.649
	c0.188,0.213,0.485,0.283,0.747,0.18l5.469-2.199l1.209,5.832c0.058,0.279,0.281,0.49,0.56,0.531c0.276,0.041,0.552-0.1,0.685-0.35
	l3.531-6.656l3.531,6.656c0.133,0.25,0.405,0.391,0.684,0.35s0.501-0.252,0.56-0.531l1.209-5.832l5.471,2.199
	c0.261,0.104,0.559,0.033,0.746-0.18c0.187-0.213,0.223-0.521,0.09-0.771l-5.52-10.396c0.104-0.066,0.187-0.158,0.241-0.27
	l1.474-2.951l2.915-1.488c0.237-0.123,0.381-0.375,0.365-0.645l-0.18-3.316l1.804-2.77c0.146-0.227,0.146-0.518,0-0.744
	L25.087,10.528z M9.659,38.366l-0.996-4.801c-0.042-0.195-0.165-0.363-0.339-0.457c-0.175-0.098-0.38-0.107-0.563-0.035
	l-4.505,1.813l4.968-9.363l0.766-0.041l3.753,7.076L9.659,38.366z M19.241,33.073c-0.185-0.072-0.391-0.063-0.564,0.035
	c-0.174,0.094-0.297,0.262-0.338,0.457l-0.996,4.801l-6.84-12.895l2.63,1.756c0.222,0.148,0.512,0.148,0.735,0l2.734-1.826
	l2.175,0.121l4.967,9.361L19.241,33.073z M23.848,16.251c-0.079,0.123-0.117,0.266-0.108,0.412l0.167,3.1l-2.722,1.391
	c-0.127,0.063-0.229,0.172-0.295,0.301l-1.375,2.754l-3.06-0.17c-0.145-0.008-0.286,0.031-0.405,0.109L13.5,25.851l-2.551-1.703
	c-0.108-0.072-0.237-0.111-0.368-0.111c-0.013,0-0.024,0-0.037,0.002l-3.062,0.17l-1.375-2.754
	c-0.063-0.129-0.168-0.236-0.295-0.301l-2.722-1.391l0.168-3.1c0.008-0.146-0.03-0.289-0.109-0.412l-1.682-2.582l1.682-2.584
	c0.079-0.119,0.117-0.264,0.109-0.408L3.091,7.579l2.722-1.393c0.127-0.066,0.231-0.17,0.295-0.299L7.482,3.13l3.062,0.172
	c0.144,0.008,0.285-0.031,0.405-0.111l2.55-1.701L16.05,3.19c0.119,0.08,0.261,0.119,0.405,0.111l3.06-0.172l1.375,2.758
	c0.065,0.129,0.167,0.232,0.295,0.299l2.722,1.393l-0.167,3.098c-0.009,0.146,0.029,0.289,0.108,0.408l1.683,2.584L23.848,16.251z
	 M10.62,12.979c-0.127-0.131-0.19-0.281-0.19-0.453c0-0.199,0.063-0.346,0.188-0.439c0.125-0.092,0.346-0.215,0.662-0.361
	c0.473-0.225,0.851-0.457,1.134-0.703s0.534-0.521,0.753-0.826s0.361-0.492,0.428-0.564c0.067-0.068,0.191-0.104,0.375-0.104
	c0.207,0,0.373,0.08,0.498,0.24c0.125,0.158,0.188,0.381,0.188,0.662v6.709c0,0.783-0.27,1.178-0.805,1.178
	c-0.236,0-0.43-0.08-0.572-0.24c-0.146-0.16-0.219-0.395-0.219-0.709v-5.332c-0.99,0.762-1.658,1.145-2.004,1.145
	C10.891,13.175,10.747,13.11,10.62,12.979z"/>
</svg>
