<?xml version="1.0" encoding="utf-8"?>
<!-- Generator: Adobe Illustrator 14.0.0, SVG Export Plug-In . SVG Version: 6.00 Build 43363)  -->
<!DOCTYPE svg PUBLIC "-//W3C//DTD SVG 1.1//EN" "http://www.w3.org/Graphics/SVG/1.1/DTD/svg11.dtd">
<svg version="1.1" id="Layer_1" xmlns="http://www.w3.org/2000/svg" xmlns:xlink="http://www.w3.org/1999/xlink" x="0px" y="0px"
	 width="27px" height="41px" viewBox="-55.64 621.945 27 41" enable-background="new -55.64 621.945 27 41" xml:space="preserve">
<linearGradient id="SVGID_1_" gradientUnits="userSpaceOnUse" x1="-42.1401" y1="612.6755" x2="-42.1401" y2="702.152">
	<stop  offset="0" style="stop-color:#00EFD1"/>
	<stop  offset="0.1247" style="stop-color:#00EAD3"/>
	<stop  offset="0.2786" style="stop-color:#00DBD9"/>
	<stop  offset="0.4469" style="stop-color:#00C2E2"/>
	<stop  offset="0.5636" style="stop-color:#00ACEA"/>
</linearGradient>
<path fill="url(#SVGID_1_)" d="M-42.141,626.604c-4.915,0-8.898,4.033-8.898,9.01c0,4.976,3.984,9.011,8.898,9.011
	s8.899-4.035,8.899-9.011C-33.248,630.64-37.229,626.609-42.141,626.604z M-42.141,643.27c-4.175,0-7.561-3.429-7.561-7.656
	c0-4.229,3.385-7.656,7.561-7.656c4.176,0,7.561,3.428,7.561,7.656C-34.584,639.841-37.967,643.265-42.141,643.27z M-30.554,632.473
	l0.18-3.318c0.016-0.269-0.129-0.521-0.366-0.641l-2.916-1.492l-1.473-2.952c-0.119-0.239-0.369-0.386-0.633-0.369l-3.276,0.181
	l-2.735-1.825c-0.223-0.148-0.513-0.148-0.736,0l-2.735,1.825l-3.275-0.181c-0.266-0.017-0.514,0.13-0.634,0.369l-1.473,2.952
	l-2.916,1.492c-0.237,0.12-0.381,0.372-0.367,0.641l0.181,3.318l-1.803,2.769c-0.147,0.227-0.147,0.519,0,0.744l1.803,2.77
	l-0.181,3.316c-0.014,0.269,0.129,0.521,0.367,0.644l2.916,1.49l1.473,2.951c0.055,0.109,0.138,0.202,0.241,0.268l-5.518,10.398
	c-0.133,0.251-0.098,0.559,0.089,0.771c0.188,0.212,0.485,0.283,0.747,0.179l5.469-2.199l1.209,5.832
	c0.057,0.279,0.281,0.491,0.559,0.532c0.277,0.04,0.552-0.1,0.685-0.351l3.531-6.656l3.531,6.656
	c0.133,0.251,0.406,0.391,0.684,0.351c0.278-0.041,0.501-0.253,0.56-0.532l1.209-5.832l5.47,2.199
	c0.261,0.104,0.559,0.033,0.746-0.179c0.187-0.214,0.223-0.521,0.09-0.771l-5.519-10.398c0.103-0.065,0.186-0.158,0.241-0.268
	l1.473-2.951l2.916-1.49c0.237-0.123,0.38-0.375,0.365-0.644l-0.18-3.316l1.804-2.77c0.146-0.226,0.146-0.518,0-0.744
	L-30.554,632.473z M-45.982,660.311l-0.996-4.802c-0.042-0.195-0.165-0.363-0.339-0.457c-0.174-0.096-0.38-0.107-0.563-0.034
	l-4.505,1.812l4.968-9.363l0.765-0.042l3.753,7.076L-45.982,660.311z M-36.4,655.018c-0.184-0.073-0.39-0.062-0.564,0.034
	c-0.174,0.094-0.297,0.262-0.338,0.457l-0.996,4.802l-6.84-12.895l2.63,1.755c0.222,0.149,0.512,0.149,0.735,0l2.735-1.825
	l2.174,0.12l4.967,9.363L-36.4,655.018z M-31.792,638.196c-0.079,0.123-0.117,0.265-0.109,0.412l0.167,3.099l-2.721,1.391
	c-0.127,0.063-0.23,0.171-0.295,0.3l-1.375,2.755l-3.06-0.17c-0.144-0.009-0.286,0.03-0.405,0.109l-2.551,1.703l-2.551-1.703
	c-0.108-0.072-0.237-0.111-0.368-0.111c-0.013,0-0.024,0-0.037,0.002l-3.061,0.17l-1.375-2.755c-0.064-0.129-0.168-0.236-0.295-0.3
	l-2.722-1.391l0.168-3.1c0.008-0.146-0.03-0.288-0.109-0.411l-1.682-2.583l1.682-2.583c0.079-0.12,0.117-0.264,0.109-0.409
	l-0.168-3.098l2.722-1.393c0.127-0.065,0.231-0.17,0.295-0.298l1.375-2.757l3.061,0.171c0.144,0.008,0.285-0.031,0.405-0.111
	l2.55-1.702l2.551,1.702c0.119,0.08,0.261,0.119,0.405,0.111l3.06-0.171l1.375,2.757c0.065,0.128,0.167,0.232,0.295,0.298
	l2.721,1.393l-0.167,3.099c-0.008,0.145,0.03,0.288,0.109,0.408l1.682,2.584L-31.792,638.196z M-43.207,638.543h3.06
	c0.305,0,0.537,0.063,0.696,0.188c0.16,0.125,0.24,0.295,0.24,0.51c0,0.191-0.063,0.355-0.189,0.486
	c-0.127,0.133-0.319,0.199-0.577,0.199h-4.313c-0.293,0-0.521-0.082-0.686-0.244s-0.246-0.352-0.246-0.57
	c0-0.141,0.053-0.328,0.158-0.561c0.104-0.232,0.221-0.414,0.346-0.547c0.521-0.539,0.988-1.002,1.406-1.387
	s0.717-0.637,0.896-0.758c0.32-0.227,0.587-0.455,0.8-0.684c0.214-0.229,0.375-0.463,0.486-0.703s0.167-0.477,0.167-0.705
	c0-0.25-0.06-0.475-0.179-0.672s-0.281-0.352-0.486-0.459c-0.205-0.109-0.429-0.164-0.671-0.164c-0.512,0-0.914,0.225-1.207,0.674
	c-0.039,0.059-0.104,0.219-0.196,0.48c-0.092,0.26-0.194,0.463-0.311,0.604s-0.284,0.211-0.507,0.211
	c-0.195,0-0.357-0.064-0.486-0.193s-0.193-0.305-0.193-0.527c0-0.27,0.062-0.551,0.183-0.844s0.302-0.559,0.542-0.797
	s0.545-0.432,0.914-0.576c0.369-0.146,0.802-0.221,1.298-0.221c0.598,0,1.107,0.094,1.529,0.281
	c0.272,0.125,0.514,0.297,0.721,0.516s0.368,0.473,0.483,0.76c0.114,0.287,0.173,0.584,0.173,0.893c0,0.484-0.12,0.926-0.36,1.322
	c-0.24,0.395-0.485,0.707-0.735,0.932s-0.669,0.578-1.257,1.059c-0.588,0.479-0.991,0.854-1.21,1.117
	C-43.013,638.267-43.108,638.394-43.207,638.543z"/>
</svg>
