<svg xmlns="http://www.w3.org/2000/svg" width="27" height="41" viewBox="-55.64 621.945 27 41"><linearGradient id="a" gradientUnits="userSpaceOnUse" x1="-42.14" y1="612.676" x2="-42.14" y2="702.152"><stop offset="0" stop-color="#00efd1"/><stop offset=".125" stop-color="#00ead3"/><stop offset=".279" stop-color="#00dbd9"/><stop offset=".447" stop-color="#00c2e2"/><stop offset=".564" stop-color="#00acea"/></linearGradient><path fill="url(#a)" d="M-42.141 626.604c-4.915 0-8.898 4.033-8.898 9.01 0 4.976 3.984 9.011 8.898 9.011s8.899-4.035 8.899-9.011c-.006-4.974-3.987-9.005-8.899-9.01zm0 16.666c-4.175 0-7.561-3.429-7.561-7.656 0-4.229 3.385-7.656 7.561-7.656s7.561 3.428 7.561 7.656c-.004 4.227-3.387 7.651-7.561 7.656zm11.587-10.797l.18-3.318a.674.674 0 0 0-.366-.641l-2.916-1.492-1.473-2.952a.663.663 0 0 0-.633-.369l-3.276.181-2.735-1.825a.666.666 0 0 0-.736 0l-2.735 1.825-3.275-.181a.664.664 0 0 0-.634.369l-1.473 2.952-2.916 1.492a.678.678 0 0 0-.367.641l.181 3.318-1.803 2.769a.683.683 0 0 0 0 .744l1.803 2.77-.181 3.316a.683.683 0 0 0 .367.644l2.916 1.49 1.473 2.951a.684.684 0 0 0 .241.268l-5.518 10.398a.683.683 0 0 0 .089.771.667.667 0 0 0 .747.179l5.469-2.199 1.209 5.832a.672.672 0 0 0 .559.532.67.67 0 0 0 .685-.351l3.531-6.656 3.531 6.656a.667.667 0 0 0 .684.351.676.676 0 0 0 .56-.532l1.209-5.832 5.47 2.199a.665.665 0 0 0 .746-.179.684.684 0 0 0 .09-.771l-5.519-10.398a.67.67 0 0 0 .241-.268l1.473-2.951 2.916-1.49a.682.682 0 0 0 .365-.644l-.18-3.316 1.804-2.77a.687.687 0 0 0 0-.744l-1.803-2.769zm-15.428 27.838l-.996-4.802a.68.68 0 0 0-.339-.457.658.658 0 0 0-.563-.034l-4.505 1.812 4.968-9.363.765-.042 3.753 7.076-3.083 5.81zm9.582-5.293a.66.66 0 0 0-.564.034.676.676 0 0 0-.338.457l-.996 4.802-6.84-12.895 2.63 1.755a.66.66 0 0 0 .735 0l2.735-1.825 2.174.12 4.967 9.363-4.503-1.811zm4.608-16.822a.688.688 0 0 0-.109.412l.167 3.099-2.721 1.391a.67.67 0 0 0-.295.3l-1.375 2.755-3.06-.17a.658.658 0 0 0-.405.109l-2.551 1.703-2.551-1.703a.666.666 0 0 0-.368-.111c-.013 0-.024 0-.037.002l-3.061.17-1.375-2.755a.669.669 0 0 0-.295-.3l-2.722-1.391.168-3.1a.687.687 0 0 0-.109-.411l-1.682-2.583 1.682-2.583a.677.677 0 0 0 .109-.409l-.168-3.098 2.722-1.393a.675.675 0 0 0 .295-.298l1.375-2.757 3.061.171a.662.662 0 0 0 .405-.111l2.55-1.702 2.551 1.702a.66.66 0 0 0 .405.111l3.06-.171 1.375 2.757a.68.68 0 0 0 .295.298l2.721 1.393-.167 3.099a.674.674 0 0 0 .109.408l1.682 2.584-1.681 2.582zm-11.415.347h3.06c.305 0 .537.063.696.188.16.125.24.295.24.51a.677.677 0 0 1-.189.486c-.127.133-.319.199-.577.199h-4.313c-.293 0-.521-.082-.686-.244s-.246-.352-.246-.57c0-.141.053-.328.158-.561.104-.232.221-.414.346-.547.521-.539.988-1.002 1.406-1.387s.717-.637.896-.758c.32-.227.587-.455.8-.684.214-.229.375-.463.486-.703s.167-.477.167-.705c0-.25-.06-.475-.179-.672s-.281-.352-.486-.459a1.408 1.408 0 0 0-.671-.164c-.512 0-.914.225-1.207.674-.039.059-.104.219-.196.48-.092.26-.194.463-.311.604s-.284.211-.507.211c-.195 0-.357-.064-.486-.193s-.193-.305-.193-.527c0-.27.062-.551.183-.844s.302-.559.542-.797.545-.432.914-.576c.369-.146.802-.221 1.298-.221.598 0 1.107.094 1.529.281.272.125.514.297.721.516s.368.473.483.76c.114.287.173.584.173.893 0 .484-.12.926-.36 1.322-.24.395-.485.707-.735.932s-.669.578-1.257 1.059c-.588.479-.991.854-1.21 1.117-.095.104-.19.231-.289.38z"/></svg>