<?xml version="1.0" encoding="utf-8"?>
<!-- Generator: Adobe Illustrator 14.0.0, SVG Export Plug-In . SVG Version: 6.00 Build 43363)  -->
<!DOCTYPE svg PUBLIC "-//W3C//DTD SVG 1.1//EN" "http://www.w3.org/Graphics/SVG/1.1/DTD/svg11.dtd">
<svg version="1.1" id="Layer_1" xmlns="http://www.w3.org/2000/svg" xmlns:xlink="http://www.w3.org/1999/xlink" x="0px" y="0px"
	 width="27px" height="41px" viewBox="-284.14 400.445 27 41" enable-background="new -284.14 400.445 27 41" xml:space="preserve">
<path fill="#D7D7D7" d="M-270.64,405.104c-4.915,0-8.898,4.033-8.898,9.01s3.984,9.012,8.898,9.012s8.898-4.035,8.898-9.012
	C-261.748,409.142-265.728,405.11-270.64,405.104z M-270.64,421.771c-4.175,0-7.562-3.428-7.562-7.656s3.386-7.654,7.562-7.654
	s7.561,3.428,7.561,7.654C-263.084,418.343-266.467,421.767-270.64,421.771z M-259.053,410.974l0.18-3.318
	c0.017-0.268-0.129-0.52-0.366-0.641l-2.915-1.492l-1.474-2.951c-0.119-0.24-0.369-0.387-0.633-0.369l-3.276,0.182l-2.734-1.826
	c-0.224-0.148-0.514-0.148-0.736,0l-2.735,1.826l-3.274-0.182c-0.267-0.018-0.515,0.129-0.634,0.369l-1.474,2.951l-2.916,1.492
	c-0.236,0.121-0.381,0.373-0.367,0.641l0.182,3.318l-1.803,2.77c-0.147,0.227-0.147,0.52,0,0.744l1.803,2.77l-0.182,3.316
	c-0.014,0.27,0.13,0.521,0.367,0.645l2.916,1.488l1.474,2.951c0.055,0.109,0.138,0.203,0.24,0.27l-5.518,10.396
	c-0.133,0.252-0.098,0.561,0.089,0.771c0.188,0.213,0.485,0.283,0.747,0.18l5.469-2.199l1.209,5.832
	c0.058,0.279,0.281,0.49,0.56,0.531c0.276,0.041,0.552-0.1,0.685-0.35l3.531-6.656l3.531,6.656c0.133,0.25,0.405,0.391,0.684,0.35
	s0.501-0.252,0.56-0.531l1.209-5.832l5.471,2.199c0.261,0.104,0.559,0.033,0.746-0.18c0.187-0.213,0.223-0.521,0.09-0.771
	l-5.52-10.396c0.104-0.066,0.187-0.158,0.241-0.27l1.474-2.951l2.915-1.488c0.237-0.123,0.381-0.375,0.365-0.645l-0.18-3.316
	l1.804-2.77c0.146-0.227,0.146-0.518,0-0.744L-259.053,410.974z M-274.481,438.812l-0.996-4.801
	c-0.042-0.195-0.165-0.363-0.339-0.457c-0.175-0.098-0.38-0.107-0.563-0.035l-4.505,1.813l4.968-9.363l0.766-0.041l3.753,7.076
	L-274.481,438.812z M-264.899,433.519c-0.185-0.072-0.391-0.063-0.564,0.035c-0.174,0.094-0.297,0.262-0.338,0.457l-0.996,4.801
	l-6.84-12.895l2.63,1.756c0.222,0.148,0.512,0.148,0.735,0l2.734-1.826l2.175,0.121l4.967,9.361L-264.899,433.519z
	 M-260.292,416.696c-0.079,0.123-0.117,0.266-0.108,0.412l0.167,3.1l-2.722,1.391c-0.127,0.063-0.229,0.172-0.295,0.301
	l-1.375,2.754l-3.06-0.17c-0.145-0.008-0.286,0.031-0.405,0.109l-2.551,1.703l-2.551-1.703c-0.108-0.072-0.237-0.111-0.368-0.111
	c-0.013,0-0.024,0-0.037,0.002l-3.062,0.17l-1.375-2.754c-0.063-0.129-0.168-0.236-0.295-0.301l-2.722-1.391l0.168-3.1
	c0.008-0.146-0.03-0.289-0.109-0.412l-1.682-2.582l1.682-2.584c0.079-0.119,0.117-0.264,0.109-0.408l-0.168-3.098l2.722-1.393
	c0.127-0.066,0.231-0.17,0.295-0.299l1.375-2.758l3.062,0.172c0.144,0.008,0.285-0.031,0.405-0.111l2.55-1.701l2.551,1.701
	c0.119,0.08,0.261,0.119,0.405,0.111l3.06-0.172l1.375,2.758c0.065,0.129,0.167,0.232,0.295,0.299l2.722,1.393l-0.167,3.098
	c-0.009,0.146,0.029,0.289,0.108,0.408l1.683,2.584L-260.292,416.696z M-271.707,417.044h3.061c0.305,0,0.537,0.063,0.695,0.188
	c0.16,0.125,0.24,0.295,0.24,0.51c0,0.191-0.063,0.355-0.188,0.486c-0.127,0.133-0.319,0.199-0.577,0.199h-4.313
	c-0.293,0-0.521-0.082-0.686-0.244s-0.246-0.352-0.246-0.57c0-0.141,0.053-0.328,0.158-0.561c0.104-0.232,0.221-0.414,0.346-0.547
	c0.521-0.539,0.988-1.002,1.406-1.387s0.717-0.637,0.896-0.758c0.32-0.227,0.587-0.455,0.8-0.684
	c0.215-0.23,0.375-0.463,0.486-0.703s0.167-0.479,0.167-0.705c0-0.25-0.06-0.475-0.179-0.672s-0.281-0.354-0.486-0.459
	c-0.205-0.109-0.429-0.164-0.671-0.164c-0.512,0-0.914,0.225-1.207,0.674c-0.039,0.059-0.104,0.219-0.196,0.48
	c-0.092,0.26-0.193,0.463-0.311,0.604s-0.284,0.211-0.507,0.211c-0.195,0-0.357-0.064-0.486-0.193s-0.193-0.305-0.193-0.527
	c0-0.27,0.063-0.551,0.184-0.844s0.302-0.559,0.542-0.797s0.545-0.432,0.914-0.576c0.369-0.146,0.802-0.221,1.298-0.221
	c0.598,0,1.107,0.094,1.529,0.281c0.271,0.125,0.514,0.297,0.721,0.516s0.368,0.473,0.483,0.76c0.113,0.287,0.173,0.584,0.173,0.893
	c0,0.484-0.12,0.926-0.36,1.322c-0.24,0.395-0.485,0.707-0.735,0.932c-0.25,0.227-0.669,0.578-1.257,1.061
	c-0.588,0.479-0.991,0.854-1.21,1.117C-271.512,416.769-271.607,416.896-271.707,417.044z"/>
</svg>
