<svg xmlns="http://www.w3.org/2000/svg" width="27" height="41"><path fill="#D7D7D7" d="M13.5 4.659c-4.915 0-8.898 4.033-8.898 9.01s3.984 9.012 8.898 9.012 8.898-4.035 8.898-9.012c-.006-4.973-3.986-9.004-8.898-9.01zm0 16.666c-4.175 0-7.562-3.428-7.562-7.656S9.324 6.015 13.5 6.015s7.561 3.428 7.561 7.654c-.005 4.228-3.387 7.652-7.561 7.656zm11.587-10.797l.18-3.318a.674.674 0 0 0-.366-.641l-2.915-1.492-1.474-2.951a.66.66 0 0 0-.633-.369l-3.276.182L13.869.113a.666.666 0 0 0-.736 0l-2.735 1.826-3.276-.182a.659.659 0 0 0-.634.369L5.014 5.077 2.098 6.569a.683.683 0 0 0-.367.641l.182 3.318-1.803 2.77a.683.683 0 0 0 0 .744l1.803 2.77-.182 3.316c-.014.27.13.521.367.645l2.916 1.488 1.474 2.951a.702.702 0 0 0 .24.27L1.211 35.878a.683.683 0 0 0 .089.771.667.667 0 0 0 .747.18l5.469-2.199 1.209 5.832c.058.279.281.49.56.531a.67.67 0 0 0 .685-.35l3.531-6.656 3.531 6.656a.665.665 0 0 0 1.244-.181l1.209-5.832 5.471 2.199a.664.664 0 0 0 .746-.18.684.684 0 0 0 .09-.771l-5.52-10.396a.655.655 0 0 0 .241-.27l1.474-2.951 2.915-1.488a.68.68 0 0 0 .365-.645l-.18-3.316 1.804-2.77a.687.687 0 0 0 0-.744l-1.804-2.77zM9.659 38.366l-.996-4.801a.68.68 0 0 0-.339-.457.655.655 0 0 0-.563-.035l-4.505 1.813 4.968-9.363.766-.041 3.753 7.076-3.084 5.808zm9.582-5.293a.657.657 0 0 0-.564.035.676.676 0 0 0-.338.457l-.996 4.801-6.84-12.895 2.63 1.756a.664.664 0 0 0 .735 0l2.734-1.826 2.175.121 4.967 9.361-4.503-1.81zm4.607-16.822a.682.682 0 0 0-.108.412l.167 3.1-2.722 1.391a.676.676 0 0 0-.295.301l-1.375 2.754-3.06-.17a.67.67 0 0 0-.405.109l-2.55 1.703-2.551-1.703a.666.666 0 0 0-.368-.111c-.013 0-.024 0-.037.002l-3.062.17-1.375-2.754a.671.671 0 0 0-.295-.301L3.09 19.763l.168-3.1a.69.69 0 0 0-.109-.412l-1.682-2.582 1.682-2.584a.674.674 0 0 0 .109-.408l-.167-3.098 2.722-1.393a.677.677 0 0 0 .295-.299L7.482 3.13l3.062.172a.662.662 0 0 0 .405-.111l2.55-1.701 2.551 1.7a.66.66 0 0 0 .405.111l3.06-.172 1.375 2.758a.682.682 0 0 0 .295.299l2.722 1.393-.167 3.098a.663.663 0 0 0 .108.408l1.683 2.584-1.683 2.582zM10.62 12.979a.63.63 0 0 1-.19-.453c0-.199.063-.346.188-.439.125-.092.346-.215.662-.361.473-.225.851-.457 1.134-.703s.534-.521.753-.826.361-.492.428-.564c.067-.068.191-.104.375-.104a.6.6 0 0 1 .498.24c.125.158.188.381.188.662v6.709c0 .783-.27 1.178-.805 1.178a.731.731 0 0 1-.572-.24c-.146-.16-.219-.395-.219-.709v-5.332c-.99.762-1.658 1.145-2.004 1.145a.624.624 0 0 1-.436-.203z"/></svg>