<?xml version="1.0" encoding="utf-8"?>
<!-- Generator: Adobe Illustrator 14.0.0, SVG Export Plug-In . SVG Version: 6.00 Build 43363)  -->
<!DOCTYPE svg PUBLIC "-//W3C//DTD SVG 1.1//EN" "http://www.w3.org/Graphics/SVG/1.1/DTD/svg11.dtd">
<svg version="1.1" id="Layer_1" xmlns="http://www.w3.org/2000/svg" xmlns:xlink="http://www.w3.org/1999/xlink" x="0px" y="0px"
	 width="27px" height="41px" viewBox="-55.64 621.945 27 41" enable-background="new -55.64 621.945 27 41" xml:space="preserve">
<linearGradient id="SVGID_1_" gradientUnits="userSpaceOnUse" x1="-42.1401" y1="612.6755" x2="-42.1401" y2="702.152">
	<stop  offset="0" style="stop-color:#00EFD1"/>
	<stop  offset="0.1247" style="stop-color:#00EAD3"/>
	<stop  offset="0.2786" style="stop-color:#00DBD9"/>
	<stop  offset="0.4469" style="stop-color:#00C2E2"/>
	<stop  offset="0.5636" style="stop-color:#00ACEA"/>
</linearGradient>
<path fill="url(#SVGID_1_)" d="M-42.141,626.604c-4.915,0-8.898,4.033-8.898,9.01c0,4.976,3.984,9.011,8.898,9.011
	s8.899-4.035,8.899-9.011C-33.248,630.64-37.229,626.609-42.141,626.604z M-42.141,643.27c-4.175,0-7.561-3.429-7.561-7.656
	c0-4.229,3.385-7.656,7.561-7.656c4.176,0,7.561,3.428,7.561,7.656C-34.584,639.841-37.967,643.265-42.141,643.27z M-30.554,632.473
	l0.18-3.318c0.016-0.269-0.129-0.521-0.366-0.641l-2.916-1.492l-1.473-2.952c-0.119-0.239-0.369-0.386-0.633-0.369l-3.276,0.181
	l-2.735-1.825c-0.223-0.148-0.513-0.148-0.736,0l-2.735,1.825l-3.275-0.181c-0.266-0.017-0.514,0.13-0.634,0.369l-1.473,2.952
	l-2.916,1.492c-0.237,0.12-0.381,0.372-0.367,0.641l0.181,3.318l-1.803,2.769c-0.147,0.227-0.147,0.519,0,0.744l1.803,2.77
	l-0.181,3.316c-0.014,0.269,0.129,0.521,0.367,0.644l2.916,1.49l1.473,2.951c0.055,0.109,0.138,0.202,0.241,0.268l-5.518,10.398
	c-0.133,0.251-0.098,0.559,0.089,0.771c0.188,0.212,0.485,0.283,0.747,0.179l5.469-2.199l1.209,5.832
	c0.057,0.279,0.281,0.491,0.559,0.532c0.277,0.04,0.552-0.1,0.685-0.351l3.531-6.656l3.531,6.656
	c0.133,0.251,0.406,0.391,0.684,0.351c0.278-0.041,0.501-0.253,0.56-0.532l1.209-5.832l5.47,2.199
	c0.261,0.104,0.559,0.033,0.746-0.179c0.187-0.214,0.223-0.521,0.09-0.771l-5.519-10.398c0.103-0.065,0.186-0.158,0.241-0.268
	l1.473-2.951l2.916-1.49c0.237-0.123,0.38-0.375,0.365-0.644l-0.18-3.316l1.804-2.77c0.146-0.226,0.146-0.518,0-0.744
	L-30.554,632.473z M-45.982,660.311l-0.996-4.802c-0.042-0.195-0.165-0.363-0.339-0.457c-0.174-0.096-0.38-0.107-0.563-0.034
	l-4.505,1.812l4.968-9.363l0.765-0.042l3.753,7.076L-45.982,660.311z M-36.4,655.018c-0.184-0.073-0.39-0.062-0.564,0.034
	c-0.174,0.094-0.297,0.262-0.338,0.457l-0.996,4.802l-6.84-12.895l2.63,1.755c0.222,0.149,0.512,0.149,0.735,0l2.735-1.825
	l2.174,0.12l4.967,9.363L-36.4,655.018z M-31.792,638.196c-0.079,0.123-0.117,0.265-0.109,0.412l0.167,3.099l-2.721,1.391
	c-0.127,0.063-0.23,0.171-0.295,0.3l-1.375,2.755l-3.06-0.17c-0.144-0.009-0.286,0.03-0.405,0.109l-2.551,1.703l-2.551-1.703
	c-0.108-0.072-0.237-0.111-0.368-0.111c-0.013,0-0.024,0-0.037,0.002l-3.061,0.17l-1.375-2.755c-0.064-0.129-0.168-0.236-0.295-0.3
	l-2.722-1.391l0.168-3.1c0.008-0.146-0.03-0.288-0.109-0.411l-1.682-2.583l1.682-2.583c0.079-0.12,0.117-0.264,0.109-0.409
	l-0.168-3.098l2.722-1.393c0.127-0.065,0.231-0.17,0.295-0.298l1.375-2.757l3.061,0.171c0.144,0.008,0.285-0.031,0.405-0.111
	l2.55-1.702l2.551,1.702c0.119,0.08,0.261,0.119,0.405,0.111l3.06-0.171l1.375,2.757c0.065,0.128,0.167,0.232,0.295,0.298
	l2.721,1.393l-0.167,3.099c-0.008,0.145,0.03,0.288,0.109,0.408l1.682,2.584L-31.792,638.196z M-42.637,634.719
	c0.359,0,0.669-0.105,0.929-0.316s0.39-0.514,0.39-0.908c0-0.301-0.104-0.561-0.311-0.777s-0.486-0.324-0.838-0.324
	c-0.238,0-0.435,0.033-0.589,0.1s-0.276,0.154-0.366,0.264s-0.175,0.25-0.255,0.422s-0.153,0.334-0.22,0.486
	c-0.039,0.082-0.109,0.146-0.211,0.193s-0.219,0.07-0.352,0.07c-0.156,0-0.3-0.064-0.431-0.191s-0.196-0.295-0.196-0.506
	c0-0.203,0.062-0.418,0.185-0.643s0.303-0.438,0.539-0.641s0.53-0.367,0.882-0.49s0.744-0.184,1.178-0.184
	c0.379,0,0.725,0.051,1.037,0.154s0.584,0.254,0.814,0.449s0.404,0.422,0.521,0.68s0.176,0.535,0.176,0.832
	c0,0.391-0.085,0.725-0.255,1.004s-0.413,0.553-0.729,0.818c0.305,0.164,0.562,0.352,0.771,0.563s0.366,0.443,0.472,0.699
	s0.158,0.533,0.158,0.83c0,0.355-0.071,0.699-0.214,1.031s-0.353,0.627-0.63,0.887s-0.606,0.463-0.987,0.609
	s-0.802,0.221-1.263,0.221c-0.469,0-0.889-0.084-1.26-0.252s-0.677-0.379-0.917-0.631s-0.422-0.512-0.545-0.781
	s-0.185-0.492-0.185-0.668c0-0.227,0.073-0.41,0.22-0.549s0.329-0.207,0.548-0.207c0.109,0,0.215,0.031,0.316,0.096
	s0.168,0.143,0.199,0.232c0.203,0.543,0.421,0.945,0.653,1.209s0.56,0.396,0.981,0.396c0.242,0,0.476-0.061,0.7-0.18
	s0.41-0.295,0.557-0.529s0.22-0.506,0.22-0.814c0-0.457-0.125-0.816-0.375-1.076s-0.598-0.389-1.043-0.389
	c-0.078,0-0.199,0.008-0.363,0.023s-0.27,0.023-0.316,0.023c-0.215,0-0.381-0.055-0.498-0.162s-0.176-0.256-0.176-0.447
	c0-0.188,0.07-0.34,0.211-0.455s0.35-0.172,0.627-0.172H-42.637z"/>
</svg>
