<svg xmlns="http://www.w3.org/2000/svg" width="27" height="41" viewBox="-284.14 400.445 27 41"><path fill="#D7D7D7" d="M-270.64 405.104c-4.915 0-8.898 4.033-8.898 9.01s3.984 9.012 8.898 9.012 8.898-4.035 8.898-9.012c-.006-4.972-3.986-9.004-8.898-9.01zm0 16.667c-4.175 0-7.562-3.428-7.562-7.656s3.386-7.654 7.562-7.654 7.561 3.428 7.561 7.654c-.005 4.228-3.388 7.652-7.561 7.656zm11.587-10.797l.18-3.318a.674.674 0 0 0-.366-.641l-2.915-1.492-1.474-2.951a.66.66 0 0 0-.633-.369l-3.276.182-2.734-1.826a.666.666 0 0 0-.736 0l-2.735 1.826-3.274-.182a.659.659 0 0 0-.634.369l-1.474 2.951-2.916 1.492a.681.681 0 0 0-.367.641l.182 3.318-1.803 2.77a.683.683 0 0 0 0 .744l1.803 2.77-.182 3.316c-.014.27.13.521.367.645l2.916 1.488 1.474 2.951a.702.702 0 0 0 .24.27l-5.518 10.396a.683.683 0 0 0 .089.771.667.667 0 0 0 .747.18l5.469-2.199 1.209 5.832c.058.279.281.49.56.531a.67.67 0 0 0 .685-.35l3.531-6.656 3.531 6.656a.665.665 0 0 0 1.244-.181l1.209-5.832 5.471 2.199a.664.664 0 0 0 .746-.18.684.684 0 0 0 .09-.771l-5.52-10.396a.655.655 0 0 0 .241-.27l1.474-2.951 2.915-1.488a.68.68 0 0 0 .365-.645l-.18-3.316 1.804-2.77a.687.687 0 0 0 0-.744l-1.805-2.77zm-15.428 27.838l-.996-4.801a.68.68 0 0 0-.339-.457.655.655 0 0 0-.563-.035l-4.505 1.813 4.968-9.363.766-.041 3.753 7.076-3.084 5.808zm9.582-5.293a.657.657 0 0 0-.564.035.676.676 0 0 0-.338.457l-.996 4.801-6.84-12.895 2.63 1.756a.664.664 0 0 0 .735 0l2.734-1.826 2.175.121 4.967 9.361-4.503-1.81zm4.607-16.823a.682.682 0 0 0-.108.412l.167 3.1-2.722 1.391a.676.676 0 0 0-.295.301l-1.375 2.754-3.06-.17a.67.67 0 0 0-.405.109l-2.551 1.703-2.551-1.703a.666.666 0 0 0-.368-.111c-.013 0-.024 0-.037.002l-3.062.17-1.375-2.754a.671.671 0 0 0-.295-.301l-2.722-1.391.168-3.1a.69.69 0 0 0-.109-.412l-1.682-2.582 1.682-2.584a.674.674 0 0 0 .109-.408l-.168-3.098 2.722-1.393a.677.677 0 0 0 .295-.299l1.375-2.758 3.062.172a.662.662 0 0 0 .405-.111l2.55-1.701 2.551 1.701a.66.66 0 0 0 .405.111l3.06-.172 1.375 2.758a.682.682 0 0 0 .295.299l2.722 1.393-.167 3.098a.663.663 0 0 0 .108.408l1.683 2.584-1.682 2.582zm-11.415.348h3.061c.305 0 .537.063.695.188.16.125.24.295.24.51a.68.68 0 0 1-.188.486c-.127.133-.319.199-.577.199h-4.313c-.293 0-.521-.082-.686-.244s-.246-.352-.246-.57c0-.141.053-.328.158-.561.104-.232.221-.414.346-.547.521-.539.988-1.002 1.406-1.387s.717-.637.896-.758c.32-.227.587-.455.8-.684.215-.23.375-.463.486-.703s.167-.479.167-.705c0-.25-.06-.475-.179-.672s-.281-.354-.486-.459a1.408 1.408 0 0 0-.671-.164c-.512 0-.914.225-1.207.674-.039.059-.104.219-.196.48-.092.26-.193.463-.311.604s-.284.211-.507.211c-.195 0-.357-.064-.486-.193s-.193-.305-.193-.527c0-.27.063-.551.184-.844s.302-.559.542-.797.545-.432.914-.576c.369-.146.802-.221 1.298-.221.598 0 1.107.094 1.529.281.271.125.514.297.721.516s.368.473.483.76c.113.287.173.584.173.893 0 .484-.12.926-.36 1.322-.24.395-.485.707-.735.932-.25.227-.669.578-1.257 1.061-.588.479-.991.854-1.21 1.117-.096.103-.191.23-.291.378z"/></svg>