<?xml version="1.0" encoding="utf-8"?>
<!-- Generator: Adobe Illustrator 14.0.0, SVG Export Plug-In . SVG Version: 6.00 Build 43363)  -->
<!DOCTYPE svg PUBLIC "-//W3C//DTD SVG 1.1//EN" "http://www.w3.org/Graphics/SVG/1.1/DTD/svg11.dtd">
<svg version="1.1" id="Layer_1" xmlns="http://www.w3.org/2000/svg" xmlns:xlink="http://www.w3.org/1999/xlink" x="0px" y="0px"
	 width="40px" height="36px" viewBox="-0.001 0.001 40 36" enable-background="new -0.001 0.001 40 36" xml:space="preserve">
<g>
	
		<linearGradient id="SVGID_1_" gradientUnits="userSpaceOnUse" x1="19.9155" y1="457.9216" x2="19.9155" y2="418.3278" gradientTransform="matrix(1 0 0 -1 0.04 455.9556)">
		<stop  offset="0" style="stop-color:#00EFD1"/>
		<stop  offset="1" style="stop-color:#00ACEA"/>
	</linearGradient>
	<path fill="url(#SVGID_1_)" d="M33.069,8.324c0-1.588-1.285-2.875-2.87-2.875H9.711c-1.585,0-2.87,1.287-2.87,2.875V21.73
		c0,1.588,1.285,2.875,2.87,2.875H30.2c1.584,0,2.87-1.287,2.87-2.875V8.324z M30.244,23.199H9.755
		c-0.465-0.005-0.9-0.229-1.175-0.605l7.066-6.665l2.363,1.817c1.234,0.964,2.965,0.963,4.198-0.003l2.347-1.845l6.869,6.691
		C31.148,22.968,30.711,23.194,30.244,23.199z M8.245,20.927V10.254l6.231,4.801L8.245,20.927z M25.711,15.021l6.042-4.751v10.627
		L25.711,15.021z M9.755,6.855h20.489c0.808,0,1.51,0.651,1.51,1.461v0.167l-10.39,8.152c-0.74,0.568-1.769,0.567-2.507-0.003
		L8.245,8.48V8.317C8.245,7.507,8.947,6.855,9.755,6.855z"/>
	
		<linearGradient id="SVGID_2_" gradientUnits="userSpaceOnUse" x1="19.959" y1="457.9216" x2="19.959" y2="418.3274" gradientTransform="matrix(1 0 0 -1 0.04 455.9556)">
		<stop  offset="0" style="stop-color:#00EFD1"/>
		<stop  offset="1" style="stop-color:#00ACEA"/>
	</linearGradient>
	<path fill="url(#SVGID_2_)" d="M39.305,0.001H0.694c-0.391,0.014-0.7,0.339-0.695,0.732v34.565c0,0.263,0.145,0.504,0.378,0.625
		c0.232,0.121,0.513,0.101,0.727-0.051l8.964-6.433h29.237c0.186-0.001,0.363-0.076,0.494-0.209c0.13-0.132,0.203-0.312,0.201-0.498
		V0.733C40.004,0.34,39.696,0.015,39.305,0.001z M38.596,28.032H9.842c-0.146-0.001-0.287,0.044-0.405,0.129l-8.035,5.768V1.406
		h37.193V28.032z"/>
</g>
</svg>
