<svg xmlns="http://www.w3.org/2000/svg" width="40" height="36" viewBox="-0.001 0.001 40 36"><linearGradient id="a" gradientUnits="userSpaceOnUse" x1="19.916" y1="457.922" x2="19.916" y2="418.328" gradientTransform="matrix(1 0 0 -1 .04 455.956)"><stop offset="0" stop-color="#00efd1"/><stop offset="1" stop-color="#00acea"/></linearGradient><path fill="url(#a)" d="M33.069 8.324a2.872 2.872 0 0 0-2.87-2.875H9.711a2.872 2.872 0 0 0-2.87 2.875V21.73a2.872 2.872 0 0 0 2.87 2.875H30.2a2.873 2.873 0 0 0 2.87-2.875V8.324zm-2.825 14.875H9.755a1.475 1.475 0 0 1-1.175-.605l7.066-6.665 2.363 1.817a3.406 3.406 0 0 0 4.198-.003l2.347-1.845 6.869 6.691a1.476 1.476 0 0 1-1.179.61zM8.245 20.927V10.254l6.231 4.801-6.231 5.872zm17.466-5.906l6.042-4.751v10.627l-6.042-5.876zM9.755 6.855h20.489c.808 0 1.51.651 1.51 1.461v.167l-10.39 8.152a2.054 2.054 0 0 1-2.507-.003L8.245 8.48v-.163c0-.81.702-1.462 1.51-1.462z"/><linearGradient id="b" gradientUnits="userSpaceOnUse" x1="19.959" y1="457.922" x2="19.959" y2="418.327" gradientTransform="matrix(1 0 0 -1 .04 455.956)"><stop offset="0" stop-color="#00efd1"/><stop offset="1" stop-color="#00acea"/></linearGradient><path fill="url(#b)" d="M39.305.001H.694a.722.722 0 0 0-.695.732v34.565a.698.698 0 1 0 1.105.574l8.964-6.433h29.237a.697.697 0 0 0 .695-.707V.733a.723.723 0 0 0-.695-.732zm-.709 28.031H9.842a.683.683 0 0 0-.405.129l-8.035 5.768V1.406h37.193v26.626z"/></svg>