<?xml version="1.0" encoding="utf-8"?>
<!-- Generator: Adobe Illustrator 14.0.0, SVG Export Plug-In . SVG Version: 6.00 Build 43363)  -->
<!DOCTYPE svg PUBLIC "-//W3C//DTD SVG 1.1//EN" "http://www.w3.org/Graphics/SVG/1.1/DTD/svg11.dtd">
<svg version="1.1" id="Layer_1" xmlns="http://www.w3.org/2000/svg" xmlns:xlink="http://www.w3.org/1999/xlink" x="0px" y="0px"
	 width="25px" height="14px" viewBox="0 0 25 14" enable-background="new 0 0 25 14" xml:space="preserve">
<g>
	<path fill="#00E3D1" d="M341.807-432.668v18.968c0,2.037-0.633,3.682-1.898,4.934c-1.15,1.138-2.527,1.707-4.131,1.707
		c-1.342,0-2.477-0.424-3.404-1.271l0.738-0.688c0.734,0.67,1.566,1.005,2.494,1.005c1.129,0,2.082-0.467,2.854-1.401
		c0.85-1.05,1.275-2.479,1.275-4.286v-18.968H341.807z"/>
	<path fill="#00E3D1" d="M356.85-426.028v12.249h-2.088v-1.297c-1.266,1.19-2.844,1.786-4.738,1.786
		c-1.584,0-2.84-0.472-3.768-1.415c-0.947-0.935-1.426-2.179-1.434-3.73v-7.593h2.086v7.593c0,1.103,0.285,2.02,0.855,2.751
		c0.512,0.688,1.207,1.125,2.086,1.31c0.83,0.177,1.682,0.084,2.551-0.277c0.928-0.379,1.715-1.01,2.361-1.892v-9.484H356.85z"/>
	<path fill="#00E3D1" d="M362.717-421.663c0.34,0.177,0.783,0.375,1.334,0.595l0.783,0.291l0.797,0.278
		c1.344,0.503,2.313,0.961,2.912,1.376c0.869,0.635,1.305,1.384,1.305,2.248c0,1.05-0.564,1.918-1.695,2.606
		c-1.15,0.688-2.574,1.031-4.275,1.031c-0.813,0-1.652-0.172-2.521-0.516c-0.984-0.397-1.748-0.913-2.289-1.548l0.84-0.595
		c0.531,0.652,1.242,1.124,2.131,1.415c0.83,0.273,1.691,0.361,2.578,0.265c0.871-0.088,1.584-0.34,2.146-0.754
		c0.588-0.468,0.883-1.045,0.883-1.733c0-0.537-0.443-1.045-1.334-1.521c-0.338-0.177-0.781-0.384-1.332-0.622l-0.768-0.304
		l-0.813-0.291c-1.324-0.521-2.289-1.01-2.898-1.469c-0.869-0.652-1.309-1.411-1.318-2.275c0-0.899,0.439-1.657,1.318-2.274
		c0.986-0.706,2.357-1.059,4.115-1.059c0.813,0,1.662,0.181,2.551,0.542c0.967,0.397,1.721,0.913,2.262,1.548l-0.797,0.596
		c-0.475-0.538-1.117-0.971-1.928-1.297c-0.793-0.291-1.594-0.428-2.406-0.41c-0.85,0-1.535,0.182-2.057,0.543
		c-0.57,0.396-0.855,0.947-0.855,1.653C361.385-422.708,361.828-422.148,362.717-421.663z"/>
	<path fill="#00E3D1" d="M375.297-425.076v5.688c0,1.622,0.371,2.976,1.117,4.061c0.752,1.085,1.693,1.627,2.824,1.627v0.952
		c-1.721,0-3.154-0.635-4.303-1.904c-1.15-1.261-1.725-2.84-1.725-4.735v-5.688h-2.609v-0.952c1.361,0,2.295-0.233,2.797-0.701
		c0.57-0.521,0.855-1.552,0.855-3.095h1.043v3.796h3.941v0.952H375.297z"/>
	<path fill="#00E3D1" d="M400.656-415.195l0.74,0.688c-0.947,0.847-2.098,1.27-3.449,1.27c-1.941,0-3.484-0.688-4.623-2.063
		c-1.023-1.243-1.541-2.769-1.551-4.576c0-1.79,0.518-3.308,1.551-4.551c1.148-1.394,2.691-2.09,4.623-2.09
		c1.342,0,2.492,0.437,3.449,1.31l-0.74,0.675c-0.734-0.688-1.637-1.032-2.709-1.032c-1.285,0-2.314,0.596-3.088,1.786
		c-0.676,1.066-1.01,2.367-1,3.902c-0.02,1.552,0.314,2.861,1,3.928c0.773,1.173,1.803,1.76,3.088,1.76
		C399.02-414.189,399.922-414.524,400.656-415.195z"/>
	<path fill="#00E3D1" d="M410.467-426.107c0.242,0.088,0.479,0.207,0.711,0.357l0.26,0.158l0.275,0.159l-1.072,1.19
		c-1.168-1.341-2.416-1.68-3.738-1.019c-1.285,0.635-1.928,1.781-1.928,3.438v8.122h-2.088v-12.328h2.088v1.085
		c0.83-1.05,1.908-1.574,3.23-1.574C409.057-426.5,409.811-426.363,410.467-426.107z"/>
	<path fill="#00E3D1" d="M421.408-425.208c0.967,0.812,1.371,1.759,1.217,2.844c-0.154,1.173-0.936,2.147-2.348,2.924
		c-1.662,0.899-3.936,1.384-6.824,1.454c0.299,1.12,0.801,2.033,1.506,2.738c0.717,0.706,1.518,1.059,2.406,1.059
		c1.072,0,1.975-0.335,2.711-1.006l0.738,0.688c-0.947,0.847-2.098,1.27-3.449,1.27c-1.941,0-3.484-0.688-4.623-2.063
		c-1.023-1.243-1.541-2.769-1.551-4.576c0-1.79,0.518-3.308,1.551-4.551c1.15-1.394,2.691-2.09,4.623-2.09
		C419.037-426.509,420.385-426.072,421.408-425.208z M418.699-420.036c1.09-0.6,1.715-1.357,1.869-2.275
		c0.115-0.828-0.141-1.569-0.77-2.222c-0.656-0.688-1.467-1.032-2.434-1.032c-1.266,0-2.314,0.671-3.145,2.011
		c-0.832,1.358-1.145,2.901-0.941,4.63C415.605-418.96,417.414-419.33,418.699-420.036z"/>
	<path fill="#00E3D1" d="M434.307-425.155c1.225,0.979,1.84,2.205,1.84,3.678v7.698h-2.088v-1.297
		c-1.324,1.244-2.807,1.83-4.449,1.76c-1.604,0.053-2.898-0.247-3.883-0.899c-1.072-0.724-1.607-1.733-1.607-3.029
		c0-1.772,1.109-3.047,3.332-3.823c1.604-0.537,3.797-0.828,6.578-0.872c-0.154-2.081-1.135-3.272-2.941-3.572
		c-1.738-0.291-3.42,0.305-5.043,1.786l-0.738-0.675c1.525-1.41,3.227-2.116,5.1-2.116
		C431.877-426.509,433.176-426.055,434.307-425.155z M427.059-415.222c0.553,0.503,1.252,0.803,2.102,0.899
		c0.891,0.106,1.75-0.021,2.58-0.383c0.928-0.397,1.701-1.01,2.318-1.839v-4.444c-2.529,0.035-4.381,0.269-5.549,0.701
		c-1.547,0.582-2.314,1.596-2.305,3.042C426.205-416.434,426.49-415.759,427.059-415.222z"/>
	<path fill="#00E3D1" d="M442.379-425.076v5.688c0,1.622,0.371,2.976,1.115,4.061c0.754,1.085,1.695,1.627,2.826,1.627v0.952
		c-1.721,0-3.156-0.635-4.305-1.904c-1.15-1.261-1.725-2.84-1.725-4.735v-5.688h-2.609v-0.952c1.363,0,2.295-0.233,2.797-0.701
		c0.57-0.521,0.855-1.552,0.855-3.095h1.045v3.796h3.941v0.952H442.379z"/>
	<path fill="#00E3D1" d="M457.23-425.208c0.967,0.812,1.373,1.759,1.219,2.844c-0.156,1.173-0.938,2.147-2.35,2.924
		c-1.66,0.899-3.936,1.384-6.824,1.454c0.301,1.12,0.801,2.033,1.506,2.738c0.717,0.706,1.518,1.059,2.406,1.059
		c1.072,0,1.977-0.335,2.711-1.006l0.738,0.688c-0.945,0.847-2.096,1.27-3.449,1.27c-1.941,0-3.482-0.688-4.623-2.063
		c-1.023-1.243-1.539-2.769-1.549-4.576c0-1.79,0.516-3.308,1.549-4.551c1.15-1.394,2.691-2.09,4.623-2.09
		C454.859-426.509,456.207-426.072,457.23-425.208z M454.521-420.036c1.092-0.6,1.715-1.357,1.869-2.275
		c0.117-0.828-0.141-1.569-0.768-2.222c-0.658-0.688-1.469-1.032-2.436-1.032c-1.266,0-2.313,0.671-3.145,2.011
		c-0.83,1.358-1.145,2.901-0.941,4.63C451.43-418.96,453.236-419.33,454.521-420.036z"/>
</g>
<path fill="#505050" d="M25,2H0V0h25V2z M25,6H0v2h25V6z M25,12H10v2h15V12z"/>
</svg>
