<svg xmlns="http://www.w3.org/2000/svg" width="25" height="14"><path d="M341.807-432.668v18.968c0 2.037-.633 3.682-1.898 4.934-1.15 1.138-2.527 1.707-4.131 1.707-1.342 0-2.477-.424-3.404-1.271l.738-.688c.734.67 1.566 1.005 2.494 1.005 1.129 0 2.082-.467 2.854-1.401.85-1.05 1.275-2.479 1.275-4.286v-18.968h2.072zm15.043 6.64v12.249h-2.088v-1.297c-1.266 1.19-2.844 1.786-4.738 1.786-1.584 0-2.84-.472-3.768-1.415-.947-.935-1.426-2.179-1.434-3.73v-7.593h2.086v7.593c0 1.103.285 2.02.855 2.751.512.688 1.207 1.125 2.086 1.31.83.177 1.682.084 2.551-.277.928-.379 1.715-1.01 2.361-1.892v-9.484h2.089zm5.867 4.365c.34.177.783.375 1.334.595l.783.291.797.278c1.344.503 2.313.961 2.912 1.376.869.635 1.305 1.384 1.305 2.248 0 1.05-.564 1.918-1.695 2.606-1.15.688-2.574 1.031-4.275 1.031-.813 0-1.652-.172-2.521-.516-.984-.397-1.748-.913-2.289-1.548l.84-.595c.531.652 1.242 1.124 2.131 1.415.83.273 1.691.361 2.578.265.871-.088 1.584-.34 2.146-.754.588-.468.883-1.045.883-1.733 0-.537-.443-1.045-1.334-1.521a20.419 20.419 0 0 0-1.332-.622l-.768-.304-.813-.291c-1.324-.521-2.289-1.01-2.898-1.469-.869-.652-1.309-1.411-1.318-2.275 0-.899.439-1.657 1.318-2.274.986-.706 2.357-1.059 4.115-1.059.813 0 1.662.181 2.551.542.967.397 1.721.913 2.262 1.548l-.797.596c-.475-.538-1.117-.971-1.928-1.297a6.508 6.508 0 0 0-2.406-.41c-.85 0-1.535.182-2.057.543-.57.396-.855.947-.855 1.653-.001.636.442 1.196 1.331 1.681zm12.58-3.413v5.688c0 1.622.371 2.976 1.117 4.061.752 1.085 1.693 1.627 2.824 1.627v.952c-1.721 0-3.154-.635-4.303-1.904-1.15-1.261-1.725-2.84-1.725-4.735v-5.688h-2.609v-.952c1.361 0 2.295-.233 2.797-.701.57-.521.855-1.552.855-3.095h1.043v3.796h3.941v.952h-3.94zm25.359 9.881l.74.688c-.947.847-2.098 1.27-3.449 1.27-1.941 0-3.484-.688-4.623-2.063-1.023-1.243-1.541-2.769-1.551-4.576 0-1.79.518-3.308 1.551-4.551 1.148-1.394 2.691-2.09 4.623-2.09 1.342 0 2.492.437 3.449 1.31l-.74.675c-.734-.688-1.637-1.032-2.709-1.032-1.285 0-2.314.596-3.088 1.786-.676 1.066-1.01 2.367-1 3.902-.02 1.552.314 2.861 1 3.928.773 1.173 1.803 1.76 3.088 1.76 1.073-.001 1.975-.336 2.709-1.007zm9.811-10.912c.242.088.479.207.711.357l.26.158.275.159-1.072 1.19c-1.168-1.341-2.416-1.68-3.738-1.019-1.285.635-1.928 1.781-1.928 3.438v8.122h-2.088v-12.328h2.088v1.085c.83-1.05 1.908-1.574 3.23-1.574.852.019 1.606.156 2.262.412zm10.941.899c.967.812 1.371 1.759 1.217 2.844-.154 1.173-.936 2.147-2.348 2.924-1.662.899-3.936 1.384-6.824 1.454.299 1.12.801 2.033 1.506 2.738.717.706 1.518 1.059 2.406 1.059 1.072 0 1.975-.335 2.711-1.006l.738.688c-.947.847-2.098 1.27-3.449 1.27-1.941 0-3.484-.688-4.623-2.063-1.023-1.243-1.541-2.769-1.551-4.576 0-1.79.518-3.308 1.551-4.551 1.15-1.394 2.691-2.09 4.623-2.09 1.672.008 3.02.445 4.043 1.309zm-2.709 5.172c1.09-.6 1.715-1.357 1.869-2.275.115-.828-.141-1.569-.77-2.222-.656-.688-1.467-1.032-2.434-1.032-1.266 0-2.314.671-3.145 2.011-.832 1.358-1.145 2.901-.941 4.63 2.327-.036 4.136-.406 5.421-1.112zm15.608-5.119c1.225.979 1.84 2.205 1.84 3.678v7.698h-2.088v-1.297c-1.324 1.244-2.807 1.83-4.449 1.76-1.604.053-2.898-.247-3.883-.899-1.072-.724-1.607-1.733-1.607-3.029 0-1.772 1.109-3.047 3.332-3.823 1.604-.537 3.797-.828 6.578-.872-.154-2.081-1.135-3.272-2.941-3.572-1.738-.291-3.42.305-5.043 1.786l-.738-.675c1.525-1.41 3.227-2.116 5.1-2.116 1.469.007 2.768.461 3.899 1.361zm-7.248 9.933c.553.503 1.252.803 2.102.899a4.894 4.894 0 0 0 2.58-.383 5.588 5.588 0 0 0 2.318-1.839v-4.444c-2.529.035-4.381.269-5.549.701-1.547.582-2.314 1.596-2.305 3.042 0 .812.285 1.487.854 2.024zm15.32-9.854v5.688c0 1.622.371 2.976 1.115 4.061.754 1.085 1.695 1.627 2.826 1.627v.952c-1.721 0-3.156-.635-4.305-1.904-1.15-1.261-1.725-2.84-1.725-4.735v-5.688h-2.609v-.952c1.363 0 2.295-.233 2.797-.701.57-.521.855-1.552.855-3.095h1.045v3.796h3.941v.952h-3.94zm14.851-.132c.967.812 1.373 1.759 1.219 2.844-.156 1.173-.938 2.147-2.35 2.924-1.66.899-3.936 1.384-6.824 1.454.301 1.12.801 2.033 1.506 2.738.717.706 1.518 1.059 2.406 1.059 1.072 0 1.977-.335 2.711-1.006l.738.688c-.945.847-2.096 1.27-3.449 1.27-1.941 0-3.482-.688-4.623-2.063-1.023-1.243-1.539-2.769-1.549-4.576 0-1.79.516-3.308 1.549-4.551 1.15-1.394 2.691-2.09 4.623-2.09 1.672.008 3.02.445 4.043 1.309zm-2.709 5.172c1.092-.6 1.715-1.357 1.869-2.275.117-.828-.141-1.569-.768-2.222-.658-.688-1.469-1.032-2.436-1.032-1.266 0-2.313.671-3.145 2.011-.83 1.358-1.145 2.901-.941 4.63 2.33-.036 4.136-.406 5.421-1.112zM25 2H0V0h25v2zm0 4H0v2h25V6zm0 6H10v2h15v-2z" fill="#00E3D1"/></svg>