<svg xmlns="http://www.w3.org/2000/svg" width="38" height="40" viewBox="-66.64 611.945 38 40"><linearGradient id="a" gradientUnits="userSpaceOnUse" x1="-47.102" y1="652.411" x2="-47.102" y2="611.36" gradientTransform="matrix(.9991 0 0 -.9991 -.062 1262.907)"><stop offset="0" stop-color="#00efd1"/><stop offset="1" stop-color="#00acea"/></linearGradient><path fill="url(#a)" d="M-39.2 622.171c-.353-.353-.755-.701-1.1-1.009v-1.575a4.382 4.382 0 0 1 8 2.484c0 .385.308.699.691.706h.001a.743.743 0 0 0 .72-.721v-.001c0-5.574-4.534-10.109-10.085-10.109a.708.708 0 0 0-.709.692v7.534c-5.441-3.439-12.782-2.779-17.536 1.981-5.518 5.528-5.517 14.522.002 20.051 5.521 5.538 14.476 5.554 20.018.035h-.001c5.519-5.536 5.517-14.54-.001-20.068zm-1.1-8.814a8.604 8.604 0 0 1 6.391 3.647 5.716 5.716 0 0 0-4.084-.561 5.905 5.905 0 0 0-2.307 1.123v-4.209zm.126 27.867c-4.98 4.988-13.083 4.988-18.063 0-4.979-4.988-4.98-13.105 0-18.093a12.77 12.77 0 0 1 16.556-1.289v2.19a3.454 3.454 0 0 0-4.291.11 3.467 3.467 0 0 0-.878 4.208 3.457 3.457 0 0 0 6.551-1.551v-3.787c.086.039.083.078.123.118 4.979 4.989 4.982 13.106.002 18.094zm-1.502-14.423a2.08 2.08 0 0 1-2.077 2.082c-1.147 0-2.078-.932-2.078-2.081s.93-2.081 2.078-2.081a2.082 2.082 0 0 1 2.077 2.08z"/><linearGradient id="b" gradientUnits="userSpaceOnUse" x1="-44.837" y1="652.41" x2="-44.837" y2="611.361" gradientTransform="matrix(.9991 0 0 -.9991 -.062 1262.907)"><stop offset="0" stop-color="#00efd1"/><stop offset="1" stop-color="#00acea"/></linearGradient><path fill="url(#b)" d="M-49.206 640.193a.692.692 0 0 0 0 1.383c5.18-.006 9.378-4.211 9.384-9.399a.692.692 0 0 0-1.382 0c-.005 4.425-3.585 8.011-8.002 8.016z"/><linearGradient id="c" gradientUnits="userSpaceOnUse" x1="-53.538" y1="652.412" x2="-53.538" y2="611.359" gradientTransform="matrix(.9991 0 0 -.9991 -.062 1262.907)"><stop offset="0" stop-color="#00efd1"/><stop offset="1" stop-color="#00acea"/></linearGradient><path fill="url(#c)" d="M-49.206 624.163a.691.691 0 0 0 0-1.384c-5.18.006-9.377 4.21-9.383 9.399a.691.691 0 1 0 1.381 0c.005-4.425 3.585-8.01 8.002-8.015z"/><linearGradient id="d" gradientUnits="userSpaceOnUse" x1="-46.413" y1="652.411" x2="-46.413" y2="611.36" gradientTransform="matrix(.9991 0 0 -.9991 -.062 1262.907)"><stop offset="0" stop-color="#00efd1"/><stop offset="1" stop-color="#00acea"/></linearGradient><path fill="url(#d)" d="M-49.897 637.732c0 .382.31.692.691.692a6.248 6.248 0 0 0 6.236-6.246.691.691 0 1 0-1.382 0 4.864 4.864 0 0 1-4.854 4.862.693.693 0 0 0-.691.692z"/><linearGradient id="e" gradientUnits="userSpaceOnUse" x1="-51.963" y1="652.411" x2="-51.963" y2="611.36" gradientTransform="matrix(.9991 0 0 -.9991 -.062 1262.907)"><stop offset="0" stop-color="#00efd1"/><stop offset="1" stop-color="#00acea"/></linearGradient><path fill="url(#e)" d="M-48.515 626.624a.691.691 0 0 0-.691-.692 6.248 6.248 0 0 0-6.236 6.246.692.692 0 0 0 1.382 0 4.863 4.863 0 0 1 4.854-4.862c.382 0 .691-.31.691-.692z"/><linearGradient id="f" gradientUnits="userSpaceOnUse" x1="-54.863" y1="652.411" x2="-54.863" y2="611.361" gradientTransform="matrix(.9991 0 0 -.9991 -.062 1262.907)"><stop offset="0" stop-color="#00efd1"/><stop offset="1" stop-color="#00acea"/></linearGradient><path fill="url(#f)" d="M-49.206 621.511a.691.691 0 0 0 0-1.384c-6.634 0-12.031 5.406-12.031 12.051a.691.691 0 1 0 1.381 0c.007-5.888 4.772-10.66 10.65-10.667z"/><linearGradient id="g" gradientUnits="userSpaceOnUse" x1="-43.513" y1="652.412" x2="-43.513" y2="611.36" gradientTransform="matrix(.9991 0 0 -.9991 -.062 1262.907)"><stop offset="0" stop-color="#00efd1"/><stop offset="1" stop-color="#00acea"/></linearGradient><path fill="url(#g)" d="M-37.866 631.486a.691.691 0 0 0-.691.692c-.007 5.888-4.771 10.66-10.649 10.667a.693.693 0 0 0 0 1.384c6.634 0 12.031-5.406 12.031-12.051a.691.691 0 0 0-.691-.692z"/><linearGradient id="h" gradientUnits="userSpaceOnUse" x1="-49.188" y1="652.411" x2="-49.188" y2="611.361" gradientTransform="matrix(.9991 0 0 -.9991 -.062 1262.907)"><stop offset="0" stop-color="#00efd1"/><stop offset="1" stop-color="#00acea"/></linearGradient><path fill="url(#h)" d="M-46.287 632.178a2.922 2.922 0 0 0-2.919-2.924c-1.612 0-2.919 1.309-2.919 2.924s1.307 2.923 2.919 2.923a2.924 2.924 0 0 0 2.919-2.923zm-4.456 0a1.538 1.538 0 0 1 3.075 0 1.537 1.537 0 1 1-3.075 0z"/><linearGradient id="i" gradientUnits="userSpaceOnUse" x1="-64.091" y1="652.416" x2="-64.091" y2="611.359" gradientTransform="matrix(.9991 0 0 -.9991 -.062 1262.907)"><stop offset="0" stop-color="#00efd1"/><stop offset="1" stop-color="#00acea"/></linearGradient><path fill="url(#i)" d="M-62.257 645.251a.689.689 0 0 0-.977 0l-.86.861-.859-.861a.692.692 0 1 0-.977.978l.859.861-.859.86a.693.693 0 0 0 .307 1.164.69.69 0 0 0 .67-.185l.859-.861.86.861a.69.69 0 0 0 .971-.006.693.693 0 0 0 .005-.974l-.859-.86.859-.861a.691.691 0 0 0 .001-.977z"/><linearGradient id="j" gradientUnits="userSpaceOnUse" x1="-33.079" y1="652.414" x2="-33.079" y2="611.36" gradientTransform="matrix(.9991 0 0 -.9991 -.062 1262.907)"><stop offset="0" stop-color="#00efd1"/><stop offset="1" stop-color="#00acea"/></linearGradient><path fill="url(#j)" d="M-29.231 646.102l-2.252-.329-1.008-2.052a.69.69 0 0 0-1.24 0l-1.007 2.052-2.252.329a.692.692 0 0 0-.384 1.18l1.631 1.598-.385 2.257a.696.696 0 0 0 .275.678.695.695 0 0 0 .729.052l2.013-1.064 2.014 1.064a.693.693 0 0 0 1.004-.73l-.386-2.257 1.632-1.598a.692.692 0 0 0-.384-1.18zm-2.473 2.041a.692.692 0 0 0-.197.611l.209 1.231-1.097-.58a.694.694 0 0 0-.645 0l-1.097.58.21-1.231a.691.691 0 0 0-.198-.611l-.892-.873 1.23-.18a.69.69 0 0 0 .521-.38l.548-1.115.548 1.115a.69.69 0 0 0 .521.38l1.23.18-.891.873z"/><linearGradient id="k" gradientUnits="userSpaceOnUse" x1="-64.044" y1="652.41" x2="-64.044" y2="611.363" gradientTransform="matrix(.9991 0 0 -.9991 -.062 1262.907)"><stop offset="0" stop-color="#00efd1"/><stop offset="1" stop-color="#00acea"/></linearGradient><path fill="url(#k)" d="M-64.74 617.153v1.211a.691.691 0 1 0 1.382 0v-1.211h1.209a.692.692 0 0 0 0-1.383h-1.209v-1.211a.692.692 0 0 0-1.382 0v1.211h-1.209a.691.691 0 0 0 0 1.383h1.209z"/></svg>