<?xml version="1.0" encoding="utf-8"?>
<!-- Generator: Adobe Illustrator 14.0.0, SVG Export Plug-In . SVG Version: 6.00 Build 43363)  -->
<!DOCTYPE svg PUBLIC "-//W3C//DTD SVG 1.1//EN" "http://www.w3.org/Graphics/SVG/1.1/DTD/svg11.dtd">
<svg version="1.1" id="Layer_1" xmlns="http://www.w3.org/2000/svg" xmlns:xlink="http://www.w3.org/1999/xlink" x="0px" y="0px"
	 width="38px" height="40px" viewBox="-66.64 611.945 38 40" enable-background="new -66.64 611.945 38 40" xml:space="preserve">
<g>
	<path fill="#D7D7D7" d="M-39.2,622.171c-0.353-0.353-0.755-0.701-1.1-1.009v-1.575c1.325-1.938,3.938-2.489,5.932-1.25
		c1.288,0.802,2.071,2.214,2.068,3.734c0,0.385,0.308,0.699,0.691,0.706h0.001c0.393-0.012,0.708-0.328,0.72-0.721v-0.001
		c0-5.574-4.534-10.109-10.085-10.109c-0.385-0.001-0.701,0.307-0.709,0.692v7.534c-5.441-3.439-12.782-2.779-17.536,1.981
		c-5.518,5.528-5.517,14.522,0.002,20.051c5.521,5.538,14.476,5.554,20.018,0.035h-0.001
		C-33.68,636.703-33.682,627.699-39.2,622.171z M-40.3,613.357c2.568,0.197,4.913,1.535,6.391,3.647
		c-1.245-0.688-2.7-0.889-4.084-0.561c-0.842,0.201-1.63,0.584-2.307,1.123V613.357z M-40.174,641.224
		c-4.98,4.988-13.083,4.988-18.063,0c-4.979-4.988-4.98-13.105,0-18.093c4.451-4.449,11.472-4.996,16.556-1.289v2.19
		c-1.283-0.964-3.06-0.919-4.291,0.11c-1.232,1.029-1.595,2.771-0.878,4.208s2.327,2.191,3.888,1.822
		c1.561-0.37,2.663-1.766,2.663-3.373v-3.787c0.086,0.039,0.083,0.078,0.123,0.118C-35.197,628.119-35.194,636.236-40.174,641.224z
		 M-41.676,626.801c0,1.149-0.93,2.081-2.077,2.082c-1.147,0-2.078-0.932-2.078-2.081s0.93-2.081,2.078-2.081
		C-42.607,624.722-41.678,625.653-41.676,626.801z"/>
	<path fill="#D7D7D7" d="M-49.206,640.193c-0.381,0-0.691,0.31-0.691,0.692c0,0.382,0.31,0.691,0.691,0.691
		c5.18-0.006,9.378-4.211,9.384-9.399c0-0.382-0.31-0.692-0.691-0.692c-0.382,0-0.691,0.31-0.691,0.692
		C-41.209,636.602-44.789,640.188-49.206,640.193z"/>
	<path fill="#D7D7D7" d="M-49.206,624.163c0.382,0,0.691-0.31,0.691-0.692c0-0.382-0.309-0.692-0.691-0.692
		c-5.18,0.006-9.377,4.21-9.383,9.399c0,0.382,0.309,0.692,0.691,0.692c0.381,0,0.69-0.31,0.69-0.692
		C-57.203,627.753-53.623,624.168-49.206,624.163z"/>
	<path fill="#D7D7D7" d="M-49.897,637.732c0,0.382,0.31,0.692,0.691,0.692c3.443-0.004,6.232-2.799,6.236-6.246
		c0-0.383-0.31-0.692-0.691-0.692s-0.691,0.31-0.691,0.692c-0.003,2.684-2.175,4.859-4.854,4.862
		C-49.587,637.041-49.897,637.35-49.897,637.732z"/>
	<path fill="#D7D7D7" d="M-48.515,626.624c0-0.382-0.309-0.692-0.691-0.692c-3.442,0.004-6.232,2.798-6.236,6.246
		c0,0.382,0.31,0.692,0.691,0.692c0.382,0,0.691-0.31,0.691-0.692c0.003-2.684,2.174-4.859,4.854-4.862
		C-48.824,627.316-48.515,627.006-48.515,626.624z"/>
	<path fill="#D7D7D7" d="M-49.206,621.511c0.382,0,0.691-0.31,0.691-0.692s-0.309-0.692-0.691-0.692
		c-6.634,0-12.031,5.406-12.031,12.051c0,0.382,0.309,0.692,0.691,0.692c0.381,0,0.69-0.31,0.69-0.692
		C-59.849,626.29-55.084,621.518-49.206,621.511z"/>
	<path fill="#D7D7D7" d="M-37.866,631.486c-0.382,0-0.691,0.31-0.691,0.692c-0.007,5.888-4.771,10.66-10.649,10.667
		c-0.381,0-0.691,0.311-0.691,0.692s0.31,0.692,0.691,0.692c6.634,0,12.031-5.406,12.031-12.051
		C-37.175,631.796-37.484,631.486-37.866,631.486z"/>
	<path fill="#D7D7D7" d="M-46.287,632.178c0-1.615-1.307-2.924-2.919-2.924c-1.612,0-2.919,1.309-2.919,2.924
		s1.307,2.923,2.919,2.923C-47.595,635.099-46.289,633.792-46.287,632.178z M-50.743,632.178c0-0.85,0.688-1.54,1.538-1.54
		c0.849,0,1.537,0.689,1.537,1.54c0,0.851-0.688,1.539-1.538,1.539C-50.054,633.717-50.742,633.028-50.743,632.178z"/>
	<path fill="#D7D7D7" d="M-62.257,645.251c-0.27-0.271-0.707-0.271-0.977,0l-0.86,0.861l-0.859-0.861
		c-0.174-0.178-0.43-0.249-0.67-0.186c-0.24,0.063-0.428,0.252-0.492,0.493c-0.063,0.24,0.007,0.497,0.185,0.671l0.859,0.861
		l-0.859,0.86c-0.178,0.174-0.248,0.431-0.185,0.671c0.063,0.242,0.251,0.43,0.492,0.493c0.241,0.063,0.497-0.007,0.67-0.185
		l0.859-0.861l0.86,0.861c0.271,0.265,0.704,0.262,0.971-0.006c0.268-0.269,0.27-0.702,0.005-0.974l-0.859-0.86l0.859-0.861
		C-61.988,645.96-61.988,645.521-62.257,645.251z"/>
	<path fill="#D7D7D7" d="M-29.231,646.102l-2.252-0.329l-1.008-2.052c-0.116-0.237-0.356-0.387-0.62-0.387
		c-0.263,0-0.503,0.149-0.62,0.387l-1.007,2.052l-2.252,0.329c-0.26,0.038-0.476,0.22-0.558,0.471
		c-0.081,0.25-0.014,0.525,0.174,0.709l1.631,1.598l-0.385,2.257c-0.045,0.26,0.063,0.522,0.275,0.678
		c0.213,0.154,0.495,0.174,0.729,0.052l2.013-1.064l2.014,1.064c0.233,0.122,0.516,0.103,0.729-0.052
		c0.213-0.155,0.319-0.418,0.275-0.678l-0.386-2.257l1.632-1.598c0.188-0.184,0.255-0.459,0.174-0.708
		C-28.756,646.323-28.972,646.141-29.231,646.102L-29.231,646.102z M-31.704,648.143c-0.162,0.16-0.236,0.388-0.197,0.611
		l0.209,1.231l-1.097-0.58c-0.201-0.106-0.442-0.106-0.645,0l-1.097,0.58l0.21-1.231c0.038-0.224-0.035-0.451-0.198-0.611
		l-0.892-0.873l1.23-0.18c0.226-0.032,0.42-0.175,0.521-0.38l0.548-1.115l0.548,1.115c0.101,0.205,0.295,0.348,0.521,0.38l1.23,0.18
		L-31.704,648.143z"/>
	<path fill="#D7D7D7" d="M-64.74,617.153v1.211c0,0.382,0.309,0.692,0.691,0.692c0.381,0,0.691-0.31,0.691-0.692v-1.211h1.209
		c0.381,0,0.691-0.31,0.691-0.691c0-0.383-0.31-0.692-0.691-0.692h-1.209v-1.211c0-0.382-0.31-0.692-0.691-0.692
		c-0.382,0-0.691,0.31-0.691,0.692v1.211h-1.209c-0.382,0-0.691,0.31-0.691,0.692c0,0.382,0.309,0.691,0.691,0.691H-64.74z"/>
</g>
</svg>
