<svg xmlns="http://www.w3.org/2000/svg" width="26" height="38" viewBox="0.006 0 26 38"><linearGradient id="a" gradientUnits="userSpaceOnUse" x1="13.002" y1="506.605" x2="13.002" y2="470.98" gradientTransform="matrix(1 0 0 -1 .042 507.945)"><stop offset="0" stop-color="#00efd1"/><stop offset="1" stop-color="#00acea"/></linearGradient><path fill="url(#a)" d="M23.151 7.332a.6.6 0 0 0-.601-.599H3.538a.6.6 0 0 0-.601.599v20.121a.6.6 0 0 0 .601.599H22.55a.6.6 0 0 0 .601-.599V7.332zm-10.822 4.637a.826.826 0 0 1-.827-.823c0-.454.371-.822.827-.822h2.938a2.225 2.225 0 0 1 2.171 1.646h-5.109zm-2.002-.507a2.02 2.02 0 0 0 .872 1.355 3.31 3.31 0 0 1-1.849.834 3.57 3.57 0 0 1 .977-2.189zm-1.003 3.39c.827-.058 2.104-.339 3.21-1.686h3.929v3.584a3.643 3.643 0 0 1-1.038 2.564 3.486 3.486 0 0 1-5.043 0 3.658 3.658 0 0 1-1.058-2.564v-1.898zm10.22 11.928h-6.012v-3.273l1.877-1.14h1.888a2.244 2.244 0 0 1 1.588.65c.421.418.659.986.659 1.579v2.184zm-6.621-5.191a4.98 4.98 0 0 0 1.737-.328v.162l-1.699 1.042-1.607-1.033v-.108a4.922 4.922 0 0 0 1.569.265zm-2.338.778l1.745 1.132v3.281H6.469v-2.185c0-.592.237-1.16.659-1.579a2.244 2.244 0 0 1 1.588-.65h1.869zm11.364 4.413h-1.203v-2.185c0-.91-.364-1.782-1.011-2.424a3.446 3.446 0 0 0-2.438-1.001h-1.436v-.605c.15-.127.29-.266.436-.416a4.81 4.81 0 0 0 1.367-3.399v-3.584h.457a.6.6 0 0 0 .601-.599 3.451 3.451 0 0 0-3.455-3.44h-2.938a2.052 2.052 0 0 0-1.161.357 4.786 4.786 0 0 0-3.046 4.427v2.839a4.84 4.84 0 0 0 2.029 3.941v.479H8.715a3.448 3.448 0 0 0-2.438 1.001 3.418 3.418 0 0 0-1.011 2.424v2.185H4.14V7.93h17.809v18.85z"/><linearGradient id="b" gradientUnits="userSpaceOnUse" x1="12.965" y1="506.606" x2="12.965" y2="470.979" gradientTransform="matrix(1 0 0 -1 .042 507.945)"><stop offset="0" stop-color="#00efd1"/><stop offset="1" stop-color="#00acea"/></linearGradient><path fill="url(#b)" d="M22.16 2.768h-5.096V.565a.54.54 0 0 0-.569-.564H9.518a.546.546 0 0 0-.569.564v2.203H3.853C1.732 2.768.006 4.509.006 6.62v27.585c.002 1.011.41 1.981 1.132 2.693S2.836 38.007 3.853 38H22.16a3.832 3.832 0 0 0 2.715-1.102 3.799 3.799 0 0 0 1.132-2.693V6.62c-.001-2.111-1.726-3.852-3.847-3.852zm-12.009-1.57h5.711v3.366h-5.711V1.198zm14.653 33.007a2.603 2.603 0 0 1-.779 1.847 2.62 2.62 0 0 1-1.865.751H3.853a2.622 2.622 0 0 1-1.865-.751 2.602 2.602 0 0 1-.78-1.847V6.62c0-1.451 1.187-2.654 2.645-2.654h5.096v1.161c0 .33.237.634.569.634h6.978c.332 0 .569-.304.569-.634V3.966h5.096c1.458 0 2.645 1.203 2.645 2.654v27.585z"/><linearGradient id="c" gradientUnits="userSpaceOnUse" x1="12.965" y1="506.592" x2="12.965" y2="470.981" gradientTransform="matrix(1 0 0 -1 .042 507.945)"><stop offset="0" stop-color="#00efd1"/><stop offset="1" stop-color="#00acea"/></linearGradient><path fill="url(#c)" d="M21.483 32.615H4.53a.6.6 0 0 0 0 1.197h16.953a.6.6 0 1 0 0-1.197z"/><linearGradient id="d" gradientUnits="userSpaceOnUse" x1="12.965" y1="506.617" x2="12.965" y2="470.976" gradientTransform="matrix(1 0 0 -1 .042 507.945)"><stop offset="0" stop-color="#00efd1"/><stop offset="1" stop-color="#00acea"/></linearGradient><path fill="url(#d)" d="M18.297 30.595a.6.6 0 0 0 .602-.598.6.6 0 0 0-.602-.599H7.716a.6.6 0 0 0-.602.599.6.6 0 0 0 .602.598h10.581z"/><linearGradient id="e" gradientUnits="userSpaceOnUse" x1="11.093" y1="506.6" x2="11.093" y2="470.987" gradientTransform="matrix(1 0 0 -1 .042 507.945)"><stop offset="0" stop-color="#00efd1"/><stop offset="1" stop-color="#00acea"/></linearGradient><path fill="url(#e)" d="M12.449 15.94c0-.33-.269-.598-.601-.598s-.602.268-.602.598a.112.112 0 1 1-.224 0 .6.6 0 0 0-1.202 0c0 .723.588 1.309 1.314 1.309a1.313 1.313 0 0 0 1.315-1.309z"/><linearGradient id="f" gradientUnits="userSpaceOnUse" x1="14.659" y1="506.6" x2="14.659" y2="470.987" gradientTransform="matrix(1 0 0 -1 .042 507.945)"><stop offset="0" stop-color="#00efd1"/><stop offset="1" stop-color="#00acea"/></linearGradient><path fill="url(#f)" d="M14.7 17.248a1.313 1.313 0 0 0 1.314-1.309c0-.33-.27-.598-.602-.598s-.601.268-.601.598a.11.11 0 0 1-.055.099c-.035.021-.078.021-.113 0s-.057-.058-.055-.099a.6.6 0 0 0-.601-.598.6.6 0 0 0-.602.598c.002.723.59 1.308 1.315 1.309z"/></svg>