<?xml version="1.0" encoding="utf-8"?>
<!-- Generator: Adobe Illustrator 14.0.0, SVG Export Plug-In . SVG Version: 6.00 Build 43363)  -->
<!DOCTYPE svg PUBLIC "-//W3C//DTD SVG 1.1//EN" "http://www.w3.org/Graphics/SVG/1.1/DTD/svg11.dtd">
<svg version="1.1" id="Layer_1" xmlns="http://www.w3.org/2000/svg" xmlns:xlink="http://www.w3.org/1999/xlink" x="0px" y="0px"
	 width="26px" height="38px" viewBox="0.006 0 26 38" enable-background="new 0.006 0 26 38" xml:space="preserve">
<g>
	<path fill="#C4C4C4" d="M23.151,7.332c0-0.331-0.269-0.599-0.601-0.599H3.538c-0.332,0-0.601,0.268-0.601,0.599v20.121
		c0,0.331,0.269,0.599,0.601,0.599H22.55c0.332,0,0.601-0.268,0.601-0.599V7.332z M12.329,11.969c-0.456,0-0.827-0.369-0.827-0.823
		c0-0.454,0.371-0.822,0.827-0.822h2.938c1.016-0.009,1.909,0.668,2.171,1.646H12.329z M10.327,11.462
		c0.09,0.552,0.405,1.043,0.872,1.355c-0.513,0.464-1.159,0.756-1.849,0.834C9.413,12.832,9.758,12.059,10.327,11.462z
		 M9.324,14.852c0.827-0.058,2.104-0.339,3.21-1.686h3.929v3.584c0.005,0.957-0.368,1.878-1.038,2.564
		c-0.657,0.688-1.568,1.078-2.521,1.078c-0.954,0-1.865-0.39-2.522-1.078C9.706,18.63,9.326,17.71,9.324,16.75V14.852z
		 M19.544,26.78h-6.012v-3.273l1.877-1.14h1.888c0.595-0.002,1.167,0.232,1.588,0.65c0.421,0.418,0.659,0.986,0.659,1.579V26.78z
		 M12.923,21.589c0.594-0.005,1.183-0.116,1.737-0.328v0.162l-1.699,1.042l-1.607-1.033v-0.108
		C11.858,21.497,12.389,21.586,12.923,21.589z M10.585,22.367l1.745,1.132v3.281H6.469v-2.185c0-0.592,0.237-1.16,0.659-1.579
		c0.421-0.418,0.993-0.652,1.588-0.65H10.585z M21.949,26.78h-1.203v-2.185c0-0.91-0.364-1.782-1.011-2.424
		c-0.646-0.643-1.524-1.003-2.438-1.001h-1.436v-0.605c0.15-0.127,0.29-0.266,0.436-0.416c0.887-0.91,1.378-2.131,1.367-3.399
		v-3.584h0.457c0.332,0,0.601-0.269,0.601-0.599c-0.002-1.899-1.548-3.438-3.455-3.44h-2.938c-0.415-0.001-0.819,0.124-1.161,0.357
		c-1.829,0.717-3.036,2.471-3.046,4.427v2.839c0,1.271,0.501,2.492,1.396,3.399c0.195,0.199,0.407,0.381,0.633,0.542v0.479H8.715
		c-0.914-0.002-1.791,0.358-2.438,1.001c-0.647,0.643-1.011,1.515-1.011,2.424v2.185H4.14V7.93h17.809V26.78z"/>
	<g>
		<path fill="#C4C4C4" d="M22.16,2.768h-5.096V0.565c0.006-0.152-0.052-0.299-0.16-0.406c-0.108-0.107-0.256-0.165-0.409-0.158
			H9.518C9.365-0.006,9.217,0.052,9.109,0.159C9,0.266,8.943,0.413,8.949,0.565v2.203H3.853c-2.121,0-3.847,1.741-3.847,3.852
			v27.585c0.002,1.011,0.41,1.981,1.132,2.693S2.836,38.007,3.853,38H22.16c1.016,0.006,1.994-0.39,2.715-1.102
			c0.722-0.712,1.129-1.682,1.132-2.693V6.62C26.006,4.509,24.281,2.768,22.16,2.768z M10.151,1.198h5.711v3.366h-5.711V1.198z
			 M24.804,34.205c-0.002,0.694-0.283,1.359-0.779,1.847c-0.496,0.488-1.167,0.758-1.865,0.751H3.853
			c-0.697,0.007-1.369-0.263-1.865-0.751c-0.497-0.488-0.777-1.152-0.78-1.847V6.62c0-1.451,1.187-2.654,2.645-2.654h5.096v1.161
			c0,0.33,0.237,0.634,0.569,0.634h6.978c0.332,0,0.569-0.304,0.569-0.634V3.966h5.096c1.458,0,2.645,1.203,2.645,2.654V34.205z"/>
		<path fill="#C4C4C4" d="M21.483,32.615H4.53c-0.332,0-0.601,0.268-0.601,0.599c0,0.33,0.269,0.598,0.601,0.598h16.953
			c0.332,0,0.601-0.268,0.601-0.598C22.084,32.883,21.815,32.615,21.483,32.615z"/>
		<path fill="#C4C4C4" d="M18.297,30.595c0.332,0,0.602-0.268,0.602-0.598c0-0.331-0.27-0.599-0.602-0.599H7.716
			c-0.332,0-0.602,0.268-0.602,0.599c0,0.33,0.27,0.598,0.602,0.598H18.297z"/>
	</g>
	<path fill="#C4C4C4" d="M12.449,15.94c0-0.33-0.269-0.598-0.601-0.598s-0.602,0.268-0.602,0.598c0,0.062-0.05,0.112-0.112,0.112
		c-0.062,0-0.112-0.05-0.112-0.112c0-0.33-0.27-0.598-0.601-0.598c-0.332,0-0.601,0.268-0.601,0.598
		c0,0.723,0.588,1.309,1.314,1.309C11.86,17.248,12.449,16.662,12.449,15.94z"/>
	<path fill="#C4C4C4" d="M14.7,17.248c0.726-0.001,1.313-0.586,1.314-1.309c0-0.33-0.27-0.598-0.602-0.598s-0.601,0.268-0.601,0.598
		c0.001,0.041-0.02,0.079-0.055,0.099c-0.035,0.021-0.078,0.021-0.113,0s-0.057-0.058-0.055-0.099c0-0.33-0.269-0.598-0.601-0.598
		c-0.332,0-0.602,0.268-0.602,0.598C13.387,16.662,13.975,17.247,14.7,17.248z"/>
</g>
</svg>
