<?xml version="1.0" encoding="utf-8"?>
<!-- Generator: Adobe Illustrator 14.0.0, SVG Export Plug-In . SVG Version: 6.00 Build 43363)  -->
<!DOCTYPE svg PUBLIC "-//W3C//DTD SVG 1.1//EN" "http://www.w3.org/Graphics/SVG/1.1/DTD/svg11.dtd">
<svg version="1.1" id="Layer_1" xmlns="http://www.w3.org/2000/svg" xmlns:xlink="http://www.w3.org/1999/xlink" x="0px" y="0px"
	 width="23px" height="24px" viewBox="219.5 235.5 23 24" enable-background="new 219.5 235.5 23 24" xml:space="preserve">
<linearGradient id="SVGID_1_" gradientUnits="userSpaceOnUse" x1="508.3752" y1="115.1074" x2="508.3752" y2="85.4664" gradientTransform="matrix(0.9987 0 0 -0.9987 -276.6909 344.3441)">
	<stop  offset="0" style="stop-color:#00EFD1"/>
	<stop  offset="1" style="stop-color:#00ACEA"/>
</linearGradient>
<path fill="url(#SVGID_1_)" d="M237.827,248.495c-0.322-0.336-0.76-0.525-1.216-0.521c-0.456,0.002-0.891,0.195-1.21,0.535
	l-0.884,0.944c-0.496,0.533-0.625,1.33-0.323,2.002l-0.862,0.899c-0.134,0.143-0.317,0.224-0.509,0.225
	c-0.192,0-0.376-0.079-0.511-0.221l-5.974-6.235c-0.011-0.011-0.022-0.023-0.033-0.036c-0.247-0.298-0.23-0.744,0.037-1.021
	l0.852-0.889c0.655,0.335,1.442,0.199,1.959-0.338l0.901-0.94c0.666-0.696,0.666-1.823,0-2.519l-4.176-4.358
	c-0.666-0.695-1.746-0.695-2.412,0l-0.901,0.941c-0.625,0.653-0.668,1.696-0.1,2.403l-1.645,1.717c-1.76,1.838-1.76,4.817,0,6.654
	l9.95,10.386c1.76,1.837,4.614,1.837,6.375,0l1.65-1.714c0.309,0.284,0.706,0.442,1.117,0.444h0.01
	c0.458-0.003,0.894-0.199,1.21-0.543l0.885-0.948c0.65-0.7,0.645-1.814-0.013-2.506L237.827,248.495z M223.255,237.681l0.901-0.94
	c0.285-0.298,0.748-0.298,1.034,0l4.175,4.358c0.285,0.298,0.285,0.781,0,1.079l-0.901,0.941c-0.286,0.297-0.748,0.297-1.034,0
	l-4.175-4.359C222.969,238.462,222.969,237.979,223.255,237.681z M236.456,257.402c-1.379,1.44-3.616,1.44-4.996,0l-9.95-10.385
	c-1.379-1.44-1.379-3.775,0-5.215l1.64-1.712l3.291,3.435l-0.784,0.818c-0.63,0.659-0.666,1.714-0.082,2.418
	c0.026,0.03,0.053,0.061,0.078,0.085l5.973,6.235c0.662,0.686,1.731,0.684,2.392-0.003l0.793-0.829l3.291,3.435L236.456,257.402z
	 M241.32,254.646l-0.885,0.944c-0.136,0.146-0.323,0.229-0.519,0.23c-0.195,0.001-0.383-0.08-0.521-0.224l-4.175-4.359
	c-0.282-0.296-0.285-0.773-0.006-1.073l0.884-0.956c0.135-0.15,0.322-0.237,0.519-0.241h0.004c0.195,0.003,0.381,0.088,0.517,0.235
	l4.176,4.364C241.595,253.865,241.598,254.344,241.32,254.646z"/>
</svg>
