<svg xmlns="http://www.w3.org/2000/svg" width="23" height="24" viewBox="219.5 235.5 23 24"><linearGradient id="a" gradientUnits="userSpaceOnUse" x1="508.375" y1="115.107" x2="508.375" y2="85.466" gradientTransform="matrix(.9987 0 0 -.9987 -276.69 344.344)"><stop offset="0" stop-color="#00efd1"/><stop offset="1" stop-color="#00acea"/></linearGradient><path fill="url(#a)" d="M237.827 248.495a1.665 1.665 0 0 0-1.216-.521 1.669 1.669 0 0 0-1.21.535l-.884.944a1.844 1.844 0 0 0-.323 2.002l-.862.899a.702.702 0 0 1-.509.225.704.704 0 0 1-.511-.221l-5.974-6.235a.773.773 0 0 1 .004-1.057l.852-.889a1.658 1.658 0 0 0 1.959-.338l.901-.94a1.838 1.838 0 0 0 0-2.519l-4.176-4.358a1.656 1.656 0 0 0-2.412 0l-.901.941a1.838 1.838 0 0 0-.1 2.403l-1.645 1.717c-1.76 1.838-1.76 4.817 0 6.654l9.95 10.386a4.376 4.376 0 0 0 6.375 0l1.65-1.714c.309.284.706.442 1.117.444h.01a1.657 1.657 0 0 0 1.21-.543l.885-.948c.65-.7.645-1.814-.013-2.506l-4.177-4.361zm-14.572-10.814l.901-.94a.71.71 0 0 1 1.034 0l4.175 4.358a.788.788 0 0 1 0 1.079l-.901.941a.711.711 0 0 1-1.034 0l-4.175-4.359a.786.786 0 0 1 0-1.079zm13.201 19.721a3.429 3.429 0 0 1-4.996 0l-9.95-10.385c-1.379-1.44-1.379-3.775 0-5.215l1.64-1.712 3.291 3.435-.784.818a1.834 1.834 0 0 0-.082 2.418c.026.03.053.061.078.085l5.973 6.235a1.647 1.647 0 0 0 2.392-.003l.793-.829 3.291 3.435-1.646 1.718zm4.864-2.756l-.885.944a.714.714 0 0 1-.519.23.718.718 0 0 1-.521-.224l-4.175-4.359a.79.79 0 0 1-.006-1.073l.884-.956a.718.718 0 0 1 .519-.241h.004a.72.72 0 0 1 .517.235l4.176 4.364a.8.8 0 0 1 .006 1.08z"/></svg>