<?xml version="1.0" encoding="utf-8"?>
<!-- Generator: Adobe Illustrator 14.0.0, SVG Export Plug-In . SVG Version: 6.00 Build 43363)  -->
<!DOCTYPE svg PUBLIC "-//W3C//DTD SVG 1.1//EN" "http://www.w3.org/Graphics/SVG/1.1/DTD/svg11.dtd">
<svg version="1.1" id="Layer_1" xmlns="http://www.w3.org/2000/svg" xmlns:xlink="http://www.w3.org/1999/xlink" x="0px" y="0px"
	 width="20px" height="40px" viewBox="-62.14 616.445 20 40" enable-background="new -62.14 616.445 20 40" xml:space="preserve">
<linearGradient id="SVGID_1_" gradientUnits="userSpaceOnUse" x1="-52.104" y1="655.115" x2="-52.104" y2="617.1462" gradientTransform="matrix(0.9988 0 0 -0.9988 -0.0997 1271.548)">
	<stop  offset="0" style="stop-color:#00EFD1"/>
	<stop  offset="1" style="stop-color:#00ACEA"/>
</linearGradient>
<path fill="url(#SVGID_1_)" d="M-42.794,651.27h-1.013v-3.723c-0.007-0.379-0.31-0.685-0.683-0.688h-2.234v-3.281
	c0-0.375-0.28-0.706-0.648-0.706h-2.435v-10.57l2.414,1.288c0.097,0.051,0.204,0.078,0.313,0.078
	c0.197,0.001,0.384-0.087,0.511-0.24c0.127-0.153,0.182-0.355,0.149-0.553l-0.908-5.389l3.847-3.816
	c0.182-0.18,0.247-0.45,0.168-0.696c-0.079-0.246-0.287-0.424-0.538-0.462l-5.316-0.787l-2.377-4.902
	c-0.112-0.231-0.344-0.378-0.598-0.378c-0.254,0-0.486,0.147-0.598,0.378l-2.377,4.902l-5.316,0.786
	c-0.251,0.038-0.46,0.216-0.539,0.462c-0.078,0.246-0.013,0.516,0.169,0.695l3.847,3.816l-0.908,5.389
	c-0.043,0.254,0.06,0.512,0.265,0.664c0.208,0.151,0.482,0.171,0.709,0.051l2.414-1.288v10.57h-2.435
	c-0.368,0-0.648,0.331-0.648,0.706v3.281h-2.234c-0.373,0.003-0.676,0.309-0.683,0.688v3.723h-1.013
	c-0.368,0-0.654,0.333-0.654,0.708v3.752c0,0.375,0.286,0.715,0.654,0.715h18.692c0.368,0,0.654-0.34,0.654-0.715v-3.752
	C-42.14,651.603-42.426,651.27-42.794,651.27z M-55.772,626.763l-3.13-3.105l4.326-0.64c0.217-0.032,0.405-0.171,0.502-0.371
	l1.935-3.99l1.935,3.99c0.097,0.2,0.285,0.339,0.502,0.371l4.326,0.64l-3.13,3.105c-0.157,0.156-0.229,0.38-0.191,0.601l0.738,4.385
	l-3.869-2.07c-0.194-0.104-0.426-0.104-0.62,0l-3.869,2.07l0.739-4.385C-55.543,627.144-55.615,626.919-55.772,626.763z
	 M-53.14,631.589l1-0.542l1,0.542v11.284h-2V631.589z M-56.224,644.231h8.167v2.629h-8.167V644.231z M-59.14,648.217h14v3.054h-14
	V648.217z M-43.474,655.088h-17.333v-2.459h17.333V655.088z"/>
</svg>
