<svg xmlns="http://www.w3.org/2000/svg" width="20" height="40" viewBox="-62.14 616.445 20 40"><linearGradient id="a" gradientUnits="userSpaceOnUse" x1="-52.104" y1="655.115" x2="-52.104" y2="617.146" gradientTransform="matrix(.9988 0 0 -.9988 -.1 1271.548)"><stop offset="0" stop-color="#00efd1"/><stop offset="1" stop-color="#00acea"/></linearGradient><path fill="url(#a)" d="M-42.794 651.27h-1.013v-3.723a.695.695 0 0 0-.683-.688h-2.234v-3.281c0-.375-.28-.706-.648-.706h-2.435v-10.57l2.414 1.288a.66.66 0 0 0 .824-.162.689.689 0 0 0 .149-.553l-.908-5.389 3.847-3.816a.685.685 0 0 0 .168-.696.672.672 0 0 0-.538-.462l-5.316-.787-2.377-4.902a.666.666 0 0 0-.598-.378.666.666 0 0 0-.598.378l-2.377 4.902-5.316.786a.673.673 0 0 0-.539.462.686.686 0 0 0 .169.695l3.847 3.816-.908 5.389a.67.67 0 1 0 .974.715l2.414-1.288v10.57h-2.435c-.368 0-.648.331-.648.706v3.281h-2.234a.695.695 0 0 0-.683.688v3.723h-1.013c-.368 0-.654.333-.654.708v3.752c0 .375.286.715.654.715h18.692c.368 0 .654-.34.654-.715v-3.752c.003-.373-.283-.706-.651-.706zm-12.978-24.507l-3.13-3.105 4.326-.64a.668.668 0 0 0 .502-.371l1.935-3.99 1.935 3.99c.097.2.285.339.502.371l4.326.64-3.13 3.105a.684.684 0 0 0-.191.601l.738 4.385-3.869-2.07a.655.655 0 0 0-.62 0l-3.869 2.07.739-4.385a.695.695 0 0 0-.194-.601zm2.632 4.826l1-.542 1 .542v11.284h-2v-11.284zm-3.084 12.642h8.167v2.629h-8.167v-2.629zm-2.916 3.986h14v3.054h-14v-3.054zm15.666 6.871h-17.333v-2.459h17.333v2.459z"/></svg>