<svg xmlns="http://www.w3.org/2000/svg" width="16" height="15" viewBox="-20.328 683.258 16 15"><g fill="#D7D7D7"><path d="M-9.081 683.258h-6.494c-.747 0-1.358.727-1.358 1.616v4.47h9.209v-4.47c.001-.889-.609-1.616-1.357-1.616zm.485 5.224h-7.539v-3.08c0-.953.319-1.444 1.138-1.444h5.261c.949 0 1.14.408 1.14 1.444v3.08z"/><path d="M-6.365 687.803H-18.29c-1.155 0-2.038 1.05-2.038 2.424v2.181c0 .755.883 1.425 2.038 1.425h.395v-1.738h11.206v1.738h.324c1.155 0 2.037-.514 2.037-1.425v-2.181c0-1.374-.881-2.424-2.037-2.424zm-.047 2.991c-.47 0-.782-.351-.782-.873 0-.524.313-.873.782-.873s.782.348.782.873c.001.522-.312.873-.782.873z"/><path d="M-16.932 690.53v6.111c0 .889.611 1.616 1.358 1.616h6.494c.747 0 1.357-.728 1.357-1.616v-6.111h-9.209zm8.336 5.372c0 .953-.32 1.443-1.139 1.443l-5.261.001c-.949 0-1.139-.407-1.139-1.443v-4.445l7.539-.001v4.445z"/></g></svg>