<?xml version="1.0" encoding="utf-8"?>
<!-- Generator: Adobe Illustrator 14.0.0, SVG Export Plug-In . SVG Version: 6.00 Build 43363)  -->
<!DOCTYPE svg PUBLIC "-//W3C//DTD SVG 1.1//EN" "http://www.w3.org/Graphics/SVG/1.1/DTD/svg11.dtd">
<svg version="1.1" id="Capa_1" xmlns="http://www.w3.org/2000/svg" xmlns:xlink="http://www.w3.org/1999/xlink" x="0px" y="0px"
	 width="16px" height="15px" viewBox="-20.328 683.258 16 15" enable-background="new -20.328 683.258 16 15" xml:space="preserve">
<g>
	<path fill="#D7D7D7" d="M-9.081,683.258h-6.494c-0.747,0-1.358,0.727-1.358,1.616v4.47h9.209v-4.47
		C-7.723,683.985-8.333,683.258-9.081,683.258z M-8.596,688.482h-7.539v-3.08c0-0.953,0.319-1.444,1.138-1.444h5.261
		c0.949,0,1.14,0.408,1.14,1.444V688.482z"/>
	<path fill="#D7D7D7" d="M-6.365,687.803H-18.29c-1.155,0-2.038,1.05-2.038,2.424v2.181c0,0.755,0.883,1.425,2.038,1.425h0.395
		v-1.738h11.206v1.738h0.324c1.155,0,2.037-0.514,2.037-1.425v-2.181C-4.328,688.853-5.209,687.803-6.365,687.803z M-6.412,690.794
		c-0.47,0-0.782-0.351-0.782-0.873c0-0.524,0.313-0.873,0.782-0.873s0.782,0.348,0.782,0.873
		C-5.629,690.443-5.942,690.794-6.412,690.794z"/>
	<path fill="#D7D7D7" d="M-16.932,690.53v6.111c0,0.889,0.611,1.616,1.358,1.616h6.494c0.747,0,1.357-0.728,1.357-1.616v-6.111
		H-16.932z M-8.596,695.902c0,0.953-0.32,1.443-1.139,1.443l-5.261,0.001c-0.949,0-1.139-0.407-1.139-1.443v-4.445l7.539-0.001
		V695.902z"/>
</g>
</svg>
