<?xml version="1.0" encoding="utf-8"?>
<!-- Generator: Adobe Illustrator 14.0.0, SVG Export Plug-In . SVG Version: 6.00 Build 43363)  -->
<!DOCTYPE svg PUBLIC "-//W3C//DTD SVG 1.1//EN" "http://www.w3.org/Graphics/SVG/1.1/DTD/svg11.dtd">
<svg version="1.1" id="Layer_1" xmlns="http://www.w3.org/2000/svg" xmlns:xlink="http://www.w3.org/1999/xlink" x="0px" y="0px"
	 width="30px" height="30px" viewBox="0 0 30 30" enable-background="new 0 0 30 30" xml:space="preserve">
<g>
	<linearGradient id="SVGID_1_" gradientUnits="userSpaceOnUse" x1="14.9995" y1="0" x2="14.9995" y2="30.0005">
		<stop  offset="0" style="stop-color:#00EFD1"/>
		<stop  offset="1" style="stop-color:#00ACEA"/>
	</linearGradient>
	<path fill="url(#SVGID_1_)" d="M30,25c0,2.762-2.238,5-5,5H5c-2.762,0-5-2.238-5-5V5c0-2.761,2.238-5,5-5h20c2.762,0,5,2.239,5,5
		V25z"/>
	<path fill="#FFFFFF" d="M22.307,17.5C23.794,17.5,25,16.382,25,15c0-1.38-1.206-2.5-2.693-2.5l-14.612,0C6.207,12.5,5,13.62,5,15
		c0,1.382,1.207,2.5,2.694,2.5H22.307z"/>
</g>
</svg>
