<svg xmlns="http://www.w3.org/2000/svg" width="24" height="24" viewBox="726.316 198.186 24 24"><linearGradient id="a" gradientUnits="userSpaceOnUse" x1="738.316" y1="199.231" x2="738.316" y2="221.463"><stop offset="0" stop-color="#00efd1"/><stop offset="1" stop-color="#00acea"/></linearGradient><path fill="url(#a)" d="M736.409 198.186a10.08 10.08 0 1 0 .02 20.163 9.996 9.996 0 0 0 5.705-1.771l5.475 5.474a.456.456 0 0 0 .645 0l1.93-1.93a.455.455 0 0 0 0-.644l-5.473-5.475a10.103 10.103 0 0 0-1.178-12.847 9.98 9.98 0 0 0-7.124-2.97zm11.522 22.901l-3.621-3.621 1.287-1.288 3.621 3.622-1.287 1.287zm-5.045-19.29a9.193 9.193 0 0 1 .863 11.983.457.457 0 0 0 .043.595l1.162 1.161-1.289 1.287-1.16-1.162a.454.454 0 0 0-.594-.042 9.188 9.188 0 0 1-11.98-.863 9.17 9.17 0 0 1 6.479-15.659 9.073 9.073 0 0 1 6.476 2.7zm-12.059.896a7.889 7.889 0 1 0 13.318 4.041 7.89 7.89 0 0 0-7.736-6.353 7.835 7.835 0 0 0-5.582 2.312zm12.569 5.584a6.995 6.995 0 1 1-10.881-5.806 6.993 6.993 0 0 1 8.832.869 6.953 6.953 0 0 1 2.049 4.937z"/></svg>