<?xml version="1.0" encoding="utf-8"?>
<!-- Generator: Adobe Illustrator 14.0.0, SVG Export Plug-In . SVG Version: 6.00 Build 43363)  -->
<!DOCTYPE svg PUBLIC "-//W3C//DTD SVG 1.1//EN" "http://www.w3.org/Graphics/SVG/1.1/DTD/svg11.dtd">
<svg version="1.1" id="Layer_1" xmlns="http://www.w3.org/2000/svg" xmlns:xlink="http://www.w3.org/1999/xlink" x="0px" y="0px"
	 width="24px" height="24px" viewBox="726.316 198.186 24 24" enable-background="new 726.316 198.186 24 24" xml:space="preserve">
<path fill="#D7D7D7" d="M736.409,198.186c-3.605-0.005-6.939,1.918-8.742,5.042c-1.803,3.125-1.801,6.974,0.008,10.094
	c1.809,3.122,5.146,5.038,8.754,5.027c2.037,0.005,4.029-0.613,5.705-1.771l5.475,5.474c0.178,0.178,0.467,0.178,0.645,0l1.93-1.93
	c0.178-0.178,0.178-0.466,0-0.644l-5.473-5.475c2.748-4.009,2.254-9.406-1.178-12.847
	C741.651,199.25,739.085,198.18,736.409,198.186z M747.931,221.087l-3.621-3.621l1.287-1.288l3.621,3.622L747.931,221.087z
	 M742.886,201.797c3.219,3.228,3.586,8.327,0.863,11.983c-0.135,0.18-0.117,0.433,0.043,0.595l1.162,1.161l-1.289,1.287l-1.16-1.162
	c-0.16-0.16-0.412-0.178-0.594-0.042c-3.654,2.724-8.754,2.356-11.98-0.863c-2.627-2.621-3.414-6.566-1.996-9.996
	c1.42-3.429,4.766-5.665,8.475-5.663C738.843,199.092,741.177,200.065,742.886,201.797z M730.827,202.693
	c-2.66,2.663-3.07,6.833-0.979,9.964c2.09,3.129,6.102,4.344,9.578,2.904s5.451-5.136,4.719-8.827
	c-0.734-3.692-3.973-6.353-7.736-6.353C734.315,200.374,732.304,201.207,730.827,202.693z M743.396,208.277
	c0.004,3.337-2.352,6.214-5.623,6.867c-3.273,0.653-6.551-1.096-7.83-4.178c-1.279-3.083-0.201-6.64,2.572-8.495
	c2.773-1.855,6.473-1.491,8.832,0.869C742.661,204.646,743.397,206.423,743.396,208.277z"/>
</svg>
