<svg xmlns="http://www.w3.org/2000/svg" width="34" height="34" viewBox="-78.64 605.945 34 34"><g fill="#C4C4C4"><path d="M-61.64 612.577c-5.717 0-10.368 4.651-10.368 10.367 0 5.717 4.651 10.368 10.368 10.368s10.367-4.651 10.367-10.368c0-5.716-4.65-10.367-10.367-10.367zm0 19.494a9.126 9.126 0 1 1 9.126-9.126 9.137 9.137 0 0 1-9.126 9.126z"/><path d="M-46.632 624.678a15.544 15.544 0 0 0-.107-4.138l1.71-1.64a.62.62 0 0 0 .139-.697l-1.948-4.453a.622.622 0 0 0-.614-.371l-2.367.174a13.951 13.951 0 0 0-3-2.857l.07-2.365a.62.62 0 0 0-.397-.597l-4.533-1.75a.623.623 0 0 0-.694.174l-1.533 1.778a15.542 15.542 0 0 0-4.138.107l-1.64-1.71a.62.62 0 0 0-.697-.139l-4.453 1.947a.62.62 0 0 0-.37.614l.174 2.367a13.974 13.974 0 0 0-2.857 3l-2.365-.07a.62.62 0 0 0-.597.397l-1.749 4.533a.622.622 0 0 0 .174.694l1.777 1.534a15.542 15.542 0 0 0 .107 4.138l-1.71 1.64a.622.622 0 0 0-.139.697l1.949 4.453a.62.62 0 0 0 .614.37l2.368-.174a13.903 13.903 0 0 0 3 2.857l-.07 2.365a.62.62 0 0 0 .397.597l4.532 1.75a.62.62 0 0 0 .693-.174l1.534-1.778c1.378.149 2.769.113 4.137-.107l1.641 1.71c.18.188.458.243.697.139l4.453-1.948a.62.62 0 0 0 .37-.614l-.174-2.367a13.997 13.997 0 0 0 2.857-3l2.365.07a.619.619 0 0 0 .597-.397l1.75-4.532a.621.621 0 0 0-.173-.693l-1.78-1.534zm-.799 5.902l-2.264-.066a.616.616 0 0 0-.535.276 12.74 12.74 0 0 1-3.033 3.185.622.622 0 0 0-.25.545l.167 2.265-3.654 1.598-1.568-1.635a.62.62 0 0 0-.56-.181 14.308 14.308 0 0 1-4.42.115.62.62 0 0 0-.55.21l-1.464 1.696-3.714-1.434.067-2.264a.621.621 0 0 0-.276-.535 12.756 12.756 0 0 1-3.185-3.033.621.621 0 0 0-.544-.25l-2.266.167-1.599-3.653 1.636-1.568a.625.625 0 0 0 .181-.56 14.278 14.278 0 0 1-.114-4.42.62.62 0 0 0-.21-.55l-1.697-1.464 1.434-3.714 2.265.067a.622.622 0 0 0 .535-.276 12.738 12.738 0 0 1 3.033-3.185.624.624 0 0 0 .25-.545l-.167-2.265 3.653-1.599 1.568 1.635a.618.618 0 0 0 .56.181 14.253 14.253 0 0 1 4.421-.114.62.62 0 0 0 .55-.21l1.464-1.697 3.714 1.434-.068 2.264a.622.622 0 0 0 .276.535 12.738 12.738 0 0 1 3.185 3.033.62.62 0 0 0 .544.25l2.266-.167 1.598 3.653-1.635 1.568a.62.62 0 0 0-.181.56c.268 1.458.306 2.95.115 4.42a.62.62 0 0 0 .21.55l1.696 1.464-1.434 3.714z"/></g></svg>