<?xml version="1.0" encoding="utf-8"?>
<!-- Generator: Adobe Illustrator 14.0.0, SVG Export Plug-In . SVG Version: 6.00 Build 43363)  -->
<!DOCTYPE svg PUBLIC "-//W3C//DTD SVG 1.1//EN" "http://www.w3.org/Graphics/SVG/1.1/DTD/svg11.dtd">
<svg version="1.1" id="Layer_1" xmlns="http://www.w3.org/2000/svg" xmlns:xlink="http://www.w3.org/1999/xlink" x="0px" y="0px"
	 width="34px" height="34px" viewBox="-78.64 605.945 34 34" enable-background="new -78.64 605.945 34 34" xml:space="preserve">
<g>
	
		<linearGradient id="SVGID_1_" gradientUnits="userSpaceOnUse" x1="-61.728" y1="1045.2371" x2="-61.728" y2="1007.6671" gradientTransform="matrix(0.9996 0 0 -0.9996 0.0636 1649.3643)">
		<stop  offset="0" style="stop-color:#00EFD1"/>
		<stop  offset="1" style="stop-color:#00ACEA"/>
	</linearGradient>
	<path fill="url(#SVGID_1_)" d="M-61.64,612.577c-5.717,0-10.368,4.651-10.368,10.367c0,5.717,4.651,10.368,10.368,10.368
		s10.367-4.651,10.367-10.368C-51.273,617.228-55.923,612.577-61.64,612.577z M-61.64,632.071c-5.04,0-9.126-4.086-9.126-9.126
		c0-5.04,4.086-9.125,9.126-9.125s9.126,4.086,9.126,9.125C-52.52,627.983-56.603,632.065-61.64,632.071z"/>
	
		<linearGradient id="SVGID_2_" gradientUnits="userSpaceOnUse" x1="-61.7275" y1="1045.2361" x2="-61.7275" y2="1007.6674" gradientTransform="matrix(0.9996 0 0 -0.9996 0.0636 1649.3643)">
		<stop  offset="0" style="stop-color:#00EFD1"/>
		<stop  offset="1" style="stop-color:#00ACEA"/>
	</linearGradient>
	<path fill="url(#SVGID_2_)" d="M-46.632,624.678c0.149-1.377,0.113-2.769-0.107-4.138l1.71-1.64
		c0.188-0.18,0.244-0.458,0.139-0.697l-1.948-4.453c-0.105-0.241-0.352-0.39-0.614-0.371l-2.367,0.174
		c-0.852-1.096-1.863-2.059-3-2.857l0.07-2.365c0.008-0.263-0.151-0.502-0.397-0.597l-4.533-1.75
		c-0.245-0.094-0.522-0.024-0.694,0.174l-1.533,1.778c-1.378-0.149-2.77-0.113-4.138,0.107l-1.64-1.71
		c-0.18-0.188-0.458-0.244-0.697-0.139l-4.453,1.947c-0.241,0.105-0.39,0.352-0.37,0.614l0.174,2.367
		c-1.096,0.853-2.059,1.863-2.857,3l-2.365-0.07c-0.263-0.008-0.502,0.151-0.597,0.397l-1.749,4.533
		c-0.094,0.245-0.025,0.522,0.174,0.694l1.777,1.534c-0.149,1.378-0.113,2.77,0.107,4.138l-1.71,1.64
		c-0.188,0.181-0.243,0.459-0.139,0.697l1.949,4.453c0.105,0.241,0.352,0.39,0.614,0.37l2.368-0.174c0.852,1.097,1.863,2.06,3,2.857
		l-0.07,2.365c-0.008,0.263,0.151,0.502,0.397,0.597l4.532,1.75c0.245,0.094,0.522,0.025,0.693-0.174l1.534-1.778
		c1.378,0.149,2.769,0.113,4.137-0.107l1.641,1.71c0.18,0.188,0.458,0.243,0.697,0.139l4.453-1.948
		c0.241-0.105,0.39-0.352,0.37-0.614l-0.174-2.367c1.096-0.853,2.059-1.864,2.857-3l2.365,0.07c0.263,0.008,0.503-0.151,0.597-0.397
		l1.75-4.532c0.094-0.245,0.025-0.522-0.173-0.693L-46.632,624.678z M-47.431,630.58l-2.264-0.066
		c-0.214-0.007-0.417,0.097-0.535,0.276c-0.819,1.229-1.845,2.308-3.033,3.185c-0.171,0.127-0.266,0.333-0.25,0.545l0.167,2.265
		L-57,638.383l-1.568-1.635c-0.144-0.15-0.354-0.219-0.56-0.181c-1.458,0.267-2.949,0.306-4.42,0.115
		c-0.207-0.027-0.414,0.052-0.55,0.21l-1.464,1.696l-3.714-1.434l0.067-2.264c0.006-0.214-0.098-0.417-0.276-0.535
		c-1.229-0.819-2.307-1.845-3.185-3.033c-0.127-0.171-0.333-0.266-0.544-0.25l-2.266,0.167l-1.599-3.653l1.636-1.568
		c0.15-0.145,0.218-0.355,0.181-0.56c-0.267-1.458-0.306-2.95-0.114-4.42c0.027-0.207-0.052-0.414-0.21-0.55l-1.697-1.464
		l1.434-3.714l2.265,0.067c0.214,0.006,0.416-0.098,0.535-0.276c0.818-1.229,1.845-2.307,3.033-3.185
		c0.171-0.127,0.265-0.333,0.25-0.545l-0.167-2.265l3.653-1.599l1.568,1.635c0.144,0.151,0.354,0.219,0.56,0.181
		c1.458-0.268,2.95-0.306,4.421-0.114c0.207,0.027,0.414-0.052,0.55-0.21l1.464-1.697l3.714,1.434L-54.071,611
		c-0.006,0.214,0.098,0.416,0.276,0.535c1.229,0.818,2.307,1.845,3.185,3.033c0.126,0.171,0.333,0.266,0.544,0.25l2.266-0.167
		l1.598,3.653l-1.635,1.568c-0.15,0.144-0.219,0.354-0.181,0.56c0.268,1.458,0.306,2.95,0.115,4.42
		c-0.027,0.207,0.052,0.414,0.21,0.55l1.696,1.464L-47.431,630.58z"/>
</g>
</svg>
