<?xml version="1.0" encoding="utf-8"?>
<!-- Generator: Adobe Illustrator 14.0.0, SVG Export Plug-In . SVG Version: 6.00 Build 43363)  -->
<!DOCTYPE svg PUBLIC "-//W3C//DTD SVG 1.1//EN" "http://www.w3.org/Graphics/SVG/1.1/DTD/svg11.dtd">
<svg version="1.1" id="Layer_1" xmlns="http://www.w3.org/2000/svg" xmlns:xlink="http://www.w3.org/1999/xlink" x="0px" y="0px"
	 width="20px" height="18px" viewBox="0 0 20 18" enable-background="new 0 0 20 18" xml:space="preserve">
<path fill="#D9D9D9" d="M13.494,5.314l-2.477-4.722c-0.203-0.37-0.594-0.599-1.017-0.594c-0.433,0-0.825,0.229-1.017,0.594
	L6.508,5.314L0.97,6.072c-0.417,0.05-0.771,0.33-0.913,0.725c-0.135,0.387-0.022,0.811,0.285,1.094l4.008,3.674l-0.945,5.188
	c-0.073,0.399,0.102,0.806,0.449,1.043c0.35,0.239,0.813,0.271,1.193,0.082L10,15.428l4.952,2.45
	c0.382,0.188,0.845,0.157,1.194-0.081c0.344-0.229,0.52-0.637,0.449-1.044l-0.945-5.188l4.008-3.674
	c0.309-0.283,0.42-0.707,0.285-1.094c-0.144-0.395-0.497-0.675-0.914-0.725L13.494,5.314L13.494,5.314z"/>
</svg>
