<svg xmlns="http://www.w3.org/2000/svg" width="20" height="18" viewBox="227.5 233.5 20 18"><linearGradient id="a" gradientUnits="userSpaceOnUse" x1="523.209" y1="-261.553" x2="523.209" y2="-323.513" gradientTransform="matrix(.9991 0 0 -.9991 -285.248 -67.523)"><stop offset="0" stop-color="#00efd1"/><stop offset="1" stop-color="#00acea"/></linearGradient><path fill="url(#a)" d="M240.992 238.815l-2.477-4.722a1.143 1.143 0 0 0-1.016-.594c-.432 0-.825.23-1.017.594l-2.476 4.722-5.538.757a1.114 1.114 0 0 0-.914.725c-.134.386-.022.811.286 1.094l4.007 3.674-.945 5.188c-.073.4.102.805.45 1.043.349.239.812.271 1.193.082l4.953-2.45 4.952 2.45c.382.188.845.157 1.194-.081a1.04 1.04 0 0 0 .45-1.044l-.946-5.188 4.008-3.674c.309-.283.42-.708.286-1.094a1.115 1.115 0 0 0-.915-.725l-5.535-.757zm.151 5.115c-.268.245-.39.598-.326.943l.658 3.611-3.447-1.706a1.2 1.2 0 0 0-1.055 0l-3.447 1.706.658-3.611a1.027 1.027 0 0 0-.326-.943l-2.789-2.559 3.854-.527c.369-.051.688-.269.854-.582l1.725-3.287 1.723 3.287c.166.313.484.531.854.582l3.854.527-2.79 2.559z"/></svg>