<?xml version="1.0" encoding="utf-8"?>
<!-- Generator: Adobe Illustrator 14.0.0, SVG Export Plug-In . SVG Version: 6.00 Build 43363)  -->
<!DOCTYPE svg PUBLIC "-//W3C//DTD SVG 1.1//EN" "http://www.w3.org/Graphics/SVG/1.1/DTD/svg11.dtd">
<svg version="1.1" id="Layer_1" xmlns="http://www.w3.org/2000/svg" xmlns:xlink="http://www.w3.org/1999/xlink" x="0px" y="0px"
	 width="20px" height="18px" viewBox="227.5 233.5 20 18" enable-background="new 227.5 233.5 20 18" xml:space="preserve">
<linearGradient id="SVGID_1_" gradientUnits="userSpaceOnUse" x1="523.2092" y1="-261.5532" x2="523.2092" y2="-323.5132" gradientTransform="matrix(0.9991 0 0 -0.9991 -285.2475 -67.5228)">
	<stop  offset="0" style="stop-color:#00EFD1"/>
	<stop  offset="1" style="stop-color:#00ACEA"/>
</linearGradient>
<path fill="url(#SVGID_1_)" d="M240.992,238.815l-2.477-4.722c-0.19-0.363-0.585-0.594-1.016-0.594c-0.432,0-0.825,0.23-1.017,0.594
	l-2.476,4.722l-5.538,0.757c-0.427,0.058-0.781,0.339-0.914,0.725c-0.134,0.386-0.022,0.811,0.286,1.094l4.007,3.674l-0.945,5.188
	c-0.073,0.4,0.102,0.805,0.45,1.043c0.349,0.239,0.812,0.271,1.193,0.082l4.953-2.45l4.952,2.45
	c0.382,0.188,0.845,0.157,1.194-0.081c0.349-0.239,0.523-0.644,0.45-1.044l-0.946-5.188l4.008-3.674
	c0.309-0.283,0.42-0.708,0.286-1.094c-0.133-0.386-0.488-0.667-0.915-0.725L240.992,238.815z M241.143,243.93
	c-0.268,0.245-0.39,0.598-0.326,0.943l0.658,3.611l-3.447-1.706c-0.33-0.163-0.725-0.163-1.055,0l-3.447,1.706l0.658-3.611
	c0.063-0.346-0.059-0.698-0.326-0.943l-2.789-2.559l3.854-0.527c0.369-0.051,0.688-0.269,0.854-0.582l1.725-3.287l1.723,3.287
	c0.166,0.313,0.484,0.531,0.854,0.582l3.854,0.527L241.143,243.93z"/>
</svg>
