<?xml version="1.0" encoding="utf-8"?>
<!-- Generator: Adobe Illustrator 14.0.0, SVG Export Plug-In . SVG Version: 6.00 Build 43363)  -->
<!DOCTYPE svg PUBLIC "-//W3C//DTD SVG 1.1//EN" "http://www.w3.org/Graphics/SVG/1.1/DTD/svg11.dtd">
<svg version="1.1" id="Layer_1" xmlns="http://www.w3.org/2000/svg" xmlns:xlink="http://www.w3.org/1999/xlink" x="0px" y="0px"
	 width="35px" height="38px" viewBox="-82.14 598.445 35 38" enable-background="new -82.14 598.445 35 38" xml:space="preserve">
<linearGradient id="SVGID_1_" gradientUnits="userSpaceOnUse" x1="-64.5347" y1="636.7185" x2="-64.5347" y2="596.9924" gradientTransform="matrix(0.9982 0 0 -0.9982 -0.2185 1233.0231)">
	<stop  offset="0" style="stop-color:#00EFD1"/>
	<stop  offset="1" style="stop-color:#00ACEA"/>
</linearGradient>
<path fill="url(#SVGID_1_)" d="M-47.147,626.156l-0.59-7.643c-0.103-1.784-1.576-3.181-3.365-3.191h-0.324v-3.656
	c0.009-7.296-5.906-13.217-13.208-13.221c-7.297,0-13.218,5.931-13.218,13.221v3.656h-0.325c-1.789,0.01-3.262,1.408-3.365,3.191
	l-0.591,7.634c0,0.005-0.001,0.015-0.001,0.02c-0.003,0.063-0.005,0.142-0.005,0.204c0,1.862,1.506,3.375,3.371,3.386h3.89
	c0.373-0.007,0.679-0.299,0.703-0.671l0.889-12.964c0.013-0.202-0.054-0.4-0.188-0.553c-0.131-0.148-0.316-0.237-0.515-0.247h-2.454
	v-3.656c0-6.514,5.294-11.813,11.814-11.813c3.133,0.001,6.137,1.247,8.349,3.463s3.452,5.22,3.445,8.35v3.656h-2.454
	c-0.197,0.009-0.383,0.097-0.516,0.244c-0.132,0.147-0.2,0.341-0.188,0.539l0.889,12.977c0.024,0.373,0.329,0.666,0.703,0.676h1.653
	v2.24c0,1.671-1.351,3.028-3.023,3.04h-7.826c-0.389,0-0.705,0.315-0.705,0.705c0,0.388,0.316,0.703,0.705,0.703h7.826
	c2.45-0.013,4.431-2,4.433-4.448v-2.24h0.828c1.864-0.009,3.371-1.521,3.371-3.384c0-0.062-0.002-0.132-0.005-0.193
	C-47.145,626.174-47.146,626.162-47.147,626.156z M-75.538,628.347h-3.232c-1.085-0.008-1.961-0.889-1.961-1.973
	c0-0.034,0-0.076,0.002-0.11l0.591-7.625c0-0.005,0-0.032,0.001-0.037c0.056-1.042,0.914-1.862,1.958-1.872h3.433L-75.538,628.347z
	 M-50.511,628.347h-3.231l-0.792-11.617h3.433c1.044,0.01,1.901,0.829,1.958,1.87c0,0.006,0,0.021,0.001,0.025l0.59,7.627
	c0.002,0.034,0.003,0.085,0.003,0.119C-48.55,627.456-49.425,628.339-50.511,628.347L-50.511,628.347z"/>
</svg>
