<svg xmlns="http://www.w3.org/2000/svg" width="35" height="38" viewBox="-82.14 598.445 35 38"><path fill="#D7D7D7" d="M-47.147 626.156l-.59-7.643a3.388 3.388 0 0 0-3.365-3.191h-.324v-3.656c.009-7.296-5.906-13.217-13.208-13.221-7.297 0-13.218 5.931-13.218 13.221v3.656h-.325a3.389 3.389 0 0 0-3.365 3.191l-.591 7.634-.001.02a3.389 3.389 0 0 0 3.366 3.59h3.89a.718.718 0 0 0 .703-.671l.889-12.964a.763.763 0 0 0-.188-.553.736.736 0 0 0-.515-.247h-2.454v-3.656c0-6.514 5.294-11.813 11.814-11.813 3.133.001 6.137 1.247 8.349 3.463s3.452 5.22 3.445 8.35v3.656h-2.454a.742.742 0 0 0-.704.783l.889 12.977a.723.723 0 0 0 .703.676h1.653v2.24a3.043 3.043 0 0 1-3.023 3.04h-7.826a.705.705 0 1 0 0 1.408h7.826c2.45-.013 4.431-2 4.433-4.448v-2.24h.828a3.386 3.386 0 0 0 3.366-3.577l-.003-.025zm-28.391 2.191h-3.232a1.975 1.975 0 0 1-1.961-1.973c0-.034 0-.076.002-.11l.591-7.625.001-.037a1.98 1.98 0 0 1 1.958-1.872h3.433l-.792 11.617zm25.027 0h-3.231l-.792-11.617h3.433a1.98 1.98 0 0 1 1.959 1.895l.59 7.627a1.977 1.977 0 0 1-1.959 2.095z"/></svg>