<?xml version="1.0" encoding="utf-8"?>
<!-- Generator: Adobe Illustrator 14.0.0, SVG Export Plug-In . SVG Version: 6.00 Build 43363)  -->
<!DOCTYPE svg PUBLIC "-//W3C//DTD SVG 1.1//EN" "http://www.w3.org/Graphics/SVG/1.1/DTD/svg11.dtd">
<svg version="1.1" id="Layer_1" xmlns="http://www.w3.org/2000/svg" xmlns:xlink="http://www.w3.org/1999/xlink" x="0px" y="0px"
	 width="40px" height="40px" viewBox="-74.64 603.945 40 40" enable-background="new -74.64 603.945 40 40" xml:space="preserve">
<g>
	<path fill="#D7D7D7" d="M-51.149,620.395l-3.204-0.487l-1.434-3.033c-0.121-0.255-0.37-0.416-0.643-0.416s-0.522,0.161-0.643,0.416
		l-1.433,3.033l-3.205,0.487c-0.269,0.041-0.493,0.237-0.577,0.506c-0.084,0.27-0.015,0.565,0.18,0.764l2.32,2.362l-0.548,3.336
		c-0.045,0.28,0.065,0.563,0.286,0.729c0.221,0.167,0.513,0.188,0.754,0.055l2.865-1.573l2.866,1.573
		c0.241,0.132,0.533,0.111,0.754-0.056s0.332-0.449,0.286-0.729l-0.548-3.336l2.32-2.362c0.193-0.198,0.264-0.494,0.179-0.764
		C-50.656,620.632-50.88,620.436-51.149,620.395z M-54.342,623.235c-0.168,0.171-0.245,0.417-0.205,0.659l0.366,2.231l-1.915-1.052
		c-0.209-0.115-0.459-0.115-0.668,0l-1.915,1.052l0.367-2.231c0.04-0.242-0.037-0.488-0.205-0.659l-1.554-1.583l2.146-0.326
		c0.233-0.036,0.435-0.188,0.539-0.409l0.958-2.026l0.958,2.026c0.104,0.22,0.306,0.373,0.539,0.409l2.146,0.326L-54.342,623.235z"
		/>
	<path fill="#D7D7D7" d="M-35.167,620.78l-2.676-0.764l-0.913-2.736c-0.09-0.269-0.317-0.461-0.589-0.496
		c-0.271-0.034-0.537,0.094-0.687,0.332l-1.525,2.424l-2.774,0.063c-0.272,0.006-0.518,0.173-0.633,0.43
		c-0.115,0.256-0.081,0.559,0.089,0.781l1.735,2.263l-0.803,2.778c-0.078,0.272-0.002,0.566,0.197,0.76
		c0.2,0.193,0.487,0.252,0.742,0.151l2.596-1.024l2.278,1.651c0.224,0.163,0.517,0.179,0.756,0.042
		c0.238-0.137,0.381-0.404,0.368-0.688l-0.129-2.897l2.212-1.756c0.217-0.172,0.32-0.456,0.269-0.734
		C-34.705,621.078-34.904,620.855-35.167,620.78L-35.167,620.78z M-38.301,622.899c-0.187,0.148-0.292,0.383-0.281,0.627
		l0.079,1.779l-1.396-1.013c-0.194-0.141-0.442-0.173-0.664-0.085l-1.591,0.629l0.492-1.706c0.067-0.234,0.021-0.488-0.126-0.679
		l-1.067-1.392l1.705-0.039c0.236-0.005,0.454-0.131,0.584-0.337l0.934-1.484l0.56,1.676c0.077,0.232,0.259,0.409,0.487,0.474
		l1.645,0.469L-38.301,622.899z"/>
	<path fill="#D7D7D7" d="M-51.479,636.105l-3.204-0.485l-1.434-3.034c-0.12-0.255-0.37-0.416-0.643-0.416
		c-0.272,0-0.522,0.161-0.643,0.416l-1.433,3.034l-3.204,0.485c-0.27,0.041-0.494,0.237-0.578,0.508
		c-0.084,0.27-0.015,0.565,0.18,0.764l2.32,2.36l-0.548,3.337c-0.046,0.28,0.065,0.563,0.286,0.728
		c0.221,0.168,0.513,0.189,0.754,0.057l2.865-1.574l2.865,1.574c0.241,0.133,0.534,0.111,0.755-0.056
		c0.221-0.166,0.331-0.448,0.285-0.729l-0.548-3.337l2.32-2.36c0.194-0.198,0.265-0.494,0.18-0.765
		C-50.985,636.343-51.209,636.146-51.479,636.105L-51.479,636.105z M-54.671,638.946c-0.168,0.17-0.245,0.417-0.205,0.657
		l0.366,2.232l-1.915-1.053c-0.209-0.114-0.459-0.114-0.668,0l-1.915,1.053l0.366-2.231c0.04-0.24-0.037-0.487-0.205-0.658
		l-1.554-1.581l2.146-0.327c0.233-0.036,0.435-0.188,0.539-0.408l0.958-2.026l0.957,2.026c0.104,0.22,0.306,0.372,0.539,0.408
		l2.145,0.327L-54.671,638.946z"/>
	<path fill="#D7D7D7" d="M-72.412,608.816c0.078,0.438,0.185,1.036,0.803,1.68c0.618,0.644,1.193,0.755,1.613,0.835
		c0.349,0.068,0.559,0.109,0.863,0.425s0.343,0.535,0.408,0.898c0.078,0.438,0.186,1.037,0.803,1.68
		c0.618,0.643,1.193,0.754,1.614,0.835c0.349,0.067,0.559,0.108,0.863,0.425c0.304,0.316,0.343,0.535,0.408,0.898
		c0.078,0.438,0.185,1.037,0.803,1.68c0.28,0.291,0.733,0.291,1.013,0s0.28-0.763,0-1.053c-0.304-0.317-0.343-0.536-0.408-0.898
		c-0.078-0.438-0.185-1.037-0.803-1.68c-0.618-0.644-1.193-0.755-1.614-0.836c-0.349-0.068-0.559-0.109-0.863-0.425
		c-0.304-0.316-0.343-0.534-0.408-0.897c-0.078-0.438-0.185-1.037-0.803-1.68c-0.618-0.644-1.193-0.755-1.614-0.836
		c-0.349-0.067-0.559-0.108-0.863-0.425c-0.304-0.316-0.343-0.535-0.408-0.898c-0.078-0.438-0.185-1.036-0.803-1.68
		c-0.28-0.29-0.733-0.29-1.013,0c-0.28,0.292-0.28,0.763,0,1.054C-72.516,608.235-72.477,608.453-72.412,608.816z"/>
	<path fill="#D7D7D7" d="M-69.816,606.115c0.078,0.438,0.185,1.037,0.803,1.68c0.618,0.644,1.194,0.755,1.614,0.836
		c0.349,0.067,0.559,0.107,0.863,0.424s0.343,0.536,0.408,0.898c0.078,0.437,0.185,1.036,0.803,1.68
		c0.618,0.643,1.194,0.754,1.614,0.836c0.349,0.067,0.559,0.108,0.863,0.424c0.304,0.316,0.343,0.536,0.407,0.898
		c0.079,0.438,0.186,1.037,0.803,1.68c0.28,0.291,0.733,0.291,1.013,0c0.279-0.291,0.279-0.763,0-1.054
		c-0.304-0.317-0.343-0.535-0.408-0.898c-0.078-0.438-0.185-1.036-0.803-1.68s-1.193-0.754-1.614-0.836
		c-0.349-0.067-0.559-0.108-0.863-0.425c-0.304-0.316-0.343-0.535-0.408-0.897c-0.078-0.438-0.186-1.037-0.804-1.68
		c-0.618-0.643-1.193-0.755-1.613-0.836c-0.349-0.067-0.559-0.108-0.863-0.424c-0.304-0.316-0.343-0.535-0.408-0.898
		c-0.078-0.437-0.185-1.036-0.803-1.68c-0.28-0.291-0.733-0.291-1.012,0c-0.28,0.292-0.28,0.763,0,1.054
		C-69.92,605.532-69.881,605.752-69.816,606.115z"/>
	<path fill="#D7D7D7" d="M-45.052,618.143c-0.304-0.317-0.343-0.535-0.408-0.898c-0.077-0.437-0.185-1.036-0.803-1.68
		s-1.193-0.754-1.614-0.836c-0.349-0.067-0.559-0.107-0.862-0.424c-0.304-0.316-0.343-0.535-0.408-0.898
		c-0.078-0.437-0.185-1.037-0.803-1.68s-1.193-0.754-1.614-0.835c-0.349-0.067-0.559-0.108-0.862-0.425
		c-0.304-0.316-0.343-0.535-0.408-0.898c-0.077-0.437-0.185-1.036-0.803-1.68c-0.279-0.291-0.733-0.291-1.013,0
		c-0.279,0.291-0.279,0.763,0,1.054c0.304,0.316,0.343,0.535,0.408,0.898c0.078,0.438,0.185,1.036,0.803,1.68
		s1.193,0.755,1.613,0.836c0.35,0.067,0.56,0.107,0.863,0.424c0.304,0.316,0.343,0.535,0.407,0.898
		c0.078,0.438,0.186,1.036,0.804,1.68c0.618,0.643,1.193,0.754,1.613,0.836c0.35,0.067,0.56,0.108,0.863,0.425
		c0.304,0.316,0.343,0.535,0.408,0.898c0.078,0.437,0.185,1.037,0.803,1.68c0.279,0.291,0.733,0.291,1.013,0
		C-44.771,618.906-44.771,618.434-45.052,618.143z"/>
	<path fill="#D7D7D7" d="M-51.646,607.139c0.077,0.438,0.185,1.036,0.803,1.68s1.193,0.754,1.613,0.836
		c0.349,0.067,0.56,0.108,0.863,0.424s0.343,0.536,0.407,0.898c0.078,0.438,0.186,1.036,0.804,1.68
		c0.618,0.643,1.193,0.755,1.613,0.836c0.349,0.067,0.56,0.108,0.863,0.425c0.304,0.316,0.343,0.535,0.407,0.898
		c0.079,0.437,0.186,1.036,0.804,1.68c0.279,0.291,0.733,0.291,1.013,0c0.279-0.292,0.279-0.763,0-1.054
		c-0.305-0.317-0.343-0.535-0.408-0.898c-0.078-0.438-0.185-1.036-0.803-1.68s-1.193-0.754-1.614-0.836
		c-0.349-0.067-0.559-0.108-0.862-0.425c-0.305-0.316-0.344-0.535-0.408-0.898c-0.078-0.437-0.185-1.037-0.803-1.68
		c-0.618-0.644-1.193-0.755-1.614-0.836c-0.349-0.067-0.559-0.107-0.862-0.424c-0.304-0.317-0.343-0.536-0.408-0.898
		c-0.078-0.437-0.185-1.036-0.803-1.68c-0.28-0.291-0.732-0.291-1.013,0c-0.279,0.292-0.279,0.764,0,1.055
		C-51.751,606.558-51.712,606.777-51.646,607.139z"/>
	<path fill="#D7D7D7" d="M-65.24,633.92c-0.078-0.438-0.185-1.036-0.803-1.679c-0.618-0.644-1.194-0.754-1.614-0.836
		c-0.349-0.068-0.559-0.108-0.863-0.425c-0.304-0.316-0.343-0.535-0.408-0.897c-0.079-0.438-0.186-1.037-0.804-1.68
		c-0.618-0.644-1.193-0.754-1.613-0.835c-0.349-0.067-0.559-0.108-0.863-0.424c-0.304-0.316-0.343-0.536-0.408-0.898
		c-0.078-0.438-0.185-1.037-0.803-1.68c-0.28-0.291-0.733-0.291-1.013,0c-0.279,0.292-0.279,0.763,0,1.055
		c0.304,0.316,0.343,0.534,0.408,0.897c0.078,0.438,0.185,1.036,0.803,1.68s1.193,0.754,1.613,0.835
		c0.35,0.068,0.559,0.108,0.863,0.425c0.304,0.316,0.343,0.535,0.407,0.898c0.079,0.438,0.186,1.036,0.803,1.68
		c0.618,0.644,1.194,0.754,1.614,0.835c0.349,0.068,0.559,0.109,0.863,0.425c0.304,0.316,0.343,0.536,0.408,0.898
		c0.079,0.438,0.186,1.036,0.803,1.68c0.28,0.292,0.733,0.292,1.013,0c0.28-0.29,0.28-0.762,0-1.054
		C-65.136,634.502-65.175,634.284-65.24,633.92z"/>
	<path fill="#D7D7D7" d="M-62.236,632.117c-0.304-0.317-0.343-0.535-0.408-0.898c-0.078-0.438-0.185-1.037-0.803-1.68
		s-1.194-0.754-1.614-0.835c-0.349-0.068-0.559-0.109-0.863-0.425c-0.304-0.316-0.343-0.534-0.408-0.897
		c-0.078-0.438-0.185-1.037-0.803-1.68c-0.618-0.644-1.193-0.755-1.613-0.836c-0.349-0.067-0.559-0.108-0.863-0.425
		c-0.304-0.316-0.343-0.535-0.407-0.898c-0.078-0.438-0.185-1.037-0.803-1.68c-0.28-0.291-0.733-0.291-1.013,0
		c-0.28,0.291-0.28,0.763,0,1.054c0.304,0.317,0.343,0.535,0.408,0.897c0.078,0.438,0.185,1.037,0.803,1.68
		c0.618,0.644,1.193,0.755,1.613,0.836c0.35,0.068,0.559,0.109,0.863,0.425c0.304,0.316,0.343,0.535,0.408,0.898
		c0.079,0.438,0.186,1.037,0.803,1.68c0.618,0.644,1.194,0.754,1.614,0.836c0.349,0.067,0.559,0.108,0.863,0.425
		c0.304,0.316,0.343,0.535,0.408,0.898c0.078,0.438,0.185,1.037,0.803,1.68c0.28,0.292,0.733,0.292,1.013,0
		C-61.957,632.88-61.957,632.408-62.236,632.117z"/>
</g>
</svg>
