<svg xmlns="http://www.w3.org/2000/svg" width="40" height="40" viewBox="-74.64 603.945 40 40"><path d="M-51.149 620.395l-3.204-.487-1.434-3.033c-.121-.255-.37-.416-.643-.416s-.522.161-.643.416l-1.433 3.033-3.205.487a.724.724 0 0 0-.577.506.767.767 0 0 0 .18.764l2.32 2.362-.548 3.336a.76.76 0 0 0 .286.729.69.69 0 0 0 .754.055l2.865-1.573 2.866 1.573c.241.132.533.111.754-.056s.332-.449.286-.729l-.548-3.336 2.32-2.362a.769.769 0 0 0 .179-.764.72.72 0 0 0-.575-.505zm-3.193 2.84a.764.764 0 0 0-.205.659l.366 2.231-1.915-1.052a.69.69 0 0 0-.668 0l-1.915 1.052.367-2.231a.764.764 0 0 0-.205-.659l-1.554-1.583 2.146-.326a.72.72 0 0 0 .539-.409l.958-2.026.958 2.026c.104.22.306.373.539.409l2.146.326-1.557 1.583zm19.175-2.455l-2.676-.764-.913-2.736a.723.723 0 0 0-.589-.496.708.708 0 0 0-.687.332l-1.525 2.424-2.774.063a.715.715 0 0 0-.633.43.771.771 0 0 0 .089.781l1.735 2.263-.803 2.778a.768.768 0 0 0 .197.76c.2.193.487.252.742.151l2.596-1.024 2.278 1.651a.693.693 0 0 0 .756.042.753.753 0 0 0 .368-.688l-.129-2.897 2.212-1.756a.761.761 0 0 0 .269-.734.73.73 0 0 0-.513-.58zm-3.134 2.119a.757.757 0 0 0-.281.627l.079 1.779-1.396-1.013a.69.69 0 0 0-.664-.085l-1.591.629.492-1.706a.77.77 0 0 0-.126-.679l-1.067-1.392 1.705-.039a.71.71 0 0 0 .584-.337l.934-1.484.56 1.676a.726.726 0 0 0 .487.474l1.645.469-1.361 1.081zm-13.178 13.206l-3.204-.485-1.434-3.034a.713.713 0 0 0-.643-.416.716.716 0 0 0-.643.416l-1.433 3.034-3.204.485a.723.723 0 0 0-.578.508.767.767 0 0 0 .18.764l2.32 2.36-.548 3.337a.756.756 0 0 0 .286.728.69.69 0 0 0 .754.057l2.865-1.574 2.865 1.574a.692.692 0 0 0 .755-.056.757.757 0 0 0 .285-.729l-.548-3.337 2.32-2.36a.768.768 0 0 0 .18-.765.717.717 0 0 0-.575-.507zm-3.192 2.841a.76.76 0 0 0-.205.657l.366 2.232-1.915-1.053a.695.695 0 0 0-.668 0l-1.915 1.053.366-2.231a.764.764 0 0 0-.205-.658l-1.554-1.581 2.146-.327a.72.72 0 0 0 .539-.408l.958-2.026.957 2.026a.72.72 0 0 0 .539.408l2.145.327-1.554 1.581zm-17.741-30.13c.078.438.185 1.036.803 1.68.618.644 1.193.755 1.613.835.349.068.559.109.863.425s.343.535.408.898c.078.438.186 1.037.803 1.68.618.643 1.193.754 1.614.835.349.067.559.108.863.425.304.316.343.535.408.898.078.438.185 1.037.803 1.68.28.291.733.291 1.013 0s.28-.763 0-1.053c-.304-.317-.343-.536-.408-.898-.078-.438-.185-1.037-.803-1.68-.618-.644-1.193-.755-1.614-.836-.349-.068-.559-.109-.863-.425-.304-.316-.343-.534-.408-.897-.078-.438-.185-1.037-.803-1.68-.618-.644-1.193-.755-1.614-.836-.349-.067-.559-.108-.863-.425-.304-.316-.343-.535-.408-.898-.078-.438-.185-1.036-.803-1.68a.699.699 0 0 0-1.013 0 .766.766 0 0 0 0 1.054c.305.317.344.535.409.898zm2.596-2.701c.078.438.185 1.037.803 1.68.618.644 1.194.755 1.614.836.349.067.559.107.863.424s.343.536.408.898c.078.437.185 1.036.803 1.68.618.643 1.194.754 1.614.836.349.067.559.108.863.424.304.316.343.536.407.898.079.438.186 1.037.803 1.68a.697.697 0 0 0 1.013 0 .768.768 0 0 0 0-1.054c-.304-.317-.343-.535-.408-.898-.078-.438-.185-1.036-.803-1.68s-1.193-.754-1.614-.836c-.349-.067-.559-.108-.863-.425-.304-.316-.343-.535-.408-.897-.078-.438-.186-1.037-.804-1.68-.618-.643-1.193-.755-1.613-.836-.349-.067-.559-.108-.863-.424-.304-.316-.343-.535-.408-.898-.078-.437-.185-1.036-.803-1.68a.696.696 0 0 0-1.012 0 .766.766 0 0 0 0 1.054c.304.315.343.535.408.898zm24.764 12.028c-.304-.317-.343-.535-.408-.898-.077-.437-.185-1.036-.803-1.68s-1.193-.754-1.614-.836c-.349-.067-.559-.107-.862-.424-.304-.316-.343-.535-.408-.898-.078-.437-.185-1.037-.803-1.68s-1.193-.754-1.614-.835c-.349-.067-.559-.108-.862-.425-.304-.316-.343-.535-.408-.898-.077-.437-.185-1.036-.803-1.68a.697.697 0 0 0-1.013 0 .768.768 0 0 0 0 1.054c.304.316.343.535.408.898.078.438.185 1.036.803 1.68s1.193.755 1.613.836c.35.067.56.107.863.424.304.316.343.535.407.898.078.438.186 1.036.804 1.68.618.643 1.193.754 1.613.836.35.067.56.108.863.425.304.316.343.535.408.898.078.437.185 1.037.803 1.68a.697.697 0 0 0 1.013 0 .766.766 0 0 0 0-1.055zm-6.594-11.004c.077.438.185 1.036.803 1.68s1.193.754 1.613.836c.349.067.56.108.863.424s.343.536.407.898c.078.438.186 1.036.804 1.68.618.643 1.193.755 1.613.836.349.067.56.108.863.425.304.316.343.535.407.898.079.437.186 1.036.804 1.68a.697.697 0 0 0 1.013 0 .768.768 0 0 0 0-1.054c-.305-.317-.343-.535-.408-.898-.078-.438-.185-1.036-.803-1.68s-1.193-.754-1.614-.836c-.349-.067-.559-.108-.862-.425-.305-.316-.344-.535-.408-.898-.078-.437-.185-1.037-.803-1.68-.618-.644-1.193-.755-1.614-.836-.349-.067-.559-.107-.862-.424-.304-.317-.343-.536-.408-.898-.078-.437-.185-1.036-.803-1.68a.697.697 0 0 0-1.013 0 .77.77 0 0 0 0 1.055c.303.316.342.535.408.897zM-65.24 633.92c-.078-.438-.185-1.036-.803-1.679-.618-.644-1.194-.754-1.614-.836-.349-.068-.559-.108-.863-.425-.304-.316-.343-.535-.408-.897-.079-.438-.186-1.037-.804-1.68-.618-.644-1.193-.754-1.613-.835-.349-.067-.559-.108-.863-.424-.304-.316-.343-.536-.408-.898-.078-.438-.185-1.037-.803-1.68a.697.697 0 0 0-1.013 0 .77.77 0 0 0 0 1.055c.304.316.343.534.408.897.078.438.185 1.036.803 1.68s1.193.754 1.613.835c.35.068.559.108.863.425.304.316.343.535.407.898.079.438.186 1.036.803 1.68.618.644 1.194.754 1.614.835.349.068.559.109.863.425.304.316.343.536.408.898.079.438.186 1.036.803 1.68a.695.695 0 0 0 1.013 0 .766.766 0 0 0 0-1.054c-.302-.318-.341-.536-.406-.9zm3.004-1.803c-.304-.317-.343-.535-.408-.898-.078-.438-.185-1.037-.803-1.68s-1.194-.754-1.614-.835c-.349-.068-.559-.109-.863-.425-.304-.316-.343-.534-.408-.897-.078-.438-.185-1.037-.803-1.68-.618-.644-1.193-.755-1.613-.836-.349-.067-.559-.108-.863-.425-.304-.316-.343-.535-.407-.898-.078-.438-.185-1.037-.803-1.68a.697.697 0 0 0-1.013 0 .766.766 0 0 0 0 1.054c.304.317.343.535.408.897.078.438.185 1.037.803 1.68.618.644 1.193.755 1.613.836.35.068.559.109.863.425.304.316.343.535.408.898.079.438.186 1.037.803 1.68.618.644 1.194.754 1.614.836.349.067.559.108.863.425.304.316.343.535.408.898.078.438.185 1.037.803 1.68a.695.695 0 0 0 1.013 0 .77.77 0 0 0-.001-1.055z" fill="#D7D7D7"/></svg>