<?xml version="1.0" encoding="utf-8"?>
<!-- Generator: Adobe Illustrator 14.0.0, SVG Export Plug-In . SVG Version: 6.00 Build 43363)  -->
<!DOCTYPE svg PUBLIC "-//W3C//DTD SVG 1.1//EN" "http://www.w3.org/Graphics/SVG/1.1/DTD/svg11.dtd">
<svg version="1.1" id="Layer_1" xmlns="http://www.w3.org/2000/svg" xmlns:xlink="http://www.w3.org/1999/xlink" x="0px" y="0px"
	 width="30px" height="36px" viewBox="0 162.001 30 36" enable-background="new 0 162.001 30 36" xml:space="preserve">
<g>
	<path fill="#C4C4C4" d="M23.495,185.719h-3.21v-1.629c0.32-0.271,0.669-0.568,0.989-0.893c1.703-1.73,2.651-4.055,2.641-6.472
		v-7.417h1.212c0.473-0.001,0.854-0.382,0.854-0.851c-0.004-3.562-2.914-6.449-6.505-6.455h-5.817
		c-0.767,0.001-1.514,0.237-2.14,0.675c-3.515,1.358-5.838,4.707-5.86,8.448v5.6c0.008,2.423,0.974,4.747,2.689,6.472
		c0.407,0.433,0.866,0.813,1.368,1.133v1.39H6.504C2.917,185.719,0,188.643,0,192.2v4.953c0,0.468,0.382,0.847,0.854,0.847h28.291
		c0.472,0,0.854-0.379,0.855-0.847V192.2C30,188.643,27.081,185.719,23.495,185.719z M13.659,163.695h5.817
		c2.321,0.005,4.307,1.653,4.721,3.917H13.659c-1.091,0-1.975-0.877-1.975-1.959C11.684,164.572,12.568,163.695,13.659,163.695z
		 M9.982,165.559c0,0.034-0.002,0.067-0.002,0.102c0.001,1.367,0.772,2.619,1.999,3.244c-1.71,1.689-3.558,2.026-4.569,2.067
		C7.459,168.889,8.394,166.924,9.982,165.559z M7.366,176.724v-4.059c1.495-0.048,4.247-0.606,6.542-3.359h8.298v7.417
		c0.007,1.977-0.77,3.876-2.164,5.29c-1.366,1.422-3.26,2.227-5.24,2.227c-1.98,0-3.875-0.805-5.241-2.227
		C8.16,180.604,7.372,178.704,7.366,176.724z M14.834,185.935c1.293,0,2.569-0.281,3.742-0.82v1.011l-3.672,2.266l-3.48-2.254
		v-0.878C12.504,185.706,13.664,185.936,14.834,185.935z M1.708,192.2c0-2.623,2.151-4.788,4.796-4.788h3.801l3.68,2.443v6.451
		H1.708V192.2z M28.292,196.306H15.694v-6.439l3.967-2.455h3.833c2.645,0,4.796,2.166,4.796,4.788V196.306z"/>
	<path fill="#C4C4C4" d="M12.705,174.279c-0.472,0-0.854,0.379-0.854,0.847c0.002,0.199-0.104,0.384-0.277,0.485
		c-0.174,0.101-0.388,0.101-0.562,0c-0.173-0.101-0.279-0.286-0.276-0.485c0-0.468-0.382-0.847-0.854-0.847
		s-0.854,0.379-0.854,0.847c-0.006,0.806,0.425,1.554,1.128,1.958c0.703,0.405,1.572,0.405,2.275,0
		c0.704-0.405,1.134-1.152,1.128-1.958C13.56,174.658,13.177,174.279,12.705,174.279z"/>
	<path fill="#C4C4C4" d="M18.353,177.373c1.251-0.002,2.264-1.007,2.266-2.247c0-0.468-0.382-0.847-0.854-0.847
		c-0.472,0-0.854,0.379-0.854,0.847c0,0.305-0.249,0.553-0.557,0.553s-0.558-0.248-0.558-0.553c0-0.468-0.382-0.847-0.854-0.847
		s-0.854,0.379-0.854,0.847C16.088,176.366,17.101,177.371,18.353,177.373z"/>
</g>
</svg>
