<svg xmlns="http://www.w3.org/2000/svg" width="30" height="36" viewBox="0 162.001 30 36"><g fill="#C4C4C4"><path d="M23.495 185.719h-3.21v-1.629c.32-.271.669-.568.989-.893a9.171 9.171 0 0 0 2.641-6.472v-7.417h1.212a.853.853 0 0 0 .854-.851c-.004-3.562-2.914-6.449-6.505-6.455h-5.817a3.741 3.741 0 0 0-2.14.675c-3.515 1.358-5.838 4.707-5.86 8.448v5.6a9.224 9.224 0 0 0 2.689 6.472c.407.433.866.813 1.368 1.133v1.39H6.504C2.917 185.719 0 188.643 0 192.2v4.953a.85.85 0 0 0 .854.847h28.291a.852.852 0 0 0 .855-.847V192.2c0-3.557-2.919-6.481-6.505-6.481zm-9.836-22.024h5.817c2.321.005 4.307 1.653 4.721 3.917H13.659a1.967 1.967 0 0 1-1.975-1.959c0-1.081.884-1.958 1.975-1.958zm-3.677 1.864l-.002.102a3.646 3.646 0 0 0 1.999 3.244c-1.71 1.689-3.558 2.026-4.569 2.067a7.368 7.368 0 0 1 2.572-5.413zm-2.616 11.165v-4.059c1.495-.048 4.247-.606 6.542-3.359h8.298v7.417a7.495 7.495 0 0 1-2.164 5.29 7.267 7.267 0 0 1-5.24 2.227 7.27 7.27 0 0 1-5.241-2.227 7.534 7.534 0 0 1-2.195-5.289zm7.468 9.211a8.962 8.962 0 0 0 3.742-.82v1.011l-3.672 2.266-3.48-2.254v-.878a8.92 8.92 0 0 0 3.41.675zM1.708 192.2c0-2.623 2.151-4.788 4.796-4.788h3.801l3.68 2.443v6.451H1.708V192.2zm26.584 4.106H15.694v-6.439l3.967-2.455h3.833c2.645 0 4.796 2.166 4.796 4.788v4.106z"/><path d="M12.705 174.279a.85.85 0 0 0-.854.847.556.556 0 0 1-.839.485.553.553 0 0 1-.276-.485c0-.468-.382-.847-.854-.847s-.854.379-.854.847a2.241 2.241 0 0 0 1.128 1.958 2.282 2.282 0 0 0 2.275 0 2.24 2.24 0 0 0 1.128-1.958.85.85 0 0 0-.854-.847zm5.648 3.094a2.26 2.26 0 0 0 2.266-2.247.85.85 0 0 0-.854-.847.85.85 0 0 0-.854.847c0 .305-.249.553-.557.553s-.558-.248-.558-.553c0-.468-.382-.847-.854-.847s-.854.379-.854.847a2.257 2.257 0 0 0 2.265 2.247z"/></g></svg>