<svg xmlns="http://www.w3.org/2000/svg" width="30" height="30" viewBox="-282.64 435.945 30 30"><g fill="#505050"><path d="M-256.023 441.992h-1.187l-2.453-5.12a.562.562 0 0 0-.75-.261l-3.867 1.83-1.585-2.252a.566.566 0 0 0-.785-.146l-8.563 5.949h-4.042a3.394 3.394 0 0 0-3.385 3.381v17.229a3.36 3.36 0 0 0 3.385 3.343h23.231a3.36 3.36 0 0 0 3.384-3.343v-17.229a3.393 3.393 0 0 0-3.383-3.381zm-2.435 0h-10.743l8.763-4.144 1.98 4.144zm-8.007-4.71l1.153 1.637-6.514 3.074h-1.423l6.784-4.711zm10.442 27.543h-23.231a2.25 2.25 0 0 1-1.593-.646 2.224 2.224 0 0 1-.664-1.576v-17.229a2.269 2.269 0 0 1 2.257-2.26h23.231a2.268 2.268 0 0 1 2.257 2.26v2.502h-6.007c-.894 0-1.75.354-2.38.984s-.981 1.482-.979 2.371v5.512c0 1.854 1.495 3.389 3.358 3.389h6.007v2.471a2.22 2.22 0 0 1-.664 1.576 2.25 2.25 0 0 1-1.592.646zm2.257-15.828v10.014h-6.007c-1.243 0-2.231-1.03-2.231-2.268v-5.512a2.214 2.214 0 0 1 .647-1.579c.42-.419.989-.655 1.584-.655h6.007z"/><path d="M-260.597 453.987c0 1.025.837 1.855 1.866 1.855a1.86 1.86 0 0 0 1.866-1.855 1.862 1.862 0 0 0-1.866-1.855c-1.029 0-1.864.83-1.866 1.855zm1.866-.736c.408 0 .739.33.739.735a.738.738 0 0 1-1.477 0c0-.405.33-.735.738-.735z"/></g></svg>