<?xml version="1.0" encoding="utf-8"?>
<!-- Generator: Adobe Illustrator 14.0.0, SVG Export Plug-In . SVG Version: 6.00 Build 43363)  -->
<!DOCTYPE svg PUBLIC "-//W3C//DTD SVG 1.1//EN" "http://www.w3.org/Graphics/SVG/1.1/DTD/svg11.dtd">
<svg version="1.1" id="Layer_1" xmlns="http://www.w3.org/2000/svg" xmlns:xlink="http://www.w3.org/1999/xlink" x="0px" y="0px"
	 width="30px" height="30px" viewBox="198.176 199 30 30" enable-background="new 198.176 199 30 30" xml:space="preserve">
<g>
	
		<linearGradient id="SVGID_1_" gradientUnits="userSpaceOnUse" x1="213.2061" y1="230.698" x2="213.2061" y2="196.8845" gradientTransform="matrix(0.9992 0 0 -0.9992 0.1473 427.4299)">
		<stop  offset="0" style="stop-color:#00EFD1"/>
		<stop  offset="1" style="stop-color:#00ACEA"/>
	</linearGradient>
	<path fill="url(#SVGID_1_)" d="M224.792,205.048h-1.187l-2.453-5.121c-0.064-0.134-0.18-0.236-0.32-0.285
		c-0.142-0.049-0.296-0.04-0.43,0.025l-3.867,1.83l-1.585-2.252c-0.176-0.256-0.527-0.321-0.785-0.146l-8.564,5.95h-4.042
		c-1.871,0.01-3.382,1.52-3.384,3.38v17.229c0.005,1.854,1.521,3.351,3.384,3.343h23.232c1.863,0.008,3.379-1.489,3.384-3.343
		v-17.229C228.174,206.568,226.663,205.058,224.792,205.048z M222.357,205.048h-10.743l8.763-4.143L222.357,205.048z
		 M214.35,200.338l1.154,1.636l-6.514,3.075h-1.423L214.35,200.338z M224.792,227.881H201.56c-0.596,0.003-1.169-0.229-1.592-0.646
		c-0.423-0.418-0.663-0.984-0.665-1.577v-17.229c0.001-1.241,1.009-2.25,2.257-2.259h23.232c1.249,0.009,2.256,1.018,2.257,2.259
		v2.503h-6.007c-0.894,0-1.75,0.354-2.38,0.984c-0.63,0.63-0.982,1.483-0.979,2.371v5.512c0,1.854,1.495,3.389,3.359,3.389h6.007
		v2.47c-0.002,0.593-0.241,1.159-0.664,1.577C225.961,227.651,225.389,227.884,224.792,227.881z M227.049,212.052v10.015h-6.007
		c-1.243,0-2.232-1.031-2.232-2.268v-5.512c-0.004-0.591,0.229-1.16,0.648-1.579c0.42-0.419,0.989-0.656,1.584-0.656H227.049z"/>
	
		<linearGradient id="SVGID_2_" gradientUnits="userSpaceOnUse" x1="222.1211" y1="230.6941" x2="222.1211" y2="196.8854" gradientTransform="matrix(0.9992 0 0 -0.9992 0.1473 427.4299)">
		<stop  offset="0" style="stop-color:#00EFD1"/>
		<stop  offset="1" style="stop-color:#00ACEA"/>
	</linearGradient>
	<path fill="url(#SVGID_2_)" d="M220.218,217.043c0,1.025,0.836,1.855,1.866,1.855s1.866-0.83,1.866-1.855
		c0-1.024-0.836-1.855-1.866-1.855C221.054,215.188,220.219,216.018,220.218,217.043z M222.084,216.307
		c0.408,0,0.739,0.329,0.739,0.735s-0.331,0.735-0.739,0.735s-0.739-0.329-0.739-0.735S221.676,216.307,222.084,216.307z"/>
</g>
</svg>
