<?xml version="1.0" encoding="utf-8"?>
<!-- Generator: Adobe Illustrator 14.0.0, SVG Export Plug-In . SVG Version: 6.00 Build 43363)  -->
<!DOCTYPE svg PUBLIC "-//W3C//DTD SVG 1.1//EN" "http://www.w3.org/Graphics/SVG/1.1/DTD/svg11.dtd">
<svg version="1.1" id="Layer_1" xmlns="http://www.w3.org/2000/svg" xmlns:xlink="http://www.w3.org/1999/xlink" x="0px" y="0px"
	 width="30px" height="30px" viewBox="-282.64 435.945 30 30" enable-background="new -282.64 435.945 30 30" xml:space="preserve">
<g>
	<path fill="#505050" d="M-256.023,441.992h-1.187l-2.453-5.12c-0.064-0.135-0.18-0.236-0.32-0.285
		c-0.142-0.049-0.296-0.041-0.43,0.024l-3.867,1.83l-1.585-2.252c-0.176-0.257-0.527-0.321-0.785-0.146l-8.563,5.949h-4.042
		c-1.871,0.01-3.383,1.52-3.385,3.381v17.229c0.006,1.854,1.521,3.352,3.385,3.343h23.231c1.863,0.009,3.379-1.489,3.384-3.343
		v-17.229C-252.641,443.513-254.152,442.003-256.023,441.992z M-258.458,441.992h-10.743l8.763-4.144L-258.458,441.992z
		 M-266.465,437.282l1.153,1.637l-6.514,3.074h-1.423L-266.465,437.282z M-256.023,464.825h-23.231
		c-0.597,0.004-1.169-0.229-1.593-0.646c-0.423-0.418-0.662-0.983-0.664-1.576v-17.229c0.001-1.242,1.009-2.25,2.257-2.26h23.231
		c1.249,0.01,2.256,1.018,2.257,2.26v2.502h-6.007c-0.894,0-1.75,0.354-2.38,0.984s-0.981,1.482-0.979,2.371v5.512
		c0,1.854,1.495,3.389,3.358,3.389h6.007v2.471c-0.002,0.593-0.24,1.158-0.664,1.576
		C-254.854,464.595-255.426,464.829-256.023,464.825z M-253.766,448.997v10.014h-6.007c-1.243,0-2.231-1.03-2.231-2.268v-5.512
		c-0.004-0.592,0.229-1.16,0.647-1.579c0.42-0.419,0.989-0.655,1.584-0.655H-253.766z"/>
	<path fill="#505050" d="M-260.597,453.987c0,1.025,0.837,1.855,1.866,1.855c1.03,0,1.866-0.83,1.866-1.855
		c0-1.023-0.836-1.855-1.866-1.855C-259.76,452.132-260.595,452.962-260.597,453.987z M-258.731,453.251
		c0.408,0,0.739,0.33,0.739,0.735s-0.331,0.735-0.739,0.735s-0.738-0.33-0.738-0.735S-259.139,453.251-258.731,453.251z"/>
</g>
</svg>
