<svg xmlns="http://www.w3.org/2000/svg" width="30" height="30" viewBox="198.176 199 30 30"><linearGradient id="a" gradientUnits="userSpaceOnUse" x1="213.206" y1="230.698" x2="213.206" y2="196.885" gradientTransform="matrix(.9992 0 0 -.9992 .147 427.43)"><stop offset="0" stop-color="#00efd1"/><stop offset="1" stop-color="#00acea"/></linearGradient><path fill="url(#a)" d="M224.792 205.048h-1.187l-2.453-5.121a.558.558 0 0 0-.75-.26l-3.867 1.83-1.585-2.252a.567.567 0 0 0-.785-.146l-8.564 5.95h-4.042a3.393 3.393 0 0 0-3.384 3.38v17.229a3.36 3.36 0 0 0 3.384 3.343h23.232a3.36 3.36 0 0 0 3.384-3.343v-17.229a3.391 3.391 0 0 0-3.383-3.381zm-2.435 0h-10.743l8.763-4.143 1.98 4.143zm-8.007-4.71l1.154 1.636-6.514 3.075h-1.423l6.783-4.711zm10.442 27.543H201.56a2.251 2.251 0 0 1-1.592-.646 2.227 2.227 0 0 1-.665-1.577v-17.229a2.268 2.268 0 0 1 2.257-2.259h23.232a2.267 2.267 0 0 1 2.257 2.259v2.503h-6.007c-.894 0-1.75.354-2.38.984a3.337 3.337 0 0 0-.979 2.371v5.512c0 1.854 1.495 3.389 3.359 3.389h6.007v2.47a2.226 2.226 0 0 1-.664 1.577 2.258 2.258 0 0 1-1.593.646zm2.257-15.829v10.015h-6.007c-1.243 0-2.232-1.031-2.232-2.268v-5.512a2.212 2.212 0 0 1 .648-1.579c.42-.419.989-.656 1.584-.656h6.007z"/><linearGradient id="b" gradientUnits="userSpaceOnUse" x1="222.121" y1="230.694" x2="222.121" y2="196.885" gradientTransform="matrix(.9992 0 0 -.9992 .147 427.43)"><stop offset="0" stop-color="#00efd1"/><stop offset="1" stop-color="#00acea"/></linearGradient><path fill="url(#b)" d="M220.218 217.043c0 1.025.836 1.855 1.866 1.855s1.866-.83 1.866-1.855a1.861 1.861 0 0 0-1.866-1.855c-1.03 0-1.865.83-1.866 1.855zm1.866-.736c.408 0 .739.329.739.735s-.331.735-.739.735-.739-.329-.739-.735.331-.735.739-.735z"/></svg>